<svg width="400" height="223" viewBox="0 0 400 223" fill="none" xmlns="http://www.w3.org/2000/svg">
<path fill-rule="evenodd" clip-rule="evenodd" d="M0.0017069 29.2948C0.0017069 23.8597 0.847667 19.2998 2.53974 15.6149C4.33752 11.838 6.87566 8.798 10.154 6.49498C13.4324 4.19196 17.3981 2.53383 22.0513 1.52053C26.7044 0.507203 31.9392 0.000488281 37.7556 0.000488281C43.0433 0.000488281 47.5378 0.322955 51.2392 0.967783C55.0463 1.5205 58.0074 2.16537 60.1224 2.90237C62.872 3.91567 64.4583 5.11318 64.8813 6.49498C65.4101 7.87678 65.6746 9.21256 65.6746 10.5023V20.4512C63.2423 20.3589 61.0742 20.2669 59.1706 20.1753C57.2671 19.9914 55.4164 19.8994 53.6187 19.8994C51.8208 19.8071 50.023 19.7609 48.2253 19.7609C46.4274 19.6686 44.4709 19.6225 42.3559 19.6225C39.0775 19.6225 36.3808 19.8067 34.2658 20.1751C32.2565 20.5437 30.6702 21.0503 29.5069 21.6951C28.3436 22.34 27.5504 23.1691 27.1274 24.1824C26.7044 25.1957 26.493 26.3011 26.493 27.4987C26.493 28.8805 26.6515 30.0781 26.9687 31.0914C27.3917 32.0126 28.1319 32.8878 29.1894 33.7169C30.3527 34.546 31.9919 35.4211 34.107 36.3423C36.3278 37.2635 39.2889 38.415 42.9903 39.7968C47.8549 41.6392 51.9264 43.4356 55.2047 45.1859C58.5888 46.9362 61.2856 48.9167 63.2949 51.1276C65.41 53.3385 66.8905 55.9179 67.7365 58.8657C68.6883 61.8136 69.1642 65.3602 69.1642 69.5056C69.1642 74.7565 68.4769 79.2703 67.1021 83.0472C65.7273 86.7321 63.5064 89.8181 60.4395 92.3054C57.4785 94.7005 53.6185 96.4508 48.8596 97.5563C44.1006 98.7538 38.2842 99.3526 31.4103 99.3526C26.3341 99.3526 21.5752 99.0762 17.1336 98.5235C12.6919 98.0629 9.25489 97.4181 6.8226 96.5891C4.60178 95.8521 3.06832 94.9308 2.22224 93.8254C1.37624 92.6278 0.953221 91.246 0.953221 89.6799V78.4873C5.07759 78.7636 9.09622 78.9939 13.0091 79.1783C16.922 79.2706 20.9406 79.3167 25.065 79.3167C28.6606 79.3167 31.5689 79.1325 33.7897 78.7641C36.1162 78.3956 37.8612 77.8889 39.0246 77.244C40.2936 76.5071 41.1396 75.632 41.5627 74.6186C41.9856 73.5132 42.1971 72.3156 42.1971 71.0259C42.1971 69.3678 41.9327 68.0321 41.4039 67.0187C40.8752 65.9133 39.9235 64.946 38.5487 64.1169C37.2796 63.1957 35.4818 62.3206 33.1552 61.4915C30.9344 60.5703 28.079 59.4649 24.5891 58.1752C19.6187 56.4249 15.5472 54.6286 12.3746 52.7862C9.20202 50.9437 6.7168 48.871 4.91902 46.568C3.12117 44.2651 1.85219 41.7317 1.11197 38.9681C0.371675 36.1124 0.0017069 32.8875 0.0017069 29.2948Z" fill="black"/>
<path fill-rule="evenodd" clip-rule="evenodd" d="M141.347 99.3529H122.382C120.998 99.3529 119.844 98.8272 118.921 97.7759C118.091 96.7245 117.445 95.5298 116.983 94.1917C115.138 89.3172 113.246 84.395 111.308 79.425C109.37 74.3593 107.385 69.4371 105.355 64.6582C103.417 59.8794 101.479 55.2916 99.5408 50.895C97.695 46.4984 95.8954 42.5798 94.1419 39.139V99.3529H77.2531C73.8384 99.3529 72.131 97.6803 72.131 94.3351V0H90.2658C91.6502 0 92.85 0.525688 93.8652 1.57705C94.8803 2.62841 95.7108 3.82312 96.3569 5.16114C97.9257 8.50639 99.6791 12.2816 101.617 16.4871C103.648 20.6925 105.678 25.0891 107.708 29.6768C109.739 34.2645 111.769 38.9478 113.799 43.7268C115.83 48.4101 117.676 52.95 119.337 57.3465V0H136.226C139.64 0 141.347 1.67259 141.347 5.01781V99.3529Z" fill="black"/>
<path fill-rule="evenodd" clip-rule="evenodd" d="M187.282 74.9806H168.647C168.114 79.3772 167.626 83.726 167.182 88.0269C166.739 92.3279 166.428 96.1032 166.251 99.3529H148.414C147.172 99.3529 146.151 98.9228 145.353 98.0626C144.643 97.2024 144.288 95.7688 144.288 93.7616C144.288 92.9015 144.332 91.9934 144.421 91.0376C144.51 90.0818 144.643 89.1739 144.82 88.3137C147.216 72.639 149.923 57.5855 152.94 43.1533C155.957 28.7211 159.773 14.3366 164.387 0H188.48C190.255 0 191.497 0.477864 192.207 1.43364C192.917 2.38941 193.449 3.39296 193.804 4.44432C197.798 17.2517 201.436 31.7795 204.719 48.0277C208.003 64.1803 210.931 81.2887 213.504 99.3529H194.337C191.497 99.3529 189.855 97.6324 189.412 94.1916L187.282 74.9806ZM177.964 18.3509C176.101 26.3794 174.592 33.4999 173.438 39.7124C172.374 45.8295 171.353 51.6598 170.377 57.2032H185.551C184.575 51.6598 183.51 45.8295 182.357 39.7124C181.292 33.4999 179.828 26.3794 177.964 18.3509Z" fill="black"/>
<path fill-rule="evenodd" clip-rule="evenodd" d="M221.988 99.3528C218.292 99.3528 216.444 97.7039 216.444 94.4063V3.10915C222.037 2.07278 227.681 1.31909 233.374 0.848009C239.167 0.282682 244.311 0 248.805 0C255.098 0 260.541 0.565319 265.135 1.69594C269.83 2.82656 273.675 4.66381 276.671 7.20768C279.768 9.75158 282.015 13.0963 283.413 17.2419C284.912 21.3875 285.661 26.4753 285.661 32.5053C285.661 44.1883 283.014 52.6678 277.72 57.9439C272.526 63.1259 264.786 65.717 254.498 65.717C252.001 65.717 249.604 65.6227 247.307 65.4343C245.109 65.1515 243.312 64.869 241.913 64.5865V99.3529L221.988 99.3528ZM241.913 47.2032C243.112 47.3916 244.211 47.533 245.209 47.6274C246.208 47.7218 247.157 47.7689 248.056 47.7689C250.253 47.7689 252.101 47.5805 253.599 47.2037C255.197 46.7326 256.496 45.9318 257.495 44.8012C258.493 43.5763 259.242 41.9747 259.742 39.9961C260.241 38.0175 260.491 35.4735 260.491 32.3643C260.491 29.4436 260.241 27.0411 259.742 25.1567C259.342 23.2724 258.693 21.812 257.794 20.7756C256.895 19.645 255.697 18.8913 254.199 18.5144C252.8 18.1376 251.152 17.9491 249.255 17.9491C248.356 17.9491 247.107 17.9963 245.509 18.0907C243.911 18.0907 242.712 18.1379 241.913 18.2323V47.2032Z" fill="black"/>
<path fill-rule="evenodd" clip-rule="evenodd" d="M96.8197 180.471H105.343C109.556 180.471 112.544 179.566 114.308 177.755C116.169 175.853 117.1 172.82 117.1 168.655C117.1 164.308 116.071 161.275 114.014 159.555C112.054 157.744 108.674 156.838 103.874 156.838H96.8197V180.471ZM96.8197 140.811H104.462C108.184 140.811 110.83 140.087 112.397 138.638C114.063 137.099 114.895 134.156 114.895 129.809C114.895 125.554 114.112 122.701 112.544 121.253C110.977 119.713 108.184 118.944 104.168 118.944C103.188 118.944 101.914 118.989 100.347 119.08C98.7791 119.08 97.6035 119.125 96.8197 119.216V140.811ZM72.131 104.682C77.6174 103.686 83.0547 102.962 88.4432 102.509C93.9295 101.966 98.8771 101.694 103.286 101.694C108.674 101.694 113.573 102.147 117.981 103.053C122.39 103.867 126.113 105.316 129.15 107.399C132.285 109.391 134.686 112.062 136.351 115.412C138.017 118.672 138.849 122.701 138.849 127.5C138.849 132.571 137.772 136.782 135.616 140.132C133.559 143.482 130.032 146.335 125.036 148.689C128.367 149.956 131.11 151.451 133.265 153.171C135.42 154.801 137.086 156.657 138.261 158.74C139.437 160.732 140.221 162.814 140.613 164.988C141.103 167.161 141.347 169.334 141.347 171.507C141.347 176.578 140.466 180.743 138.702 184.003C136.939 187.262 134.539 189.888 131.501 191.88C128.464 193.872 124.888 195.276 120.774 196.091C116.659 196.815 112.25 197.177 107.548 197.177H77.5684C73.9435 197.177 72.131 195.593 72.131 192.424V104.682Z" fill="black"/>
<path fill-rule="evenodd" clip-rule="evenodd" d="M149.542 197.178C145.71 197.178 143.793 195.57 143.793 192.355V101.694H165.237C169.07 101.694 170.987 103.301 170.987 106.516V197.178H149.542Z" fill="black"/>
<path fill-rule="evenodd" clip-rule="evenodd" d="M199.214 121.397H179.284C175.383 121.397 173.432 119.789 173.432 116.574V101.694H246.667C250.569 101.694 252.52 103.301 252.52 106.516V121.397H226.895V197.178H205.067C201.165 197.178 199.214 195.57 199.214 192.355V121.397Z" fill="black"/>
<path fill-rule="evenodd" clip-rule="evenodd" d="M314.281 101.694C318.182 101.694 320.133 103.301 320.133 106.516V120.708H281.855V138.895H309.694C313.595 138.895 315.546 140.503 315.546 143.718V157.91H281.855V178.164H315.863C319.764 178.164 321.715 179.771 321.715 182.986V197.178H260.818C256.916 197.178 254.965 195.57 254.965 192.355V101.694H314.281Z" fill="black"/>
<path fill-rule="evenodd" clip-rule="evenodd" d="M324.161 135.91C324.161 129.079 325.088 123.349 326.943 118.718C328.914 113.972 331.697 110.151 335.291 107.257C338.885 104.363 343.233 102.279 348.334 101.006C353.436 99.7322 359.175 99.0955 365.552 99.0955C371.349 99.0955 376.276 99.5005 380.334 100.311C384.508 101.006 387.754 101.816 390.073 102.742C393.088 104.016 394.827 105.52 395.291 107.257C395.87 108.994 396.16 110.672 396.16 112.293V124.796C393.494 124.68 391.117 124.565 389.03 124.449C386.943 124.218 384.914 124.103 382.943 124.103C380.972 123.987 379.001 123.929 377.03 123.929C375.059 123.813 372.914 123.755 370.595 123.755C367.001 123.755 364.045 123.987 361.726 124.45C359.523 124.913 357.784 125.55 356.508 126.36C355.233 127.171 354.363 128.213 353.9 129.486C353.436 130.759 353.204 132.149 353.204 133.654C353.204 135.39 353.378 136.895 353.726 138.168C354.19 139.326 355.001 140.426 356.161 141.468C357.436 142.51 359.233 143.61 361.552 144.767C363.987 145.925 367.233 147.372 371.291 149.109C376.624 151.424 381.071 153.706 384.682 155.881C388.376 158.105 391.312 160.596 393.552 163.348C395.834 166.153 397.494 169.368 398.421 173.073C399.465 176.777 399.343 181.637 399.343 186.847C399.343 193.446 398.589 199.118 397.082 203.865C395.575 208.496 392.496 211.769 389.134 214.895C385.887 217.905 382.867 219.166 377.65 220.555C372.433 222.06 365.191 221.843 357.655 221.843C352.089 221.843 348.135 221.791 343.265 221.097C338.396 220.518 334.306 221.522 331.639 220.48C329.204 219.554 327.523 218.396 326.596 217.007C325.668 215.502 325.226 213.765 325.204 211.797L325.097 201.968C329.512 200.904 334.025 200.888 338.529 200.414C342.819 200.53 347.274 200.868 351.746 200.285C353.375 200.073 357.54 200.332 362.299 199.597C365.56 198.829 366.475 197.757 367.696 196.806C368.789 195.962 369.262 194.143 369.726 192.869C370.19 191.48 370.422 189.975 370.422 188.354C370.422 186.27 370.131 184.592 369.552 183.318C368.972 181.929 367.929 180.714 366.421 179.672C365.03 178.514 363.059 177.414 360.508 176.372C358.074 175.214 354.943 173.825 351.117 172.205C345.668 170.005 341.204 167.747 337.726 165.432C334.248 163.117 331.523 160.512 329.552 157.618C327.581 154.724 326.19 151.54 325.378 148.067C324.567 144.478 324.161 140.425 324.161 135.91Z" fill="black"/>
<path fill-rule="evenodd" clip-rule="evenodd" d="M0 199.988H377.189L357.773 221.817L0 222.051V199.988Z" fill="black"/>
<path fill-rule="evenodd" clip-rule="evenodd" d="M2.7437 182.485C1.87052 182.321 1.3056 182.022 0.758946 181.437C0.165554 180.801 -0.0178266 180.152 0.00139168 178.746C0.0191863 176.926 0.155543 176.631 1.43124 175.506C6.32999 171.186 28.5877 151.862 28.682 151.848C28.7461 151.837 29.7605 152.916 30.9325 154.244L33.0635 156.658L29.9519 159.656C28.2405 161.305 22.2607 167.073 16.6635 172.474L6.48677 182.295L5.54023 182.452C4.42018 182.638 3.61013 182.648 2.7437 182.485ZM60.344 182.723C59.9727 182.649 59.591 182.508 59.4938 182.411C59.3977 182.312 56.8882 179.463 53.9185 176.08C49.0486 170.532 44.2385 165.065 33.8351 153.252C31.9217 151.079 30.3186 149.25 30.2727 149.187C30.2253 149.124 29.5445 148.967 28.7556 148.839C26.7629 148.516 24.019 147.641 21.8497 146.638C19.8417 145.709 16.6966 143.803 14.6905 142.299C12.9733 141.011 9.58874 137.817 8.18326 136.158C5.11605 132.537 2.87066 128.475 1.98751 124.949C1.66839 123.676 1.67016 120.281 1.99212 119.437C2.31776 118.578 2.97967 117.257 3.08501 117.257C3.13246 117.257 17.3834 130.615 34.7444 146.941L66.31 176.624L66.4121 177.4C66.7715 180.144 66.1956 181.702 64.5237 182.504C63.8267 182.838 61.5341 182.959 60.344 182.723ZM38.8234 146.923L36.6404 144.863L37.9468 143.71C38.6659 143.075 40.0745 141.833 41.078 140.949C42.9023 139.342 42.9027 139.342 42.7193 138.913C41.8581 136.898 41.7736 135.409 42.4524 134.187C42.6974 133.744 45.4043 131.174 51.4641 125.63L60.1246 117.706L61.2585 118.764L62.3922 119.823L56.9768 124.769L51.5611 129.715L52.5766 130.669L53.5919 131.624L58.931 126.751C61.8674 124.071 64.3397 121.878 64.425 121.878C64.5075 121.879 65.0521 122.325 65.6279 122.871L66.6751 123.863L61.2621 128.807L55.8492 133.751L56.8645 134.705L57.88 135.66L63.296 130.716L68.7119 125.773L69.7278 126.727L70.7433 127.682L62.0697 135.602C52.8894 143.985 52.902 143.975 51.2829 144.174C50.4858 144.271 49.1428 144.027 47.9105 143.559L47.0026 143.213L45.0072 145.147C43.9099 146.21 42.5609 147.508 42.0097 148.031L41.0071 148.982L38.8234 146.923Z" fill="black"/>
</svg>
