<?xml version="1.0" encoding="UTF-8" standalone="no"?>
<!-- Created with Inkscape (http://www.inkscape.org/) -->

<svg
   width="187.6895mm"
   height="296.5867mm"
   viewBox="0 0 187.6895 296.5867"
   version="1.1"
   id="svg5"
   xml:space="preserve"
   inkscape:version="1.2 (dc2aedaf03, 2022-05-15)"
   sodipodi:docname="Plano de fundo.svg"
   xmlns:inkscape="http://www.inkscape.org/namespaces/inkscape"
   xmlns:sodipodi="http://sodipodi.sourceforge.net/DTD/sodipodi-0.dtd"
   xmlns="http://www.w3.org/2000/svg"
   xmlns:svg="http://www.w3.org/2000/svg"><sodipodi:namedview
     id="namedview7"
     pagecolor="#ffffff"
     bordercolor="#000000"
     borderopacity="0.25"
     inkscape:showpageshadow="2"
     inkscape:pageopacity="0.0"
     inkscape:pagecheckerboard="0"
     inkscape:deskcolor="#d1d1d1"
     inkscape:document-units="mm"
     showgrid="false"
     inkscape:lockguides="false"
     inkscape:zoom="1.6554513"
     inkscape:cx="454.86087"
     inkscape:cy="1165.2412"
     inkscape:window-width="1600"
     inkscape:window-height="837"
     inkscape:window-x="-8"
     inkscape:window-y="-8"
     inkscape:window-maximized="1"
     inkscape:current-layer="layer1" /><defs
     id="defs2"><clipPath
       id="clip0_21_955"><rect
         width="50.858299"
         height="50.670799"
         fill="#ffffff"
         transform="matrix(0.957665,0.287885,-0.290234,0.956956,127.453,308.855)"
         id="rect6268"
         x="0"
         y="0" /></clipPath><clipPath
       id="clip1_21_955"><rect
         width="50.586601"
         height="51.218102"
         fill="#ffffff"
         transform="matrix(0.708672,0.705538,-0.708672,0.705538,96.6967,580.173)"
         id="rect6271"
         x="0"
         y="0" /></clipPath></defs><g
     inkscape:label="Camada 1"
     inkscape:groupmode="layer"
     id="layer1"
     transform="translate(0,0.2260274)"><g
       style="fill:none"
       id="g6352"
       transform="matrix(0.51562817,0,0,0.46099083,0.34803515,-2.5774419)"><path
         d="M -0.98185224,5.3400732 363.80083,5.5855674 363.14885,648.431 H 0 Z"
         fill="#a8a8a8"
         fill-opacity="0.3"
         id="path6132"
         sodipodi:nodetypes="ccccc" /><path
         d="M 162.981,512.387 145.14,476.274 c -4.534,0.785 -8.592,-0.196 -12.173,-2.944 -3.582,-2.748 -5.372,-6.575 -5.372,-11.481 0,-2.944 0.903,-5.823 2.71,-8.636 1.807,-2.813 4.452,-4.711 7.935,-5.692 1.052,-6.477 3.959,-11.678 8.724,-15.603 4.764,-3.925 10.136,-5.888 16.116,-5.888 5.979,0 11.335,1.963 16.066,5.888 4.732,3.925 7.656,9.126 8.773,15.603 3.483,0.981 6.128,2.879 7.935,5.692 1.807,2.813 2.71,5.692 2.71,8.636 0,4.906 -1.856,8.733 -5.569,11.481 -3.712,2.748 -7.639,3.729 -11.779,2.944 z m -20.995,-41.706 c 1.183,0 2.3,-0.164 3.351,-0.491 1.052,-0.327 1.873,-0.785 2.464,-1.374 l 2.563,-2.65 2.267,1.963 c 1.643,1.112 3.434,1.816 5.372,2.11 1.939,0.294 3.729,0.442 5.372,0.442 1.643,0 3.319,-0.148 5.027,-0.442 1.709,-0.294 3.385,-0.998 5.027,-2.11 l 2.366,-1.963 2.464,2.65 c 0.592,0.589 1.429,1.047 2.514,1.374 1.084,0.327 2.185,0.491 3.302,0.491 2.234,0 4.222,-0.9 5.963,-2.699 1.742,-1.799 2.612,-3.844 2.612,-6.133 0,-2.029 -0.624,-3.795 -1.872,-5.3 -1.249,-1.504 -3.023,-2.453 -5.323,-2.846 l -3.45,-0.49 -0.197,-3.827 c -0.723,-5.169 -2.744,-9.372 -6.062,-12.611 -3.319,-3.238 -7.541,-4.857 -12.666,-4.857 -5.126,0 -9.364,1.619 -12.716,4.857 -3.351,3.239 -5.355,7.442 -6.013,12.611 l -0.295,3.827 -3.45,0.785 c -1.972,0.523 -3.647,1.456 -5.027,2.797 -1.38,1.341 -2.07,3.025 -2.07,5.054 0,2.289 0.871,4.334 2.612,6.133 1.741,1.799 3.696,2.699 5.865,2.699 z m 20.995,28.36 12.617,-24.73 -0.592,-0.588 c -1.84,0.981 -3.827,1.701 -5.963,2.159 -2.136,0.458 -4.025,0.687 -5.668,0.687 -2.103,0 -4.238,-0.229 -6.407,-0.687 -2.168,-0.458 -4.074,-1.178 -5.717,-2.159 l -0.591,0.49 z"
         fill="#000000"
         fill-opacity="0.15"
         id="path6134" /><path
         d="m 238.579,509.464 -39.427,-59.371 c 5.651,-4.71 11.828,-8.423 18.531,-11.138 6.703,-2.715 13.668,-4.072 20.896,-4.072 7.229,0 14.194,1.357 20.897,4.072 6.703,2.715 12.88,6.428 18.531,11.138 z m 0,-10.5 31.641,-47.497 c -4.731,-3.075 -9.764,-5.626 -15.098,-7.654 -5.334,-2.028 -10.848,-3.042 -16.543,-3.042 -5.719,0 -11.24,1.014 -16.561,3.042 -5.322,2.028 -10.348,4.579 -15.079,7.654 z m -10.836,-37.095 c 1.507,0 2.787,-0.525 3.838,-1.575 1.051,-1.051 1.577,-2.327 1.577,-3.828 0,-1.501 -0.527,-2.774 -1.583,-3.821 -1.055,-1.047 -2.336,-1.57 -3.844,-1.57 -1.507,0 -2.787,0.525 -3.838,1.576 -1.052,1.05 -1.577,2.326 -1.577,3.827 0,1.501 0.527,2.775 1.582,3.821 1.056,1.047 2.337,1.57 3.845,1.57 z m 10.842,21.099 c 1.508,0 2.787,-0.525 3.839,-1.576 1.051,-1.05 1.577,-2.326 1.577,-3.827 0,-1.501 -0.528,-2.775 -1.583,-3.821 -1.055,-1.047 -2.337,-1.571 -3.844,-1.571 -1.508,0 -2.787,0.526 -3.839,1.576 -1.051,1.051 -1.577,2.327 -1.577,3.828 0,1.5 0.528,2.774 1.583,3.821 1.055,1.047 2.337,1.57 3.844,1.57 z"
         fill="#000000"
         fill-opacity="0.15"
         id="path6136" /><g
         clip-path="url(#clip0_21_955)"
         id="g6140"><path
           d="m 138.325,360.624 -11.026,-36.659 c 3.644,-1.55 7.403,-2.505 11.277,-2.866 3.873,-0.36 7.671,0.019 11.391,1.138 3.721,1.118 7.094,2.894 10.12,5.329 3.026,2.435 5.626,5.301 7.799,8.6 z m 1.639,-5.404 23.7,-19.552 c -1.955,-2.314 -4.147,-4.406 -6.576,-6.275 -2.429,-1.87 -5.109,-3.245 -8.04,-4.126 -2.944,-0.885 -5.944,-1.217 -8.999,-0.997 -3.056,0.221 -6.041,0.756 -8.957,1.607 z m 0.213,-20.77 c 0.775,0.233 1.516,0.161 2.221,-0.217 0.705,-0.378 1.175,-0.954 1.409,-1.726 0.235,-0.773 0.162,-1.51 -0.218,-2.212 -0.38,-0.702 -0.957,-1.17 -1.733,-1.403 -0.776,-0.233 -1.517,-0.161 -2.222,0.217 -0.705,0.378 -1.175,0.954 -1.409,1.726 -0.235,0.773 -0.162,1.51 0.218,2.212 0.38,0.702 0.958,1.17 1.734,1.403 z m 2.287,12.537 c 0.776,0.234 1.516,0.161 2.221,-0.217 0.706,-0.378 1.175,-0.953 1.41,-1.726 0.234,-0.772 0.161,-1.509 -0.219,-2.212 -0.379,-0.702 -0.957,-1.169 -1.733,-1.403 -0.776,-0.233 -1.517,-0.16 -2.222,0.218 -0.705,0.378 -1.175,0.953 -1.409,1.726 -0.234,0.772 -0.162,1.509 0.218,2.211 0.38,0.702 0.958,1.17 1.734,1.403 z"
           fill="#000000"
           fill-opacity="0.15"
           id="path6138" /></g><path
         d="m 282.957,461.786 v -3.55 c 0,-6.448 3.119,-11.639 9.358,-15.573 6.24,-3.934 15.004,-5.901 26.294,-5.901 11.29,0 20.055,1.967 26.294,5.901 6.239,3.934 9.359,9.125 9.359,15.573 v 3.55 z m 5.526,-5.324 h 60.253 c -0.178,-4.082 -3.045,-7.499 -8.601,-10.25 -5.556,-2.75 -12.731,-4.126 -21.526,-4.126 -8.794,0 -15.999,1.376 -21.614,4.126 -5.615,2.751 -8.453,6.168 -8.512,10.25 z m -5.526,20.942 v -5.325 c 1.961,0 3.669,-0.65 5.125,-1.952 1.456,-1.301 3.788,-1.952 6.997,-1.952 3.208,0 5.333,0.651 6.372,1.952 1.04,1.302 2.778,1.952 5.215,1.952 2.436,0 4.233,-0.65 5.392,-1.952 1.159,-1.301 3.343,-1.952 6.551,-1.952 3.209,0 5.393,0.651 6.552,1.952 1.158,1.302 2.956,1.952 5.392,1.952 2.436,0 4.174,-0.65 5.214,-1.952 1.04,-1.301 3.164,-1.952 6.373,-1.952 3.209,0 5.541,0.651 6.997,1.952 1.456,1.302 3.164,1.952 5.125,1.952 v 5.325 c -3.209,0 -5.422,-0.651 -6.64,-1.953 -1.218,-1.301 -3.046,-1.952 -5.482,-1.952 -2.436,0 -4.174,0.651 -5.214,1.952 -1.04,1.302 -3.164,1.953 -6.373,1.953 -3.209,0 -5.392,-0.651 -6.551,-1.953 -1.159,-1.301 -2.956,-1.952 -5.393,-1.952 -2.436,0 -4.233,0.651 -5.392,1.952 -1.159,1.302 -3.343,1.953 -6.551,1.953 -3.209,0 -5.333,-0.651 -6.373,-1.953 -1.04,-1.301 -2.778,-1.952 -5.214,-1.952 -2.437,0 -4.26,0.651 -5.469,1.952 -1.21,1.302 -3.428,1.953 -6.653,1.953 z m 5.348,23.249 c -1.427,0 -2.674,-0.532 -3.744,-1.597 -1.07,-1.065 -1.604,-2.308 -1.604,-3.727 V 483.97 h 71.305 v 11.359 c 0,1.419 -0.535,2.662 -1.604,3.727 -1.07,1.065 -2.318,1.597 -3.744,1.597 z m 0,-5.324 h 60.609 v -6.034 h -60.609 z"
         fill="#000000"
         fill-opacity="0.15"
         id="path6142" /><g
         clip-path="url(#clip1_21_955)"
         id="g6146"><path
           d="m 84.4848,598.279 1.5124,-1.505 c 2.7475,-2.736 6.2663,-3.637 10.5565,-2.703 4.2903,0.934 8.8003,3.755 13.5303,8.464 4.73,4.71 7.564,9.2 8.502,13.471 0.938,4.271 0.033,7.775 -2.714,10.51 l -1.513,1.506 z m 4.5838,0.047 25.2444,25.132 c 1.664,-1.806 1.919,-4.451 0.763,-7.935 -1.156,-3.485 -3.576,-7.061 -7.26,-10.729 -3.685,-3.668 -7.289,-6.09 -10.8141,-7.265 -3.5247,-1.176 -6.1691,-0.91 -7.9333,0.797 z m -11.2382,6.578 2.2686,-2.258 c 0.8215,0.818 1.8145,1.254 2.979,1.309 1.1645,0.055 2.4189,0.752 3.7632,2.091 1.3444,1.338 1.9571,2.5 1.8382,3.486 -0.1188,0.986 0.3321,1.987 1.3528,3.003 1.0207,1.016 2.0511,1.49 3.0911,1.421 1.04,-0.069 2.2321,0.566 3.5765,1.905 1.3443,1.338 1.982,2.525 1.9129,3.56 -0.0691,1.036 0.4067,2.061 1.4273,3.078 1.021,1.016 2.026,1.465 3.017,1.346 0.99,-0.118 2.157,0.492 3.501,1.831 1.345,1.338 2.045,2.587 2.1,3.746 0.055,1.159 0.494,2.148 1.315,2.966 l -2.268,2.259 c -1.345,-1.339 -1.995,-2.538 -1.95,-3.598 0.044,-1.061 -0.444,-2.099 -1.465,-3.115 -1.021,-1.016 -2.026,-1.465 -3.017,-1.347 -0.99,0.119 -2.1571,-0.491 -3.5014,-1.83 -1.3444,-1.338 -1.982,-2.525 -1.9129,-3.56 0.0691,-1.036 -0.4068,-2.062 -1.4275,-3.078 -1.0207,-1.016 -2.051,-1.49 -3.091,-1.421 -1.04,0.069 -2.2322,-0.566 -3.5766,-1.904 -1.3443,-1.339 -1.957,-2.501 -1.8382,-3.487 0.1189,-0.986 -0.332,-1.987 -1.3527,-3.003 -1.0208,-1.016 -2.0618,-1.5 -3.1231,-1.453 -1.0613,0.048 -2.2677,-0.601 -3.6192,-1.947 z m -7.6654,12.093 c -0.5975,-0.595 -0.8935,-1.341 -0.8879,-2.239 0.0056,-0.898 0.3109,-1.648 0.9158,-2.25 l 4.8396,-4.818 29.8745,29.742 -4.84,4.818 c -0.6046,0.602 -1.358,0.906 -2.2598,0.912 -0.9018,0.006 -1.6515,-0.289 -2.249,-0.884 z m 2.2685,-2.258 25.3933,25.281 2.5712,-2.56 -25.3935,-25.281 z"
           fill="#000000"
           fill-opacity="0.15"
           id="path6144" /></g><path
         d="m 187.282,425.111 v -47.485 c -4.479,-0.946 -8.29,-3.204 -11.434,-6.774 -3.143,-3.57 -4.715,-7.849 -4.715,-12.839 v -36.13 h 7.751 v 36.13 h 8.398 v -36.13 h 7.751 v 36.13 h 8.397 v -36.13 h 7.751 v 36.13 c 0,4.99 -1.571,9.269 -4.715,12.839 -3.144,3.57 -6.955,5.828 -11.433,6.774 v 47.485 z m 53.613,0 V 383.82 h -14.857 v -39.355 c 0,-6.796 2.067,-12.259 6.201,-16.388 4.134,-4.129 9.603,-6.194 16.407,-6.194 v 103.228 z"
         fill="#000000"
         fill-opacity="0.15"
         id="path6148" /><path
         d="m 259.803,426.113 -6.361,-6.336 63.609,-63.367 c -2.221,-4.827 -2.726,-9.831 -1.515,-15.011 1.212,-5.18 4.089,-10.033 8.633,-14.559 4.543,-4.426 10.046,-7.267 16.508,-8.525 6.462,-1.257 11.762,0.176 15.902,4.3 4.241,4.225 5.679,9.505 4.316,15.842 -1.363,6.336 -4.417,11.919 -9.162,16.747 -4.14,4.224 -8.759,6.99 -13.858,8.297 -5.099,1.308 -9.869,1.006 -14.312,-0.905 l -10.147,10.109 47.252,47.072 -6.361,6.336 -47.252,-47.072 z m 18.931,-52.956 -18.022,-17.953 c -5.149,-5.13 -7.825,-11.215 -8.027,-18.256 -0.202,-7.041 2.12,-13.277 6.967,-18.708 l 37.105,36.964 z"
         fill="#000000"
         fill-opacity="0.15"
         id="path6150" /><path
         d="m 74.0528,262.202 c -1.661,-4.686 -5.0753,-8.452 -10.2429,-11.3 -5.1675,-2.848 -12.4113,-4.272 -21.7313,-4.272 -9.3201,0 -16.5639,1.424 -21.7314,4.272 -5.1675,2.848 -8.6279,6.614 -10.38122,11.3 z M 0,270.47 c 0,-4.41 0.807429,-8.567 2.42229,-12.471 1.61485,-3.905 4.15249,-7.304 7.61291,-10.198 3.4604,-2.894 7.8436,-5.19 13.1495,-6.89 5.306,-1.7 11.627,-2.549 18.9631,-2.549 7.336,0 13.634,0.849 18.8938,2.549 5.2598,1.7 9.62,3.996 13.0804,6.89 3.4604,2.894 5.998,6.293 7.6129,10.198 1.6148,3.904 2.4222,8.061 2.4222,12.471 z m 0,17.639 v -8.268 h 84.1571 v 8.268 z m 92.4621,18.741 v -8.268 h 11.9039 l 7.89,-79.926 h -55.09 l -0.969,-8.269 h 28.3754 v -24.804 h 8.305 v 24.804 h 28.9286 l -9.274,88.195 c -0.276,2.389 -1.268,4.364 -2.975,5.926 -1.708,1.561 -3.853,2.342 -6.437,2.342 z m -88.30961,0 c -1.10733,0 -2.07624,-0.413 -2.90674,-1.24 C 0.415249,304.783 0,303.819 0,302.716 v -4.134 h 84.1571 v 4.134 c 0,1.103 -0.4152,2.067 -1.2457,2.894 -0.8305,0.827 -1.7994,1.24 -2.9067,1.24 z"
         fill="#000000"
         fill-opacity="0.15"
         id="path6152" /><path
         d="M 340.085,46.8598 319.113,15.2797 c 3.006,-2.5056 6.291,-4.4804 9.857,-5.92458 3.565,-1.44416 7.27,-2.16624 11.115,-2.16624 3.845,0 7.55,0.72208 11.115,2.16624 3.565,1.44418 6.851,3.41898 9.857,5.92458 z m 0,-5.5853 16.83,-25.2641 c -2.517,-1.6355 -5.194,-2.9927 -8.031,-4.0715 -2.837,-1.0787 -5.77,-1.6181 -8.799,-1.6181 -3.043,0 -5.979,0.5394 -8.81,1.6181 -2.83,1.0788 -5.504,2.436 -8.02,4.0715 z m -5.764,-19.731 c 0.801,0 1.482,-0.2794 2.041,-0.8383 0.56,-0.5588 0.839,-1.2374 0.839,-2.0357 0,-0.7983 -0.28,-1.4759 -0.842,-2.0327 -0.561,-0.5568 -1.243,-0.8352 -2.045,-0.8352 -0.801,0 -1.482,0.2795 -2.041,0.8383 -0.56,0.5588 -0.839,1.2374 -0.839,2.0357 0,0.7984 0.28,1.4759 0.842,2.0327 0.561,0.5568 1.243,0.8352 2.045,0.8352 z m 5.767,11.2227 c 0.802,0 1.482,-0.2795 2.042,-0.8383 0.559,-0.5588 0.839,-1.2374 0.839,-2.0357 0,-0.7984 -0.281,-1.4759 -0.842,-2.0327 -0.562,-0.5568 -1.243,-0.8352 -2.045,-0.8352 -0.802,0 -1.483,0.2794 -2.042,0.8383 -0.559,0.5588 -0.839,1.2374 -0.839,2.0357 0,0.7983 0.281,1.4759 0.842,2.0327 0.561,0.5568 1.243,0.8352 2.045,0.8352 z"
         fill="#000000"
         fill-opacity="0.15"
         id="path6154" /><path
         d="M 320.119,62.7052 V 60.659 c 0,-3.7172 1.799,-6.7098 5.395,-8.9776 3.597,-2.2679 8.65,-3.4018 15.158,-3.4018 6.508,0 11.561,1.1339 15.158,3.4018 3.596,2.2678 5.395,5.2604 5.395,8.9776 v 2.0462 z m 3.186,-3.0693 h 34.734 c -0.103,-2.3531 -1.756,-4.3226 -4.958,-5.9083 -3.203,-1.5858 -7.339,-2.3787 -12.409,-2.3787 -5.07,0 -9.223,0.7929 -12.46,2.3787 -3.237,1.5857 -4.873,3.5552 -4.907,5.9083 z m -3.186,12.0725 v -3.0693 c 1.131,0 2.115,-0.3751 2.955,-1.1254 0.839,-0.7503 2.183,-1.1254 4.033,-1.1254 1.85,0 3.074,0.3751 3.674,1.1254 0.599,0.7503 1.601,1.1254 3.006,1.1254 1.404,0 2.44,-0.3751 3.108,-1.1254 0.668,-0.7503 1.927,-1.1254 3.777,-1.1254 1.85,0 3.109,0.3751 3.776,1.1254 0.668,0.7503 1.705,1.1254 3.109,1.1254 1.405,0 2.406,-0.3751 3.006,-1.1254 0.599,-0.7503 1.824,-1.1254 3.674,-1.1254 1.849,0 3.194,0.3751 4.033,1.1254 0.839,0.7503 1.824,1.1254 2.955,1.1254 v 3.0693 c -1.85,0 -3.126,-0.3752 -3.828,-1.1254 -0.703,-0.7503 -1.756,-1.1254 -3.16,-1.1254 -1.405,0 -2.407,0.3751 -3.006,1.1254 -0.6,0.7502 -1.824,1.1254 -3.674,1.1254 -1.85,0 -3.109,-0.3752 -3.776,-1.1254 -0.668,-0.7503 -1.705,-1.1254 -3.109,-1.1254 -1.405,0 -2.441,0.3751 -3.109,1.1254 -0.668,0.7502 -1.926,1.1254 -3.776,1.1254 -1.85,0 -3.075,-0.3752 -3.674,-1.1254 -0.599,-0.7503 -1.601,-1.1254 -3.006,-1.1254 -1.404,0 -2.455,0.3751 -3.153,1.1254 -0.697,0.7502 -1.975,1.1254 -3.835,1.1254 z m 3.083,13.4025 c -0.822,0 -1.541,-0.307 -2.158,-0.9208 -0.617,-0.6139 -0.925,-1.33 -0.925,-2.1485 v -6.5478 h 41.106 v 6.5478 c 0,0.8185 -0.309,1.5346 -0.925,2.1485 -0.617,0.6138 -1.336,0.9208 -2.158,0.9208 z m 0,-3.0693 h 34.94 v -3.4785 h -34.94 z"
         fill="#000000"
         fill-opacity="0.15"
         id="path6156" /><path
         d="m 334.756,126.302 h 10.94 v -2.947 l 1.903,-0.789 c 2.607,-1.087 4.739,-2.508 6.395,-4.262 1.656,-1.754 2.836,-3.665 3.541,-5.735 h -34.617 c 0.705,2.07 1.902,3.99 3.594,5.761 1.691,1.772 3.805,3.184 6.342,4.236 l 1.902,0.789 z m -3.171,3.157 v -4.104 c -3.699,-1.474 -6.641,-3.613 -8.826,-6.42 -2.184,-2.806 -3.4,-5.963 -3.646,-9.47 h 3.805 V 91.6277 l 38.475,-4.2619 v 2.6308 l -25.263,2.7887 v 4.5776 h 25.263 v 2.6308 H 336.13 v 9.4713 h 25.21 c -0.212,3.507 -1.427,6.664 -3.647,9.47 -2.22,2.807 -5.162,4.946 -8.826,6.42 v 4.104 z m -0.74,-32.0961 h 2.643 v -4.3145 l -2.643,0.3157 z m -5.285,0 h 2.643 v -3.7358 l -2.643,0.2989 z m 5.285,12.1021 h 2.643 v -9.4713 h -2.643 z m -5.285,0 h 2.643 v -9.4713 h -2.643 z"
         fill="#000000"
         fill-opacity="0.15"
         id="path6158" /><path
         d="m 343.633,157.953 c -0.618,-1.742 -1.888,-3.143 -3.809,-4.202 -1.922,-1.059 -4.616,-1.589 -8.082,-1.589 -3.466,0 -6.16,0.53 -8.082,1.589 -1.922,1.059 -3.209,2.46 -3.861,4.202 z m -27.54,3.075 c 0,-1.64 0.3,-3.186 0.901,-4.638 0.6,-1.452 1.544,-2.716 2.831,-3.792 1.287,-1.076 2.917,-1.93 4.89,-2.563 1.973,-0.632 4.324,-0.948 7.052,-0.948 2.729,0 5.071,0.316 7.027,0.948 1.956,0.633 3.578,1.487 4.865,2.563 1.287,1.076 2.23,2.34 2.831,3.792 0.6,1.452 0.901,2.998 0.901,4.638 z m 0,6.56 v -3.075 h 31.298 v 3.075 z m 34.386,6.97 v -3.075 h 4.427 l 2.935,-29.724 h -20.488 l -0.361,-3.075 h 10.553 v -9.225 h 3.089 v 9.225 h 10.759 l -3.449,32.799 c -0.103,0.889 -0.472,1.623 -1.107,2.204 -0.635,0.581 -1.433,0.871 -2.394,0.871 z m -32.842,0 c -0.412,0 -0.772,-0.153 -1.081,-0.461 -0.309,-0.307 -0.463,-0.666 -0.463,-1.076 v -1.538 h 31.298 v 1.538 c 0,0.41 -0.155,0.769 -0.464,1.076 -0.308,0.308 -0.669,0.461 -1.081,0.461 z"
         fill="#000000"
         fill-opacity="0.15"
         id="path6160" /><path
         d="m 332.64,550.137 c -0.755,-2.13 -2.307,-3.842 -4.656,-5.136 -2.349,-1.295 -5.642,-1.942 -9.878,-1.942 -4.236,0 -7.529,0.647 -9.878,1.942 -2.349,1.294 -3.922,3.006 -4.719,5.136 z m -33.661,3.758 c 0,-2.004 0.367,-3.894 1.101,-5.668 0.734,-1.775 1.888,-3.32 3.461,-4.636 1.573,-1.315 3.565,-2.359 5.977,-3.131 2.412,-0.773 5.285,-1.159 8.619,-1.159 3.335,0 6.198,0.386 8.588,1.159 2.391,0.772 4.373,1.816 5.946,3.131 1.573,1.316 2.726,2.861 3.461,4.636 0.734,1.774 1.101,3.664 1.101,5.668 z m 0,8.018 v -3.758 h 38.254 v 3.758 z m 42.029,8.519 v -3.758 h 5.41 l 3.587,-36.331 h -25.041 l -0.441,-3.758 h 12.898 V 515.31 h 3.775 v 11.275 h 13.15 l -4.216,40.089 c -0.125,1.085 -0.576,1.983 -1.352,2.693 -0.776,0.71 -1.751,1.065 -2.926,1.065 z m -40.141,0 c -0.504,0 -0.944,-0.188 -1.321,-0.564 -0.378,-0.376 -0.567,-0.814 -0.567,-1.315 v -1.879 h 38.254 v 1.879 c 0,0.501 -0.189,0.939 -0.567,1.315 -0.377,0.376 -0.818,0.564 -1.321,0.564 z"
         fill="#000000"
         fill-opacity="0.15"
         id="path6162" /><path
         d="m 320.945,223.667 -2.533,-2.523 25.326,-25.229 c -0.884,-1.923 -1.085,-3.915 -0.603,-5.977 0.482,-2.063 1.628,-3.995 3.437,-5.797 1.809,-1.762 4,-2.893 6.573,-3.394 2.572,-0.501 4.683,0.07 6.331,1.712 1.688,1.682 2.261,3.784 1.719,6.307 -0.543,2.523 -1.759,4.746 -3.649,6.668 -1.648,1.682 -3.487,2.783 -5.517,3.304 -2.03,0.52 -3.929,0.4 -5.698,-0.361 l -4.04,4.025 18.813,18.742 -2.532,2.523 -18.814,-18.742 z m 7.537,-21.085 -7.175,-7.148 c -2.051,-2.042 -3.116,-4.465 -3.196,-7.268 -0.081,-2.804 0.844,-5.287 2.774,-7.449 l 14.773,14.717 z"
         fill="#000000"
         fill-opacity="0.15"
         id="path6164" /><path
         d="m 251.346,74.4539 5.888,-32.6149 c -3.391,-1.6841 -5.6,-4.3075 -6.626,-7.8704 -1.027,-3.5628 -0.336,-6.9706 2.071,-10.2234 1.444,-1.9516 3.455,-3.4206 6.033,-4.4069 2.578,-0.9863 5.262,-0.9581 8.052,0.0847 3.874,-3.7824 8.353,-5.8166 13.437,-6.1024 5.084,-0.2858 9.608,1.025 13.572,3.9324 3.964,2.9075 6.552,6.8125 7.763,11.7152 1.211,4.9026 0.598,9.7723 -1.838,14.6091 1.827,2.3439 2.65,4.8877 2.468,7.6312 -0.182,2.7436 -0.995,5.0912 -2.439,7.0428 -2.407,3.2528 -5.515,4.8874 -9.324,4.9037 -3.81,0.0164 -6.894,-1.2421 -9.253,-3.7754 z m 6.54,-37.8566 c 0.785,0.5751 1.605,1.0098 2.463,1.3042 0.857,0.2943 1.627,0.3901 2.307,0.2873 l 2.999,-0.5104 0.54,2.4034 c 0.544,1.536 1.386,2.8729 2.527,4.0106 1.14,1.1377 2.255,2.1059 3.344,2.9046 1.089,0.7988 2.272,1.5159 3.549,2.1515 1.277,0.6355 2.733,0.984 4.368,1.0455 l 2.531,-0.1509 0.334,2.9546 c 0.103,0.6779 0.434,1.3888 0.992,2.1328 0.559,0.7441 1.208,1.3877 1.949,1.9308 1.481,1.0863 3.24,1.4565 5.277,1.1105 2.037,-0.346 3.617,-1.278 4.74,-2.796 0.995,-1.3445 1.447,-2.819 1.358,-4.4236 -0.09,-1.6045 -0.801,-3.096 -2.133,-4.4745 l -2.046,-2.0027 1.747,-2.633 c 2.056,-3.7777 2.778,-7.5467 2.167,-11.307 -0.612,-3.7603 -2.616,-6.8865 -6.014,-9.3786 -3.398,-2.4921 -7.002,-3.4795 -10.813,-2.9621 -3.81,0.5173 -7.2,2.3294 -10.171,5.4362 l -2.074,2.3933 -2.672,-1.1569 c -1.563,-0.6115 -3.132,-0.8082 -4.704,-0.5901 -1.573,0.2181 -2.857,0.9995 -3.852,2.3439 -1.123,1.518 -1.549,3.2967 -1.277,5.336 0.272,2.0394 1.127,3.5862 2.564,4.6406 z m 0.007,29.009 20.495,-10.2595 -0.103,-0.6779 c -1.702,-0.244 -3.372,-0.7334 -5.013,-1.4682 -1.64,-0.7348 -3.005,-1.5016 -4.094,-2.3003 -1.394,-1.0224 -2.698,-2.2126 -3.91,-3.5706 -1.213,-1.3579 -2.124,-2.7615 -2.731,-4.2108 l -0.633,0.0377 z"
         fill="#000000"
         fill-opacity="0.15"
         id="path6166" /><path
         fill-rule="evenodd"
         clip-rule="evenodd"
         d="m 1.00763,30.0629 c 0,-4.2438 0.66348,-7.8044 1.99057,-10.6816 1.40998,-2.9491 3.40064,-5.3228 5.97185,-7.121 2.57125,-1.7983 5.68145,-3.093 9.33095,-3.8842 3.6494,-0.79124 7.755,-1.18689 12.3169,-1.18689 4.147,0 7.6721,0.25179 10.5751,0.75529 2.9859,0.43157 5.3082,0.9351 6.967,1.51057 2.1565,0.79123 3.4006,1.72623 3.7324,2.80523 0.4147,1.0789 0.6221,2.1219 0.6221,3.129 v 7.7684 c -1.9076,-0.0721 -3.608,-0.144 -5.101,-0.2155 -1.4929,-0.1436 -2.9444,-0.2155 -4.3543,-0.2155 -1.4101,-0.072 -2.8201,-0.1081 -4.2301,-0.1081 -1.41,-0.072 -2.9445,-0.1081 -4.6033,-0.1081 -2.5712,0 -4.6862,0.1439 -6.345,0.4316 -1.5759,0.2877 -2.82,0.6833 -3.7324,1.1868 -0.9124,0.5035 -1.5344,1.1509 -1.8662,1.9421 -0.3318,0.7912 -0.4976,1.6544 -0.4976,2.5895 0,1.0789 0.1244,2.014 0.3731,2.8053 0.3317,0.7193 0.9123,1.4026 1.7417,2.05 0.9124,0.6474 2.198,1.3307 3.8568,2.05 1.7418,0.7193 4.0642,1.6184 6.9672,2.6974 3.8153,1.4385 7.0085,2.8412 9.5797,4.2079 2.6541,1.3666 4.7692,2.9131 6.3451,4.6394 1.6588,1.7263 2.82,3.7404 3.4835,6.0421 0.7465,2.3018 1.1197,5.0711 1.1197,8.3079 0,4.1 -0.539,7.6245 -1.6173,10.5736 -1.0782,2.8772 -2.82,5.2869 -5.2254,7.229 -2.3223,1.8702 -5.3497,3.2369 -9.0821,4.1 -3.7324,0.9351 -8.2942,1.4026 -13.6854,1.4026 -3.9812,0 -7.7135,-0.2158 -11.1971,-0.6473 C 10.9605,83.7587 8.26486,83.2553 6.35722,82.6079 4.61545,82.0325 3.41276,81.3131 2.74918,80.45 2.08567,79.5149 1.7539,78.4359 1.7539,77.2131 v -8.7394 c 3.23472,0.2157 6.38652,0.3955 9.4554,0.5395 3.0688,0.0721 6.2206,0.1081 9.4554,0.1081 2.82,0 5.1009,-0.1439 6.8427,-0.4316 1.8247,-0.2877 3.1933,-0.6833 4.1057,-1.1869 0.9953,-0.5754 1.6588,-1.2587 1.9906,-2.0499 0.3317,-0.8632 0.4975,-1.7983 0.4975,-2.8053 0,-1.2947 -0.2073,-2.3377 -0.622,-3.1289 -0.4147,-0.8632 -1.1611,-1.6185 -2.2394,-2.2658 -0.9953,-0.7193 -2.4053,-1.4026 -4.2301,-2.05 C 25.268,54.4836 23.0285,53.6204 20.2914,52.6134 16.3931,51.2467 13.1999,49.8441 10.7117,48.4056 8.22339,46.9669 6.27425,45.3485 4.86426,43.5503 3.45421,41.7521 2.45896,39.774 1.87841,37.6161 1.29779,35.3863 1.00763,32.8682 1.00763,30.0629 Z"
         fill="#000000"
         fill-opacity="0.15"
         id="path6168" /><path
         fill-rule="evenodd"
         clip-rule="evenodd"
         d="M 111.865,84.766 H 96.9904 c -1.0857,0 -1.9905,-0.4105 -2.7143,-1.2314 C 93.6247,82.7137 93.118,81.7808 92.756,80.736 91.3084,76.9299 89.8246,73.0865 88.3046,69.2058 86.7846,65.2504 85.2284,61.4071 83.636,57.6756 82.116,53.9441 80.5959,50.3619 79.0759,46.9289 77.6283,43.496 76.2169,40.4362 74.8417,37.7496 V 84.766 H 61.5959 c -2.6782,0 -4.0172,-1.306 -4.0172,-3.918 V 7.18886 h 14.223 c 1.0857,0 2.0267,0.41047 2.8229,1.23139 0.7962,0.82093 1.4476,1.75375 1.9542,2.79855 1.2305,2.6121 2.6057,5.5599 4.1257,8.8435 1.5924,3.2838 3.1849,6.7167 4.7773,10.299 1.5924,3.5821 3.1848,7.2389 4.7771,10.9705 1.5924,3.6568 3.04,7.2017 4.3429,10.6346 V 7.18886 h 13.2462 c 2.678,0 4.017,1.30599 4.017,3.91804 z"
         fill="#000000"
         fill-opacity="0.15"
         id="path6170" /><path
         fill-rule="evenodd"
         clip-rule="evenodd"
         d="m 147.89,65.7355 h -14.615 c -0.418,3.433 -0.8,6.8286 -1.148,10.1869 -0.348,3.3583 -0.592,6.3062 -0.731,8.8436 h -13.989 c -0.974,0 -1.775,-0.3358 -2.401,-1.0075 -0.557,-0.6716 -0.835,-1.7911 -0.835,-3.3583 0,-0.6716 0.035,-1.3806 0.104,-2.127 0.07,-0.7463 0.174,-1.4552 0.313,-2.1269 1.879,-12.2392 4.002,-23.9933 6.369,-35.2623 2.366,-11.269 5.359,-22.5007 8.978,-33.69514 h 18.895 c 1.392,0 2.367,0.37313 2.923,1.11942 0.557,0.74629 0.975,1.52988 1.253,2.35082 3.132,10.0003 5.986,21.344 8.561,34.0309 2.575,12.6124 4.871,25.971 6.89,40.076 h -15.033 c -2.228,0 -3.515,-1.3434 -3.863,-4.03 z m -7.307,-44.2178 c -1.462,6.2689 -2.645,11.8287 -3.55,16.6796 -0.835,4.7763 -1.635,9.3288 -2.401,13.6572 h 11.901 c -0.765,-4.3284 -1.6,-8.8809 -2.505,-13.6572 -0.835,-4.8509 -1.984,-10.4107 -3.445,-16.6796 z"
         fill="#000000"
         fill-opacity="0.15"
         id="path6172" /><path
         fill-rule="evenodd"
         clip-rule="evenodd"
         d="m 175.11,84.7659 c -2.898,0 -4.348,-1.2874 -4.348,-3.8623 V 9.61656 c 4.387,-0.80923 8.813,-1.39772 13.278,-1.76556 4.544,-0.44142 8.578,-0.66214 12.103,-0.66214 4.935,0 9.204,0.44141 12.808,1.32423 3.681,0.88281 6.697,2.31741 9.047,4.30371 2.429,1.9863 4.191,4.598 5.288,7.8349 1.175,3.237 1.763,7.2097 1.763,11.9181 0,9.1224 -2.076,15.7434 -6.228,19.8631 -4.074,4.0462 -10.145,6.0694 -18.213,6.0694 -1.958,0 -3.838,-0.0736 -5.64,-0.2207 -1.723,-0.2209 -3.133,-0.4415 -4.23,-0.662 V 84.766 Z m 15.628,-40.7197 c 0.94,0.1472 1.802,0.2576 2.585,0.3313 0.783,0.0737 1.527,0.1105 2.232,0.1105 1.724,0 3.173,-0.1471 4.348,-0.4413 1.253,-0.3679 2.272,-0.9932 3.055,-1.876 0.784,-0.9564 1.371,-2.207 1.763,-3.7519 0.391,-1.545 0.587,-3.5313 0.587,-5.9591 0,-2.2806 -0.196,-4.1565 -0.587,-5.6278 -0.314,-1.4714 -0.823,-2.6117 -1.528,-3.421 -0.705,-0.8827 -1.645,-1.4712 -2.82,-1.7655 -1.097,-0.2943 -2.389,-0.4414 -3.877,-0.4414 -0.705,0 -1.685,0.0368 -2.938,0.1105 -1.253,0 -2.193,0.0369 -2.82,0.1106 z"
         fill="#000000"
         fill-opacity="0.15"
         id="path6174" /><path
         fill-rule="evenodd"
         clip-rule="evenodd"
         d="m 76.9418,148.105 h 6.685 c 3.3041,0 5.6475,-0.707 7.0306,-2.121 1.46,-1.485 2.1899,-3.853 2.1899,-7.106 0,-3.393 -0.8067,-5.762 -2.4203,-7.105 -1.5367,-1.414 -4.1878,-2.121 -7.9529,-2.121 h -5.5323 z m 0,-30.968 h 5.9935 c 2.9198,0 4.9944,-0.565 6.2238,-1.697 1.3063,-1.201 1.9595,-3.499 1.9595,-6.893 0,-3.323 -0.6148,-5.55 -1.8442,-6.681 -1.2294,-1.202 -3.4193,-1.803 -6.5697,-1.803 -0.7684,0 -1.7673,0.035 -2.9967,0.106 -1.2294,0 -2.1514,0.035 -2.7662,0.106 z M 57.5787,88.9271 c 4.3029,-0.7777 8.5674,-1.3433 12.7935,-1.6968 4.3029,-0.4242 8.1833,-0.6363 11.641,-0.6363 4.2261,0 8.068,0.3535 11.5257,1.0605 3.4577,0.6363 6.3775,1.7675 8.7591,3.3937 2.459,1.5555 4.342,3.6411 5.648,6.2571 1.306,2.5453 1.959,5.6917 1.959,9.4387 0,3.959 -0.845,7.247 -2.535,9.863 -1.614,2.616 -4.38,4.843 -8.2987,6.681 2.6127,0.99 4.7637,2.157 6.4547,3.5 1.69,1.273 2.996,2.722 3.918,4.348 0.922,1.556 1.537,3.182 1.845,4.879 0.384,1.697 0.576,3.393 0.576,5.09 0,3.96 -0.692,7.212 -2.075,9.757 -1.383,2.546 -3.266,4.596 -5.648,6.151 -2.381,1.556 -5.186,2.652 -8.4132,3.288 -3.2273,0.566 -6.6849,0.848 -10.3731,0.848 H 61.8432 c -2.843,0 -4.2645,-1.237 -4.2645,-3.711 z"
         fill="#000000"
         fill-opacity="0.15"
         id="path6176" /><path
         fill-rule="evenodd"
         clip-rule="evenodd"
         d="m 118.292,161.149 c -3.007,0 -4.51,-1.255 -4.51,-3.765 V 86.5928 h 16.819 c 3.006,0 4.509,1.2551 4.509,3.7655 v 70.7907 z"
         fill="#000000"
         fill-opacity="0.15"
         id="path6178" /><path
         fill-rule="evenodd"
         clip-rule="evenodd"
         d="m 157.25,101.977 h -15.632 c -3.06,0 -4.589,-1.255 -4.589,-3.765 V 86.5928 h 57.437 c 3.06,0 4.59,1.2551 4.59,3.7655 v 11.6187 h -20.097 v 59.172 H 161.84 c -3.06,0 -4.59,-1.255 -4.59,-3.765 z"
         fill="#000000"
         fill-opacity="0.15"
         id="path6180" /><path
         fill-rule="evenodd"
         clip-rule="evenodd"
         d="m 247.495,86.5928 c 3.06,0 4.59,1.2551 4.59,3.7655 V 101.44 h -30.021 v 14.201 h 21.833 c 3.06,0 4.59,1.255 4.59,3.765 v 11.082 h -26.423 v 15.815 h 26.672 c 3.06,0 4.59,1.255 4.59,3.765 v 11.081 h -47.762 c -3.06,0 -4.59,-1.255 -4.59,-3.765 V 86.5928 Z"
         fill="#000000"
         fill-opacity="0.15"
         id="path6182" /><path
         fill-rule="evenodd"
         clip-rule="evenodd"
         d="m 255.244,113.31 c 0,-5.333 0.727,-9.807 2.182,-13.4233 1.546,-3.7061 3.728,-6.6891 6.547,-8.949 2.819,-2.2599 6.229,-3.887 10.23,-4.8813 4.001,-0.9943 8.502,-1.4915 13.503,-1.4915 4.547,0 8.412,0.3163 11.594,0.9491 3.274,0.5424 5.82,1.1752 7.639,1.8984 2.364,0.9943 3.728,2.1693 4.092,3.5253 0.454,1.3559 0.682,2.6667 0.682,3.9322 v 9.7631 c -2.092,-0.091 -3.956,-0.181 -5.593,-0.271 -1.637,-0.181 -3.228,-0.271 -4.774,-0.271 -1.546,-0.09 -3.091,-0.135 -4.637,-0.135 -1.546,-0.091 -3.228,-0.136 -5.047,-0.136 -2.819,0 -5.138,0.181 -6.956,0.542 -1.728,0.362 -3.092,0.859 -4.092,1.492 -1,0.633 -1.682,1.446 -2.046,2.441 -0.364,0.994 -0.546,2.079 -0.546,3.254 0,1.356 0.136,2.531 0.41,3.525 0.364,0.904 1,1.763 1.909,2.576 1,0.814 2.41,1.673 4.229,2.577 1.909,0.904 4.455,2.034 7.638,3.389 4.183,1.808 7.67,3.59 10.503,5.289 2.896,1.736 5.199,3.681 6.956,5.83 1.79,2.19 3.092,4.7 3.819,7.593 0.818,2.893 0.723,6.688 0.723,10.755 0,5.153 -0.591,9.582 -1.773,13.288 -1.183,3.616 -3.597,6.172 -6.234,8.613 -2.546,2.35 -4.915,3.335 -9.007,4.419 -4.092,1.176 -9.772,1.006 -15.682,1.006 -4.365,0 -9.899,0 -13.918,0 -4.019,0 -138.217,0 -140.662,0 -2.01,0 -123.91693,0.163 -125.92635,0.163 0,-1.334 0.01702,-7.8 1.3e-4,-9.336 v -8.003 c 4.01879,0 122.39322,0.37 125.92622,0 3.364,0.091 142.483,0 146.02,0 1.34,0 8.038,0 12.203,-0.194 2.557,-0.6 3.275,-1.437 4.233,-2.179 0.857,-0.66 1.228,-2.08 1.591,-3.074 0.364,-1.085 0.546,-2.26 0.546,-3.526 0,-1.627 -0.228,-2.938 -0.682,-3.932 -0.455,-1.085 -1.273,-2.034 -2.455,-2.847 -1.092,-0.904 -2.637,-1.763 -4.638,-2.577 -1.91,-0.903 -4.365,-1.988 -7.365,-3.254 -4.274,-1.717 -7.775,-3.48 -10.503,-5.288 -2.728,-1.808 -4.865,-3.842 -6.411,-6.101 -1.546,-2.26 -2.637,-4.746 -3.273,-7.458 -0.637,-2.802 -0.955,-5.967 -0.955,-9.493 z"
         fill="#000000"
         fill-opacity="0.15"
         id="path6184" /><path
         fill-rule="evenodd"
         clip-rule="evenodd"
         d="m 3.15849,149.677 c -0.68484,-0.128 -1.1279,-0.361 -1.55664,-0.818 -0.46539,-0.497 -0.609214,-1.003 -0.59414,-2.101 0.01395,-1.421 0.1209,-1.652 1.12142,-2.53 3.84206,-3.373 21.29867,-18.462 21.37257,-18.473 0.0503,-0.008 0.8459,0.834 1.7651,1.871 l 1.6713,1.885 -2.4404,2.341 c -1.3422,1.287 -6.0321,5.791 -10.422,10.009 l -7.98155,7.668 -0.74237,0.123 c -0.87845,0.145 -1.51376,0.153 -2.19329,0.025 z m 45.17551,0.186 c -0.2912,-0.057 -0.5905,-0.168 -0.6668,-0.244 -0.0754,-0.077 -2.0435,-2.301 -4.3727,-4.943 -3.8194,-4.332 -7.5919,-8.601 -15.7512,-17.825 -1.5007,-1.696 -2.758,-3.125 -2.794,-3.174 -0.0372,-0.049 -0.5711,-0.171 -1.1898,-0.272 -1.563,-0.252 -3.715,-0.935 -5.4163,-1.718 -1.5748,-0.725 -4.0415,-2.214 -5.6149,-3.388 -1.3468,-1.006 -4.0013,-3.499 -5.10361,-4.795 -2.40559,-2.827 -4.16664,-5.999 -4.85928,-8.753 -0.25029,-0.993 -0.2489,-3.644 0.00362,-4.304 0.25539,-0.6701 0.77452,-1.7017 0.85714,-1.7013 0.03722,1e-4 11.21413,10.4303 24.83023,23.1773 l 24.7567,23.178 0.0801,0.605 c 0.2819,2.143 -0.1698,3.36 -1.4811,3.986 -0.5466,0.26 -2.3447,0.356 -3.2781,0.171 z m -16.8784,-27.954 -1.7121,-1.608 1.0246,-0.901 c 0.5639,-0.495 1.6687,-1.465 2.4557,-2.155 1.4308,-1.255 1.4311,-1.255 1.2873,-1.59 -0.6755,-1.573 -0.7417,-2.736 -0.2093,-3.69 0.1921,-0.346 2.3151,-2.353 7.0677,-6.682 l 6.7925,-6.1872 0.8893,0.8267 0.8891,0.8265 -4.2473,3.862 -4.2475,3.862 0.7965,0.745 0.7963,0.746 4.1874,-3.805 c 2.303,-2.093 4.242,-3.805 4.309,-3.805 0.0646,0 0.4918,0.349 0.9433,0.775 l 0.8213,0.775 -4.2453,3.86 -4.2453,3.86 0.7963,0.746 0.7964,0.745 4.2478,-3.86 4.2476,-3.86 0.7967,0.745 0.7965,0.746 -6.8027,6.184 c -7.2,6.546 -7.1901,6.538 -8.46,6.693 -0.6251,0.076 -1.6784,-0.115 -2.6449,-0.48 l -0.7121,-0.27 -1.5649,1.51 c -0.8607,0.83 -1.9186,1.843 -2.351,2.252 l -0.7863,0.742 z"
         fill="#000000"
         fill-opacity="0.15"
         id="path6186" /><path
         fill-rule="evenodd"
         clip-rule="evenodd"
         d="m 125.834,201.68 c 0,-3.192 0.499,-5.869 1.497,-8.033 1.061,-2.218 2.558,-4.004 4.492,-5.356 1.933,-1.353 4.273,-2.326 7.017,-2.921 2.745,-0.595 5.833,-0.893 9.264,-0.893 3.119,0 5.77,0.189 7.953,0.568 2.246,0.325 3.992,0.703 5.24,1.136 1.622,0.595 2.558,1.298 2.807,2.11 0.312,0.811 0.468,1.596 0.468,2.353 v 5.843 c -1.435,-0.054 -2.714,-0.108 -3.836,-0.162 -1.123,-0.108 -2.215,-0.162 -3.275,-0.162 -1.061,-0.055 -2.121,-0.082 -3.182,-0.082 -1.06,-0.054 -2.214,-0.081 -3.462,-0.081 -1.934,0 -3.524,0.108 -4.772,0.325 -1.185,0.216 -2.121,0.514 -2.807,0.892 -0.686,0.379 -1.154,0.866 -1.404,1.461 -0.249,0.595 -0.374,1.244 -0.374,1.947 0,0.812 0.094,1.515 0.281,2.11 0.249,0.541 0.686,1.055 1.31,1.542 0.686,0.487 1.653,1.001 2.9,1.542 1.31,0.541 3.057,1.217 5.24,2.028 2.87,1.082 5.271,2.137 7.205,3.165 1.996,1.028 3.587,2.191 4.772,3.49 1.248,1.298 2.121,2.813 2.62,4.544 0.562,1.731 0.842,3.814 0.842,6.248 0,3.084 -0.405,5.734 -1.216,7.952 -0.811,2.164 -2.121,3.977 -3.93,5.437 -1.747,1.407 -4.023,2.435 -6.831,3.084 -2.807,0.703 -6.238,1.055 -10.292,1.055 -2.994,0 -5.802,-0.163 -8.422,-0.487 -2.619,-0.271 -4.647,-0.649 -6.082,-1.136 -1.31,-0.433 -2.214,-0.974 -2.713,-1.623 -0.499,-0.703 -0.749,-1.515 -0.749,-2.435 v -6.572 c 2.433,0.162 4.804,0.297 7.112,0.405 2.308,0.055 4.678,0.082 7.111,0.082 2.121,0 3.836,-0.109 5.146,-0.325 1.373,-0.216 2.402,-0.514 3.088,-0.893 0.749,-0.432 1.248,-0.946 1.497,-1.541 0.25,-0.65 0.375,-1.353 0.375,-2.11 0,-0.974 -0.156,-1.758 -0.468,-2.353 -0.312,-0.65 -0.874,-1.218 -1.685,-1.704 -0.748,-0.541 -1.809,-1.055 -3.181,-1.542 -1.31,-0.541 -2.994,-1.19 -5.053,-1.948 -2.932,-1.028 -5.333,-2.083 -7.205,-3.164 -1.871,-1.082 -3.337,-2.3 -4.397,-3.652 -1.061,-1.353 -1.809,-2.84 -2.246,-4.463 -0.437,-1.677 -0.655,-3.571 -0.655,-5.681 z"
         fill="#000000"
         fill-opacity="0.15"
         id="path6188" /><path
         fill-rule="evenodd"
         clip-rule="evenodd"
         d="m 209.209,242.822 h -11.187 c -0.817,0 -1.497,-0.309 -2.042,-0.926 -0.49,-0.618 -0.871,-1.319 -1.143,-2.105 -1.089,-2.863 -2.205,-5.753 -3.348,-8.672 -1.143,-2.975 -2.313,-5.865 -3.511,-8.672 -1.143,-2.806 -2.286,-5.5 -3.43,-8.082 -1.088,-2.582 -2.15,-4.883 -3.184,-6.904 v 35.361 h -9.962 c -2.014,0 -3.022,-0.982 -3.022,-2.947 v -55.398 h 10.698 c 0.816,0 1.524,0.308 2.123,0.926 0.598,0.617 1.088,1.319 1.469,2.105 0.926,1.964 1.96,4.181 3.103,6.651 1.198,2.469 2.396,5.051 3.593,7.745 1.198,2.695 2.395,5.445 3.593,8.251 1.198,2.751 2.286,5.417 3.266,7.999 v -33.677 h 9.962 c 2.015,0 3.022,0.982 3.022,2.946 z"
         fill="#000000"
         fill-opacity="0.15"
         id="path6190" /><path
         fill-rule="evenodd"
         clip-rule="evenodd"
         d="m 236.303,228.509 h -10.992 c -0.314,2.582 -0.602,5.136 -0.863,7.662 -0.262,2.525 -0.445,4.743 -0.55,6.651 h -10.521 c -0.733,0 -1.335,-0.253 -1.806,-0.758 -0.419,-0.505 -0.628,-1.347 -0.628,-2.526 0,-0.505 0.026,-1.038 0.079,-1.599 0.052,-0.562 0.131,-1.095 0.235,-1.6 1.413,-9.205 3.01,-18.045 4.79,-26.52 1.779,-8.476 4.03,-16.923 6.752,-25.342 h 14.211 c 1.047,0 1.78,0.28 2.199,0.842 0.418,0.561 0.732,1.15 0.942,1.768 2.355,7.521 4.501,16.052 6.438,25.594 1.937,9.486 3.664,19.533 5.182,30.141 h -11.306 c -1.675,0 -2.644,-1.01 -2.905,-3.031 z m -5.496,-33.256 c -1.099,4.715 -1.989,8.897 -2.669,12.545 -0.628,3.592 -1.23,7.016 -1.806,10.271 h 8.951 c -0.576,-3.255 -1.204,-6.679 -1.885,-10.271 -0.628,-3.648 -1.491,-7.83 -2.591,-12.545 z"
         fill="#000000"
         fill-opacity="0.15"
         id="path6192" /><path
         fill-rule="evenodd"
         clip-rule="evenodd"
         d="m 256.775,242.822 c -2.18,0 -3.27,-0.968 -3.27,-2.905 v -53.614 c 3.299,-0.609 6.628,-1.052 9.986,-1.328 3.417,-0.332 6.451,-0.498 9.103,-0.498 3.711,0 6.922,0.332 9.632,0.996 2.769,0.664 5.037,1.743 6.805,3.236 1.826,1.494 3.152,3.459 3.977,5.893 0.883,2.435 1.325,5.422 1.325,8.964 0,6.86 -1.561,11.84 -4.684,14.938 -3.063,3.044 -7.629,4.565 -13.697,4.565 -1.473,0 -2.887,-0.055 -4.242,-0.166 -1.296,-0.166 -2.357,-0.332 -3.182,-0.498 v 20.417 z m 11.753,-30.625 c 0.707,0.11 1.355,0.194 1.945,0.249 0.589,0.055 1.148,0.083 1.679,0.083 1.296,0 2.386,-0.111 3.269,-0.332 0.943,-0.277 1.709,-0.747 2.298,-1.411 0.589,-0.719 1.031,-1.66 1.326,-2.822 0.294,-1.161 0.442,-2.655 0.442,-4.481 0,-1.715 -0.148,-3.126 -0.442,-4.233 -0.236,-1.107 -0.619,-1.964 -1.149,-2.573 -0.53,-0.664 -1.237,-1.106 -2.121,-1.328 -0.825,-0.221 -1.797,-0.332 -2.916,-0.332 -0.531,0 -1.267,0.028 -2.21,0.083 -0.942,0 -1.649,0.028 -2.121,0.084 z"
         fill="#000000"
         fill-opacity="0.15"
         id="path6194" /><path
         fill-rule="evenodd"
         clip-rule="evenodd"
         d="m 182.943,290.459 h 5.028 c 2.485,0 4.248,-0.532 5.288,-1.596 1.098,-1.116 1.647,-2.898 1.647,-5.344 0,-2.552 -0.607,-4.333 -1.821,-5.344 -1.155,-1.063 -3.149,-1.595 -5.981,-1.595 h -4.161 z m 0,-23.291 h 4.508 c 2.196,0 3.756,-0.425 4.681,-1.276 0.982,-0.904 1.474,-2.632 1.474,-5.185 0,-2.499 -0.463,-4.174 -1.387,-5.025 -0.925,-0.904 -2.572,-1.356 -4.941,-1.356 -0.578,0 -1.33,0.027 -2.254,0.08 -0.925,0 -1.618,0.027 -2.081,0.08 z M 168.38,245.951 c 3.237,-0.585 6.444,-1.01 9.622,-1.276 3.237,-0.319 6.155,-0.478 8.755,-0.478 3.179,0 6.068,0.266 8.669,0.797 2.6,0.479 4.796,1.33 6.588,2.553 1.849,1.169 3.265,2.738 4.247,4.706 0.983,1.914 1.474,4.28 1.474,7.098 0,2.978 -0.636,5.451 -1.907,7.418 -1.214,1.968 -3.294,3.643 -6.241,5.025 1.965,0.745 3.583,1.622 4.854,2.632 1.271,0.958 2.254,2.048 2.947,3.271 0.694,1.169 1.156,2.393 1.387,3.669 0.289,1.276 0.434,2.552 0.434,3.828 0,2.978 -0.52,5.424 -1.561,7.338 -1.04,1.915 -2.456,3.457 -4.247,4.627 -1.792,1.169 -3.901,1.994 -6.328,2.472 -2.427,0.426 -5.028,0.638 -7.802,0.638 h -17.683 c -2.138,0 -3.208,-0.93 -3.208,-2.791 z"
         fill="#000000"
         fill-opacity="0.15"
         id="path6196" /><path
         fill-rule="evenodd"
         clip-rule="evenodd"
         d="m 214.042,300.269 c -2.261,0 -3.391,-0.944 -3.391,-2.832 V 244.196 H 223.3 c 2.261,0 3.392,0.944 3.392,2.832 v 53.241 z"
         fill="#000000"
         fill-opacity="0.15"
         id="path6198" /><path
         fill-rule="evenodd"
         clip-rule="evenodd"
         d="m 243.342,255.766 h -11.756 c -2.301,0 -3.452,-0.944 -3.452,-2.832 v -8.738 h 43.199 c 2.301,0 3.452,0.944 3.452,2.832 v 8.738 H 259.67 v 44.503 h -12.876 c -2.301,0 -3.452,-0.944 -3.452,-2.832 z"
         fill="#000000"
         fill-opacity="0.15"
         id="path6200" /><path
         fill-rule="evenodd"
         clip-rule="evenodd"
         d="m 311.215,244.196 c 2.302,0 3.452,0.944 3.452,2.832 v 8.334 h -22.578 v 10.681 h 16.421 c 2.301,0 3.452,0.944 3.452,2.832 v 8.334 h -19.873 v 11.894 h 20.059 c 2.302,0 3.452,0.944 3.452,2.832 v 8.334 h -35.921 c -2.301,0 -3.452,-0.944 -3.452,-2.832 v -53.241 z"
         fill="#000000"
         fill-opacity="0.15"
         id="path6202" /><path
         fill-rule="evenodd"
         clip-rule="evenodd"
         d="m 317.043,264.29 c 0,-4.011 0.547,-7.377 1.641,-10.096 1.163,-2.787 2.804,-5.031 4.924,-6.731 2.12,-1.699 4.685,-2.923 7.694,-3.671 3.009,-0.748 6.395,-1.121 10.156,-1.121 3.419,0 6.326,0.237 8.72,0.713 2.462,0.408 4.376,0.884 5.744,1.428 1.778,0.748 2.804,1.632 3.078,2.651 0.342,1.02 0.513,2.006 0.513,2.958 v 7.342 c -1.573,-0.068 -2.975,-0.136 -4.206,-0.203 -1.231,-0.136 -2.428,-0.204 -3.591,-0.204 -1.162,-0.068 -2.325,-0.102 -3.487,-0.102 -1.163,-0.068 -2.428,-0.102 -3.796,-0.102 -2.12,0 -3.864,0.136 -5.232,0.408 -1.299,0.272 -2.325,0.646 -3.077,1.122 -0.753,0.476 -1.266,1.088 -1.539,1.835 -0.274,0.748 -0.41,1.564 -0.41,2.448 0,1.02 0.102,1.903 0.307,2.651 0.274,0.68 0.753,1.326 1.437,1.938 0.752,0.612 1.812,1.258 3.18,1.937 1.436,0.68 3.351,1.53 5.744,2.55 3.146,1.36 5.769,2.7 7.899,3.977 2.179,1.306 3.911,2.769 5.232,4.385 1.346,1.647 2.325,3.535 2.873,5.711 0.615,2.175 0.543,5.03 0.543,8.089 0,3.875 -0.444,7.206 -1.334,9.994 -0.889,2.719 -2.705,4.641 -4.688,6.477 -1.915,1.768 -3.696,2.508 -6.774,3.324 -3.077,0.884 -7.349,0.756 -11.794,0.756 -3.283,0 -7.445,0 -10.468,0 -3.023,0 -103.952,0 -105.791,0 -1.511,0 -93.197,0.122 -94.708,0.122 0,-1.003 0.013,-5.865 0,-7.021 v -6.019 c 3.023,0 92.051,0.279 94.708,0 2.531,0.068 107.161,0 109.821,0 1.008,0 6.045,0 9.177,-0.146 1.924,-0.451 2.464,-1.08 3.184,-1.639 0.645,-0.496 0.924,-1.564 1.197,-2.312 0.274,-0.815 0.41,-1.699 0.41,-2.651 0,-1.224 -0.171,-2.21 -0.513,-2.957 -0.341,-0.816 -0.957,-1.53 -1.846,-2.142 -0.821,-0.68 -1.983,-1.326 -3.488,-1.938 -1.436,-0.679 -3.283,-1.495 -5.539,-2.447 -3.215,-1.292 -5.848,-2.617 -7.899,-3.977 -2.052,-1.36 -3.659,-2.89 -4.822,-4.589 -1.162,-1.7 -1.983,-3.569 -2.462,-5.609 -0.479,-2.107 -0.718,-4.488 -0.718,-7.139 z"
         fill="#000000"
         fill-opacity="0.15"
         id="path6204" /><path
         fill-rule="evenodd"
         clip-rule="evenodd"
         d="m 127.452,291.641 c -0.516,-0.096 -0.849,-0.272 -1.171,-0.615 -0.35,-0.374 -0.458,-0.755 -0.447,-1.581 0.01,-1.068 0.091,-1.242 0.843,-1.902 2.89,-2.537 16.019,-13.885 16.075,-13.894 0.037,-0.006 0.636,0.627 1.327,1.407 l 1.257,1.418 -1.835,1.761 c -1.01,0.968 -4.537,4.355 -7.839,7.527 l -6.003,5.767 -0.558,0.093 c -0.661,0.109 -1.138,0.115 -1.649,0.019 z m 33.976,0.14 c -0.219,-0.043 -0.444,-0.126 -0.502,-0.184 -0.056,-0.057 -1.537,-1.73 -3.288,-3.717 -2.873,-3.258 -5.71,-6.469 -11.847,-13.406 -1.129,-1.276 -2.074,-2.35 -2.101,-2.387 -0.028,-0.037 -0.43,-0.129 -0.895,-0.205 -1.176,-0.189 -2.794,-0.703 -4.074,-1.292 -1.184,-0.546 -3.039,-1.665 -4.223,-2.548 -1.012,-0.757 -3.009,-2.632 -3.838,-3.606 -1.809,-2.127 -3.134,-4.513 -3.655,-6.583 -0.188,-0.748 -0.187,-2.742 0.003,-3.237 0.192,-0.505 0.583,-1.28 0.645,-1.28 0.028,0 8.434,7.844 18.674,17.432 l 18.62,17.431 0.06,0.456 c 0.212,1.611 -0.128,2.526 -1.114,2.997 -0.411,0.196 -1.763,0.268 -2.465,0.129 z m -12.694,-21.024 -1.288,-1.21 0.77,-0.677 c 0.425,-0.372 1.255,-1.102 1.847,-1.621 1.076,-0.944 1.077,-0.944 0.969,-1.196 -0.508,-1.183 -0.558,-2.057 -0.158,-2.775 0.145,-0.26 1.741,-1.769 5.316,-5.025 l 5.108,-4.654 0.669,0.622 0.669,0.622 -3.195,2.904 -3.194,2.905 0.599,0.56 0.599,0.561 3.149,-2.862 c 1.732,-1.574 3.191,-2.861 3.241,-2.861 0.049,0 0.37,0.262 0.709,0.583 l 0.618,0.582 -3.193,2.904 -3.193,2.903 0.599,0.56 0.599,0.561 3.195,-2.903 3.195,-2.903 0.599,0.56 0.599,0.561 -5.116,4.651 c -5.415,4.923 -5.408,4.917 -6.363,5.034 -0.47,0.057 -1.262,-0.087 -1.989,-0.361 l -0.536,-0.203 -1.177,1.135 c -0.647,0.625 -1.443,1.387 -1.768,1.694 l -0.591,0.558 z"
         fill="#000000"
         fill-opacity="0.15"
         id="path6206" /><path
         fill-rule="evenodd"
         clip-rule="evenodd"
         d="m 125.833,534.635 c 0,-3.213 0.503,-5.909 1.508,-8.088 1.067,-2.233 2.575,-4.031 4.522,-5.392 1.947,-1.362 4.302,-2.342 7.065,-2.942 2.764,-0.599 5.873,-0.898 9.327,-0.898 3.14,0 5.81,0.19 8.008,0.572 2.261,0.326 4.019,0.708 5.275,1.144 1.633,0.599 2.575,1.307 2.827,2.124 0.314,0.817 0.471,1.606 0.471,2.369 v 5.882 c -1.445,-0.054 -2.732,-0.109 -3.863,-0.163 -1.13,-0.108 -2.229,-0.163 -3.297,-0.163 -1.068,-0.054 -2.135,-0.082 -3.203,-0.082 -1.068,-0.054 -2.23,-0.082 -3.486,-0.082 -1.947,0 -3.548,0.109 -4.804,0.327 -1.194,0.218 -2.136,0.518 -2.827,0.899 -0.691,0.381 -1.162,0.871 -1.413,1.471 -0.251,0.599 -0.377,1.252 -0.377,1.96 0,0.817 0.095,1.525 0.283,2.125 0.251,0.544 0.691,1.062 1.319,1.552 0.691,0.49 1.664,1.008 2.92,1.552 1.319,0.545 3.078,1.226 5.276,2.043 2.889,1.089 5.307,2.151 7.254,3.186 2.01,1.035 3.611,2.206 4.805,3.513 1.256,1.307 2.135,2.832 2.637,4.575 0.566,1.743 0.848,3.84 0.848,6.291 0,3.105 -0.408,5.774 -1.224,8.007 -0.817,2.179 -2.136,4.003 -3.957,5.474 -1.759,1.416 -4.051,2.451 -6.877,3.105 -2.827,0.708 -6.281,1.062 -10.363,1.062 -3.015,0 -5.841,-0.164 -8.479,-0.491 -2.638,-0.272 -4.679,-0.653 -6.124,-1.143 -1.319,-0.436 -2.229,-0.981 -2.732,-1.634 -0.502,-0.708 -0.753,-1.525 -0.753,-2.451 v -6.618 c 2.449,0.163 4.836,0.299 7.159,0.408 2.324,0.055 4.711,0.082 7.16,0.082 2.136,0 3.863,-0.109 5.182,-0.327 1.381,-0.217 2.418,-0.517 3.109,-0.898 0.753,-0.436 1.256,-0.953 1.507,-1.553 0.251,-0.653 0.377,-1.361 0.377,-2.124 0,-0.98 -0.157,-1.77 -0.471,-2.369 -0.314,-0.654 -0.879,-1.226 -1.696,-1.716 -0.754,-0.544 -1.821,-1.062 -3.203,-1.552 -1.319,-0.545 -3.015,-1.198 -5.087,-1.961 -2.952,-1.035 -5.37,-2.097 -7.254,-3.186 -1.885,-1.09 -3.36,-2.315 -4.428,-3.677 -1.068,-1.361 -1.822,-2.859 -2.261,-4.493 -0.44,-1.689 -0.66,-3.595 -0.66,-5.72 z"
         fill="#000000"
         fill-opacity="0.15"
         id="path6208" /><path
         fill-rule="evenodd"
         clip-rule="evenodd"
         d="m 209.778,576.058 h -11.264 c -0.822,0 -1.507,-0.311 -2.055,-0.932 -0.493,-0.622 -0.877,-1.328 -1.151,-2.12 -1.096,-2.882 -2.22,-5.792 -3.371,-8.731 -1.151,-2.995 -2.329,-5.905 -3.535,-8.731 -1.151,-2.825 -2.302,-5.538 -3.453,-8.137 -1.096,-2.6 -2.165,-4.917 -3.206,-6.951 v 35.602 h -10.03 c -2.028,0 -3.042,-0.989 -3.042,-2.967 v -55.776 h 10.77 c 0.822,0 1.535,0.31 2.137,0.932 0.603,0.622 1.097,1.328 1.48,2.119 0.932,1.978 1.973,4.21 3.124,6.697 1.206,2.486 2.412,5.086 3.618,7.798 1.206,2.713 2.411,5.482 3.617,8.308 1.206,2.769 2.302,5.453 3.289,8.052 v -33.906 h 10.03 c 2.028,0 3.042,0.989 3.042,2.966 z"
         fill="#000000"
         fill-opacity="0.15"
         id="path6210" /><path
         fill-rule="evenodd"
         clip-rule="evenodd"
         d="M 237.057,561.648 H 225.99 c -0.316,2.599 -0.606,5.17 -0.869,7.713 -0.264,2.543 -0.448,4.776 -0.554,6.697 h -10.593 c -0.738,0 -1.344,-0.254 -1.818,-0.763 -0.422,-0.508 -0.632,-1.356 -0.632,-2.543 0,-0.508 0.026,-1.045 0.079,-1.61 0.053,-0.566 0.132,-1.102 0.237,-1.611 1.423,-9.268 3.03,-18.168 4.822,-26.702 1.792,-8.533 4.058,-17.038 6.799,-25.514 h 14.308 c 1.054,0 1.792,0.282 2.213,0.847 0.422,0.565 0.738,1.159 0.949,1.78 2.371,7.573 4.532,16.163 6.482,25.769 1.95,9.551 3.689,19.666 5.217,30.347 h -11.383 c -1.686,0 -2.661,-1.017 -2.925,-3.052 z m -5.533,-33.483 c -1.107,4.747 -2.003,8.957 -2.688,12.63 -0.633,3.617 -1.239,7.064 -1.818,10.342 h 9.012 c -0.58,-3.278 -1.213,-6.725 -1.898,-10.342 -0.632,-3.673 -1.502,-7.883 -2.608,-12.63 z"
         fill="#000000"
         fill-opacity="0.15"
         id="path6212" /><path
         fill-rule="evenodd"
         clip-rule="evenodd"
         d="m 257.669,576.058 c -2.195,0 -3.293,-0.975 -3.293,-2.925 v -53.98 c 3.322,-0.613 6.674,-1.058 10.055,-1.337 3.44,-0.334 6.495,-0.501 9.164,-0.501 3.737,0 6.97,0.334 9.699,1.002 2.787,0.669 5.071,1.755 6.851,3.259 1.838,1.504 3.173,3.482 4.004,5.933 0.889,2.451 1.334,5.459 1.334,9.025 0,6.907 -1.572,11.921 -4.715,15.041 -3.085,3.063 -7.682,4.595 -13.792,4.595 -1.483,0 -2.906,-0.055 -4.271,-0.167 -1.305,-0.167 -2.372,-0.334 -3.203,-0.501 v 20.556 z m 11.833,-30.834 c 0.712,0.111 1.365,0.195 1.958,0.251 0.593,0.056 1.156,0.083 1.69,0.083 1.305,0 2.403,-0.111 3.292,-0.334 0.949,-0.278 1.721,-0.752 2.314,-1.42 0.593,-0.724 1.038,-1.671 1.334,-2.841 0.297,-1.17 0.445,-2.674 0.445,-4.513 0,-1.727 -0.148,-3.147 -0.445,-4.261 -0.237,-1.114 -0.622,-1.978 -1.156,-2.591 -0.534,-0.668 -1.246,-1.114 -2.136,-1.337 -0.83,-0.222 -1.809,-0.334 -2.936,-0.334 -0.534,0 -1.275,0.028 -2.224,0.084 -0.949,0 -1.661,0.028 -2.136,0.084 z"
         fill="#000000"
         fill-opacity="0.15"
         id="path6214" /><path
         fill-rule="evenodd"
         clip-rule="evenodd"
         d="m 183.333,624.02 h 5.062 c 2.502,0 4.277,-0.535 5.324,-1.606 1.105,-1.124 1.658,-2.918 1.658,-5.381 0,-2.57 -0.611,-4.363 -1.833,-5.38 -1.163,-1.071 -3.171,-1.606 -6.022,-1.606 h -4.189 z m 0,-23.449 h 4.538 c 2.211,0 3.782,-0.429 4.713,-1.285 0.989,-0.911 1.484,-2.651 1.484,-5.22 0,-2.517 -0.465,-4.203 -1.396,-5.06 -0.931,-0.91 -2.59,-1.365 -4.975,-1.365 -0.582,0 -1.338,0.027 -2.269,0.081 -0.931,0 -1.629,0.026 -2.095,0.08 z m -14.662,-21.362 c 3.258,-0.589 6.487,-1.017 9.687,-1.285 3.259,-0.321 6.197,-0.482 8.815,-0.482 3.2,0 6.11,0.268 8.728,0.803 2.618,0.482 4.829,1.339 6.633,2.57 1.862,1.178 3.287,2.757 4.276,4.738 0.989,1.928 1.484,4.31 1.484,7.147 0,2.999 -0.64,5.488 -1.92,7.469 -1.222,1.981 -3.317,3.667 -6.284,5.059 1.978,0.75 3.607,1.633 4.888,2.65 1.28,0.964 2.269,2.062 2.967,3.293 0.698,1.178 1.164,2.409 1.396,3.694 0.291,1.285 0.437,2.57 0.437,3.855 0,2.998 -0.524,5.461 -1.571,7.388 -1.048,1.927 -2.473,3.48 -4.277,4.658 -1.804,1.177 -3.927,2.007 -6.371,2.489 -2.444,0.428 -5.062,0.643 -7.855,0.643 H 171.9 c -2.153,0 -3.229,-0.937 -3.229,-2.811 z"
         fill="#000000"
         fill-opacity="0.15"
         id="path6216" /><path
         fill-rule="evenodd"
         clip-rule="evenodd"
         d="m 214.644,633.897 c -2.276,0 -3.414,-0.95 -3.414,-2.851 v -53.605 h 12.735 c 2.276,0 3.415,0.951 3.415,2.852 v 53.604 z"
         fill="#000000"
         fill-opacity="0.15"
         id="path6218" /><path
         fill-rule="evenodd"
         clip-rule="evenodd"
         d="m 244.144,589.091 h -11.836 c -2.317,0 -3.476,-0.951 -3.476,-2.851 v -8.799 h 43.494 c 2.317,0 3.475,0.951 3.475,2.852 v 8.798 h -15.218 v 44.806 H 247.62 c -2.317,0 -3.476,-0.95 -3.476,-2.851 z"
         fill="#000000"
         fill-opacity="0.15"
         id="path6220" /><path
         fill-rule="evenodd"
         clip-rule="evenodd"
         d="m 312.48,577.441 c 2.317,0 3.476,0.951 3.476,2.852 v 8.391 h -22.733 v 10.753 h 16.533 c 2.317,0 3.476,0.951 3.476,2.851 v 8.391 h -20.009 v 11.976 h 20.197 c 2.317,0 3.475,0.95 3.475,2.851 v 8.391 h -36.166 c -2.317,0 -3.476,-0.95 -3.476,-2.851 v -53.605 z"
         fill="#000000"
         fill-opacity="0.15"
         id="path6222" /><path
         fill-rule="evenodd"
         clip-rule="evenodd"
         d="m 318.348,597.673 c 0,-4.039 0.551,-7.427 1.652,-10.165 1.171,-2.807 2.823,-5.065 4.958,-6.777 2.135,-1.711 4.717,-2.943 7.746,-3.696 3.03,-0.753 6.438,-1.129 10.225,-1.129 3.443,0 6.369,0.239 8.779,0.718 2.479,0.411 4.407,0.89 5.784,1.438 1.791,0.753 2.824,1.643 3.099,2.669 0.344,1.027 0.516,2.02 0.516,2.978 v 7.392 c -1.583,-0.068 -2.995,-0.136 -4.234,-0.205 -1.24,-0.136 -2.445,-0.205 -3.615,-0.205 -1.171,-0.068 -2.341,-0.102 -3.512,-0.102 -1.17,-0.069 -2.444,-0.103 -3.821,-0.103 -2.135,0 -3.891,0.137 -5.268,0.411 -1.308,0.273 -2.341,0.65 -3.098,1.129 -0.758,0.479 -1.274,1.095 -1.55,1.848 -0.275,0.753 -0.413,1.575 -0.413,2.465 0,1.026 0.103,1.916 0.31,2.669 0.276,0.685 0.758,1.335 1.446,1.951 0.758,0.616 1.825,1.266 3.202,1.951 1.446,0.684 3.374,1.54 5.784,2.567 3.167,1.368 5.808,2.718 7.953,4.004 2.193,1.315 3.937,2.787 5.267,4.415 1.356,1.658 2.341,3.559 2.892,5.749 0.62,2.191 0.547,5.064 0.547,8.145 0,3.901 -0.447,7.255 -1.342,10.062 -0.895,2.738 -2.724,4.673 -4.721,6.521 -1.928,1.78 -3.721,2.525 -6.82,3.347 -3.098,0.89 -7.399,0.761 -11.875,0.761 -3.305,0 -7.496,0 -10.539,0 -3.043,0 -104.661,0 -106.513,0 -1.521,0 -93.832,0.123 -95.354,0.123 0,-1.01 0.013,-5.906 0,-7.069 v -6.06 c 3.043,0 92.679,0.281 95.354,0 2.548,0.069 107.893,0 110.571,0 1.014,0 6.086,0 9.24,-0.147 1.936,-0.454 2.48,-1.088 3.205,-1.65 0.649,-0.499 0.93,-1.575 1.205,-2.328 0.276,-0.821 0.413,-1.711 0.413,-2.669 0,-1.232 -0.172,-2.225 -0.516,-2.978 -0.344,-0.821 -0.964,-1.54 -1.859,-2.156 -0.826,-0.684 -1.997,-1.335 -3.512,-1.951 -1.446,-0.684 -3.305,-1.506 -5.577,-2.464 -3.236,-1.3 -5.887,-2.635 -7.953,-4.004 -2.066,-1.369 -3.684,-2.909 -4.854,-4.62 -1.171,-1.712 -1.997,-3.594 -2.479,-5.647 -0.482,-2.122 -0.723,-4.519 -0.723,-7.188 z"
         fill="#000000"
         fill-opacity="0.15"
         id="path6224" /><path
         fill-rule="evenodd"
         clip-rule="evenodd"
         d="m 127.462,625.21 c -0.518,-0.097 -0.854,-0.273 -1.178,-0.619 -0.353,-0.376 -0.462,-0.76 -0.45,-1.591 0.01,-1.076 0.091,-1.251 0.849,-1.916 2.909,-2.554 16.128,-13.98 16.184,-13.988 0.038,-0.006 0.64,0.631 1.336,1.416 l 1.266,1.428 -1.848,1.772 c -1.016,0.975 -4.568,4.386 -7.892,7.579 l -6.044,5.807 -0.562,0.093 c -0.665,0.11 -1.146,0.116 -1.661,0.019 z m 34.209,0.141 c -0.221,-0.043 -0.448,-0.127 -0.505,-0.185 -0.057,-0.058 -1.548,-1.742 -3.311,-3.743 -2.893,-3.28 -5.749,-6.512 -11.928,-13.497 -1.136,-1.285 -2.088,-2.366 -2.115,-2.404 -0.029,-0.037 -0.433,-0.129 -0.901,-0.205 -1.184,-0.191 -2.813,-0.708 -4.102,-1.302 -1.192,-0.549 -3.06,-1.676 -4.251,-2.565 -1.02,-0.761 -3.03,-2.65 -3.865,-3.631 -1.822,-2.141 -3.155,-4.543 -3.68,-6.628 -0.189,-0.752 -0.188,-2.76 0.003,-3.259 0.194,-0.507 0.587,-1.289 0.649,-1.288 0.028,0 8.492,7.898 18.802,17.551 l 18.747,17.55 0.06,0.459 c 0.214,1.622 -0.128,2.543 -1.121,3.017 -0.414,0.198 -1.776,0.27 -2.482,0.13 z m -12.781,-21.167 -1.297,-1.218 0.776,-0.682 c 0.427,-0.375 1.264,-1.109 1.86,-1.632 1.083,-0.95 1.083,-0.95 0.974,-1.204 -0.511,-1.191 -0.561,-2.072 -0.158,-2.795 0.145,-0.261 1.753,-1.781 5.352,-5.059 l 5.143,-4.685 0.674,0.626 0.673,0.626 -3.216,2.924 -3.217,2.925 0.604,0.564 0.603,0.564 3.17,-2.881 c 1.744,-1.585 3.213,-2.881 3.263,-2.881 0.049,0 0.373,0.264 0.715,0.587 l 0.621,0.587 -3.214,2.923 -3.215,2.923 0.603,0.564 0.603,0.565 3.217,-2.923 3.216,-2.923 0.603,0.564 0.604,0.565 -5.152,4.682 c -5.452,4.957 -5.444,4.951 -6.406,5.068 -0.473,0.058 -1.271,-0.087 -2.003,-0.363 l -0.539,-0.204 -1.185,1.143 c -0.651,0.628 -1.453,1.396 -1.78,1.705 l -0.595,0.562 z"
         fill="#000000"
         fill-opacity="0.15"
         id="path6226" /><path
         fill-rule="evenodd"
         clip-rule="evenodd"
         d="m 109.232,423.107 c 3.08,0 5.664,0.477 7.752,1.432 2.141,1.014 3.864,2.446 5.169,4.296 1.305,1.849 2.244,4.087 2.819,6.712 0.574,2.625 0.861,5.579 0.861,8.86 0,2.983 -0.183,5.519 -0.548,7.607 -0.313,2.148 -0.679,3.819 -1.097,5.012 -0.574,1.551 -1.252,2.446 -2.035,2.685 -0.783,0.298 -1.54,0.448 -2.271,0.448 h -5.638 c 0.052,-1.373 0.104,-2.596 0.156,-3.67 0.104,-1.074 0.157,-2.118 0.157,-3.132 0.052,-1.015 0.078,-2.029 0.078,-3.043 0.052,-1.014 0.078,-2.118 0.078,-3.311 0,-1.85 -0.104,-3.371 -0.313,-4.565 -0.209,-1.133 -0.496,-2.028 -0.861,-2.685 -0.366,-0.656 -0.835,-1.103 -1.41,-1.342 -0.574,-0.239 -1.2,-0.358 -1.879,-0.358 -0.783,0 -1.462,0.089 -2.036,0.268 -0.522,0.239 -1.018,0.657 -1.488,1.253 -0.469,0.657 -0.965,1.581 -1.487,2.775 -0.522,1.253 -1.175,2.923 -1.958,5.011 -1.044,2.745 -2.062,5.042 -3.054,6.892 -0.9918,1.909 -2.1142,3.43 -3.3671,4.564 -1.2529,1.193 -2.7146,2.029 -4.3851,2.506 -1.6705,0.537 -3.6803,0.805 -6.0294,0.805 -2.9756,0 -5.5336,-0.387 -7.6739,-1.163 -2.0881,-0.776 -3.837,-2.029 -5.2465,-3.759 -1.3572,-1.671 -2.3491,-3.848 -2.9755,-6.533 -0.6787,-2.685 -1.018,-5.967 -1.018,-9.845 0,-2.864 0.1566,-5.548 0.4698,-8.054 0.2611,-2.506 0.6264,-4.445 1.0963,-5.818 0.4176,-1.253 0.9397,-2.118 1.5661,-2.595 0.6787,-0.477 1.4617,-0.716 2.3492,-0.716 h 6.3426 c -0.1565,2.327 -0.287,4.594 -0.3915,6.802 -0.0523,2.207 -0.0785,4.474 -0.0785,6.801 0,2.029 0.1044,3.67 0.3132,4.923 0.2089,1.312 0.496,2.297 0.8614,2.953 0.4176,0.716 0.9135,1.193 1.4878,1.432 0.6264,0.239 1.3051,0.358 2.0359,0.358 0.9397,0 1.6966,-0.149 2.2709,-0.448 0.6264,-0.298 1.1745,-0.835 1.6444,-1.61 0.522,-0.716 1.0179,-1.731 1.4877,-3.043 0.5221,-1.253 1.1485,-2.864 1.8794,-4.833 0.9918,-2.804 2.0098,-5.101 3.0538,-6.891 1.0441,-1.79 2.2187,-3.192 3.5238,-4.207 1.3052,-1.014 2.7402,-1.73 4.3072,-2.147 1.618,-0.418 3.445,-0.627 5.481,-0.627 z"
         fill="#000000"
         fill-opacity="0.15"
         id="path6228" /><path
         fill-rule="evenodd"
         clip-rule="evenodd"
         d="m 69.5312,502.852 v -10.7 c 0,-0.781 0.2979,-1.431 0.8936,-1.952 0.5958,-0.469 1.2729,-0.833 2.0311,-1.094 2.7623,-1.041 5.5517,-2.108 8.3682,-3.202 2.8706,-1.093 5.6599,-2.213 8.3681,-3.358 2.7081,-1.094 5.3079,-2.187 7.7994,-3.28 2.4914,-1.042 4.7124,-2.057 6.6624,-3.046 H 69.5312 v -9.529 c 0,-1.926 0.9478,-2.889 2.8435,-2.889 h 53.4583 v 10.231 c 0,0.781 -0.298,1.458 -0.894,2.031 -0.595,0.572 -1.272,1.041 -2.031,1.405 -1.895,0.885 -4.035,1.875 -6.418,2.968 -2.383,1.146 -4.875,2.291 -7.474,3.437 -2.6,1.145 -5.254,2.291 -7.962,3.436 -2.6542,1.146 -5.227,2.187 -7.7184,3.124 h 32.4974 v 9.528 c 0,1.927 -0.948,2.89 -2.843,2.89 z"
         fill="#000000"
         fill-opacity="0.15"
         id="path6230" /><path
         fill-rule="evenodd"
         clip-rule="evenodd"
         d="m 83.3426,528.767 v -10.513 c -2.4914,-0.301 -4.9559,-0.576 -7.3932,-0.826 -2.4373,-0.251 -4.5767,-0.426 -6.4182,-0.526 v -10.063 c 0,-0.701 0.2437,-1.277 0.7312,-1.727 0.4874,-0.401 1.2998,-0.601 2.4373,-0.601 0.4874,0 1.002,0.025 1.5436,0.075 0.5417,0.05 1.0562,0.126 1.5436,0.225 8.8827,1.352 17.4133,2.879 25.5921,4.581 8.178,1.703 16.33,3.855 24.454,6.459 v 13.592 c 0,1.002 -0.271,1.703 -0.812,2.103 -0.542,0.401 -1.111,0.701 -1.706,0.901 -7.258,2.253 -15.491,4.306 -24.6985,6.158 -9.1535,1.853 -18.8486,3.505 -29.0853,4.957 v -10.815 c 0,-1.602 0.9749,-2.528 2.9248,-2.778 z m 32.0914,-5.256 c -4.55,-1.052 -8.585,-1.903 -12.105,-2.554 -3.4668,-0.601 -6.7708,-1.176 -9.9122,-1.727 v 8.561 c 3.1414,-0.551 6.4454,-1.151 9.9122,-1.802 3.52,-0.601 7.555,-1.427 12.105,-2.478 z"
         fill="#000000"
         fill-opacity="0.15"
         id="path6232" /><path
         fill-rule="evenodd"
         clip-rule="evenodd"
         d="m 69.5312,548.348 c 0,-2.085 0.9344,-3.128 2.8031,-3.128 h 51.7367 c 0.587,3.156 1.015,6.34 1.282,9.551 0.32,3.269 0.48,6.171 0.48,8.707 0,3.55 -0.32,6.621 -0.961,9.213 -0.641,2.648 -1.682,4.818 -3.123,6.508 -1.442,1.747 -3.337,3.015 -5.687,3.804 -2.349,0.845 -5.232,1.268 -8.649,1.268 -6.621,0 -11.426,-1.494 -14.4159,-4.48 -2.9366,-2.93 -4.4049,-7.298 -4.4049,-13.102 0,-1.408 0.0534,-2.761 0.1602,-4.057 0.1602,-1.239 0.3203,-2.254 0.4804,-3.043 H 69.5312 Z m 29.5525,11.241 c -0.1068,0.677 -0.1869,1.296 -0.2404,1.86 -0.0535,0.563 -0.0802,1.099 -0.0802,1.606 0,1.24 0.1068,2.282 0.3203,3.127 0.267,0.902 0.7208,1.634 1.3616,2.198 0.694,0.563 1.602,0.986 2.723,1.268 1.121,0.282 2.563,0.422 4.325,0.422 1.655,0 3.016,-0.14 4.084,-0.422 1.068,-0.226 1.896,-0.592 2.483,-1.099 0.641,-0.507 1.068,-1.183 1.281,-2.029 0.214,-0.789 0.321,-1.718 0.321,-2.789 0,-0.507 -0.027,-1.211 -0.081,-2.113 0,-0.902 -0.026,-1.578 -0.08,-2.029 z"
         fill="#000000"
         fill-opacity="0.15"
         id="path6234" /><path
         fill-rule="evenodd"
         clip-rule="evenodd"
         d="m 23.5628,477.73 v 4.809 c 0,2.377 0.5132,4.063 1.5394,5.058 1.0776,1.05 2.7965,1.575 5.1569,1.575 2.463,0 4.1819,-0.58 5.1569,-1.741 1.0262,-1.105 1.5394,-3.012 1.5394,-5.721 v -3.98 z m 22.4748,0 v 4.312 c 0,2.1 0.4105,3.593 1.2315,4.477 0.8724,0.94 2.54,1.409 5.003,1.409 2.4117,0 4.028,-0.442 4.849,-1.326 0.8723,-0.885 1.3085,-2.46 1.3085,-4.726 0,-0.553 -0.0257,-1.271 -0.077,-2.156 0,-0.884 -0.0257,-1.547 -0.077,-1.99 z m 20.4737,-13.928 c 0.5644,3.095 0.9749,6.163 1.2315,9.203 0.3079,3.095 0.4618,5.886 0.4618,8.374 0,3.04 -0.2566,5.803 -0.7697,8.291 -0.4618,2.487 -1.2828,4.587 -2.463,6.301 -1.1289,1.768 -2.6425,3.123 -4.5411,4.062 -1.8472,0.94 -4.1306,1.41 -6.8502,1.41 -2.8735,0 -5.2595,-0.608 -7.1581,-1.824 -1.8986,-1.161 -3.5149,-3.151 -4.849,-5.97 -0.7184,1.88 -1.5651,3.427 -2.54,4.643 -0.9236,1.216 -1.9755,2.156 -3.1557,2.819 -1.1289,0.663 -2.3091,1.106 -3.5406,1.327 -1.2315,0.276 -2.4629,0.414 -3.6944,0.414 -2.8735,0 -5.2339,-0.497 -7.0811,-1.492 -1.8473,-0.995 -3.3354,-2.349 -4.4643,-4.063 -1.1288,-1.713 -1.9241,-3.731 -2.3859,-6.052 -0.4106,-2.322 -0.6158,-4.809 -0.6158,-7.462 v -16.914 c 0,-2.045 0.8979,-3.067 2.6939,-3.067 z"
         fill="#000000"
         fill-opacity="0.15"
         id="path6236" /><path
         fill-rule="evenodd"
         clip-rule="evenodd"
         d="m 14.0959,507.475 c 0,-2.162 0.911,-3.243 2.7329,-3.243 h 51.3768 v 12.098 c 0,2.162 -0.911,3.244 -2.7328,3.244 H 14.0959 Z"
         fill="#000000"
         fill-opacity="0.15"
         id="path6238" /><path
         fill-rule="evenodd"
         clip-rule="evenodd"
         d="m 57.0401,535.5 v -11.245 c 0,-2.201 0.9109,-3.301 2.7328,-3.301 h 8.4327 v 41.317 c 0,2.202 -0.911,3.302 -2.7328,3.302 H 57.0401 V 551.117 H 14.0959 v -12.316 c 0,-2.201 0.911,-3.301 2.7329,-3.301 z"
         fill="#000000"
         fill-opacity="0.15"
         id="path6240" /><path
         fill-rule="evenodd"
         clip-rule="evenodd"
         d="m 68.2056,600.417 c 0,2.202 -0.911,3.302 -2.7328,3.302 H 57.4305 V 582.123 H 47.1239 v 15.707 c 0,2.201 -0.9109,3.301 -2.7328,3.301 H 36.3488 V 582.123 H 24.871 v 19.187 c 0,2.201 -0.9109,3.302 -2.7328,3.302 h -8.0423 v -34.357 c 0,-2.202 0.911,-3.302 2.7329,-3.302 h 51.3768 z"
         fill="#000000"
         fill-opacity="0.15"
         id="path6242" /><path
         fill-rule="evenodd"
         clip-rule="evenodd"
         d="m 48.815,605.992 c 3.8707,0 7.1181,0.523 9.7423,1.569 2.6898,1.112 4.8547,2.682 6.4948,4.71 1.6402,2.028 2.821,4.481 3.5426,7.359 0.7217,2.878 1.0825,6.116 1.0825,9.714 0,3.27 -0.2296,6.05 -0.6888,8.34 -0.3937,2.354 -0.8529,4.186 -1.3778,5.494 -0.7216,1.701 -1.5744,2.682 -2.5585,2.944 -0.984,0.327 -1.9353,0.49 -2.8538,0.49 h -7.0852 c 0.0655,-1.504 0.1311,-2.845 0.1964,-4.023 0.1312,-1.177 0.1965,-2.322 0.1965,-3.434 0.0656,-1.112 0.0984,-2.224 0.0984,-3.336 0.0656,-1.112 0.0984,-2.322 0.0984,-3.63 0,-2.028 -0.1315,-3.696 -0.3936,-5.004 -0.2624,-1.243 -0.6233,-2.224 -1.0825,-2.944 -0.4593,-0.719 -1.0497,-1.21 -1.7714,-1.471 -0.7216,-0.262 -1.5088,-0.393 -2.3617,-0.393 -0.9841,0 -1.8369,0.098 -2.5585,0.295 -0.6561,0.262 -1.2793,0.719 -1.8698,1.373 -0.5904,0.72 -1.2136,1.734 -1.8697,3.042 -0.656,1.374 -1.4761,3.205 -2.4602,5.495 -1.312,3.009 -2.6053,5.517 -3.8378,7.555 -1.2605,2.083 -2.6717,3.74 -4.2315,5.004 -1.5895,1.287 -3.4114,2.224 -5.5108,2.747 -2.0993,0.589 -4.8535,0.52 -7.8057,0.52 -3.7394,0 -6.954,-0.425 -9.6438,-1.276 -2.62419,-0.85 -4.47926,-2.587 -6.25056,-4.484 -1.70574,-1.831 -2.42018,-3.535 -3.207463,-6.479 -0.85286979,-2.943 -0.72995,-7.029 -0.72995,-11.281 0,-3.14 0,-7.121 1e-6,-10.012 0,-2.891 4e-6,-99.426 4e-6,-101.185 0,-1.445 -0.1178015459,-89.139 -0.1178014824,-90.584 0.9679464824,0 5.6604394824,0.012 6.7756294824,0 h 5.80764 c 0,2.891 -0.2686,88.043 0,90.584 -0.0656,2.421 0,102.496 0,105.04 0,0.963 0,5.782 0.1409,8.778 0.4354,1.839 1.0429,2.355 1.5818,3.045 0.4785,0.616 1.5093,0.883 2.231,1.145 0.7872,0.261 1.6401,0.392 2.5585,0.392 1.1809,0 2.1321,-0.164 2.8537,-0.491 0.7873,-0.327 1.4761,-0.915 2.0666,-1.766 0.656,-0.785 1.2793,-1.897 1.8697,-3.336 0.6561,-1.373 1.4434,-3.14 2.3618,-5.298 1.2465,-3.074 2.5258,-5.593 3.8378,-7.555 1.3121,-1.963 2.7882,-3.5 4.4283,-4.612 1.6401,-1.112 3.4443,-1.897 5.4124,-2.354 2.0337,-0.458 4.3307,-0.687 6.8892,-0.687 z"
         fill="#000000"
         fill-opacity="0.15"
         id="path6244" /><path
         fill-rule="evenodd"
         clip-rule="evenodd"
         d="m 22.4219,424.655 c 0.0928,-0.493 0.262,-0.812 0.5936,-1.12 0.3606,-0.335 0.7282,-0.438 1.5251,-0.428 1.0312,0.011 1.1983,0.087 1.8358,0.807 2.4483,2.764 13.3988,15.321 13.407,15.375 0.0058,0.036 -0.6053,0.608 -1.3579,1.269 l -1.3682,1.202 -1.6988,-1.755 c -0.9343,-0.966 -4.2031,-4.339 -7.264,-7.497 l -5.5652,-5.742 -0.089,-0.534 c -0.1054,-0.632 -0.1113,-1.089 -0.0184,-1.577 z m -0.1353,32.497 c 0.0418,-0.21 0.1218,-0.425 0.1771,-0.48 0.0559,-0.054 1.6703,-1.47 3.5875,-3.146 3.1438,-2.747 6.2422,-5.461 12.9365,-11.33 1.2312,-1.08 2.2678,-1.984 2.3037,-2.01 0.0357,-0.027 0.1244,-0.411 0.197,-0.856 0.183,-1.124 0.6789,-2.672 1.2474,-3.896 0.5264,-1.133 1.6065,-2.907 2.4589,-4.039 0.7296,-0.969 2.5395,-2.879 3.4797,-3.671 2.0519,-1.731 4.3541,-2.998 6.3523,-3.496 0.7212,-0.18 2.6453,-0.179 3.1236,0.003 0.4867,0.183 1.2353,0.557 1.2351,0.616 -10e-5,0.027 -7.5698,8.067 -16.8214,17.862 l -16.8211,17.808 -0.4394,0.058 c -1.5552,0.203 -2.4382,-0.122 -2.8925,-1.065 -0.1891,-0.394 -0.2582,-1.687 -0.1244,-2.358 z m 20.2878,-12.142 1.1673,-1.232 0.6534,0.738 c 0.3594,0.405 1.0633,1.2 1.5643,1.766 0.9107,1.029 0.9109,1.03 1.1539,0.926 1.1417,-0.486 1.9857,-0.533 2.6784,-0.151 0.2509,0.139 1.7071,1.666 4.849,5.085 l 4.4905,4.886 -0.5999,0.639 -0.5998,0.64 -2.8029,-3.055 -2.8029,-3.056 -0.5409,0.573 -0.5409,0.573 2.7615,3.012 c 1.5188,1.657 2.7613,3.052 2.7611,3.1 -2e-4,0.047 -0.2533,0.354 -0.5625,0.679 l -0.5623,0.59 -2.8015,-3.053 -2.8016,-3.054 -0.5409,0.572 -0.5409,0.573 2.8014,3.056 2.8014,3.056 -0.541,0.573 -0.5409,0.573 -4.4883,-4.894 c -4.7504,-5.179 -4.7448,-5.172 -4.8573,-6.086 -0.0554,-0.449 0.0834,-1.207 0.3484,-1.902 l 0.1959,-0.512 -1.0957,-1.126 c -0.6026,-0.619 -1.338,-1.38 -1.6344,-1.691 l -0.5389,-0.566 z"
         fill="#000000"
         fill-opacity="0.15"
         id="path6246" /><path
         fill-rule="evenodd"
         clip-rule="evenodd"
         d="m 4.27246e-4,334.444 c 0,-2.33 0.364339754,-4.285 1.093082754,-5.865 0.77427,-1.62 1.86741,-2.923 3.27934,-3.911 1.41194,-0.987 3.1199,-1.698 5.12393,-2.133 2.00402,-0.434 4.25852,-0.652 6.76362,-0.652 2.2773,0 4.213,0.139 5.8071,0.415 1.6397,0.237 2.9149,0.514 3.8259,0.83 1.1842,0.434 1.8673,0.948 2.0495,1.54 0.2278,0.593 0.3417,1.165 0.3417,1.718 v 4.266 c -1.0476,-0.039 -1.9813,-0.079 -2.8012,-0.118 -0.8198,-0.079 -1.6168,-0.118 -2.3911,-0.118 -0.7743,-0.04 -1.5486,-0.06 -2.3228,-0.06 -0.7743,-0.039 -1.617,-0.059 -2.5279,-0.059 -1.4119,0 -2.5733,0.079 -3.4842,0.237 -0.8654,0.158 -1.5486,0.375 -2.0496,0.652 -0.501,0.276 -0.8426,0.632 -1.0248,1.066 -0.1822,0.435 -0.2733,0.909 -0.2733,1.422 0,0.593 0.0683,1.106 0.2049,1.54 0.1822,0.395 0.501,0.771 0.9564,1.126 0.5011,0.356 1.207,0.731 2.118,1.126 0.9564,0.395 2.2317,0.889 3.8258,1.481 2.0952,0.79 3.8487,1.56 5.2606,2.311 1.4575,0.75 2.6189,1.6 3.4843,2.548 0.9109,0.948 1.5485,2.053 1.9129,3.317 0.4099,1.264 0.6149,2.785 0.6149,4.563 0,2.251 -0.296,4.186 -0.8881,5.806 -0.5921,1.58 -1.5486,2.903 -2.8695,3.97 -1.2752,1.027 -2.9377,1.777 -4.9873,2.251 -2.0495,0.514 -4.5546,0.77 -7.5151,0.77 -2.1862,0 -4.23573,-0.118 -6.14868,-0.355 -1.91295,-0.198 -3.39321,-0.474 -4.44076,-0.83 -0.95646,-0.316 -1.6169,-0.711 -1.981289,-1.185 -0.364356,-0.513 -0.546543,-1.106 -0.546543,-1.777 v -4.799 c 1.776292,0.118 3.507052,0.217 5.192262,0.296 1.68521,0.04 3.41596,0.059 5.19221,0.059 1.5486,0 2.8012,-0.079 3.7576,-0.237 1.002,-0.158 1.7536,-0.375 2.2546,-0.651 0.5465,-0.316 0.9109,-0.692 1.0931,-1.126 0.1822,-0.474 0.2732,-0.988 0.2732,-1.541 0,-0.711 -0.1138,-1.283 -0.3416,-1.718 -0.2277,-0.474 -0.6376,-0.888 -1.2297,-1.244 -0.5465,-0.395 -1.3208,-0.77 -2.3229,-1.126 -0.9564,-0.395 -2.1862,-0.869 -3.6892,-1.422 -2.14068,-0.75 -3.89419,-1.52 -5.26056,-2.31 -1.3664,-0.79 -2.43674,-1.679 -3.21101,-2.666 -0.7743,-0.988 -1.320832,-2.074 -1.639631,-3.259 -0.318833,-1.225 -0.478171754,-2.607 -0.478171754,-4.148 z"
         fill="#000000"
         fill-opacity="0.15"
         id="path6248" /><path
         fill-rule="evenodd"
         clip-rule="evenodd"
         d="m 60.8758,364.483 h -8.1679 c -0.5963,0 -1.0931,-0.225 -1.4906,-0.676 -0.3577,-0.45 -0.6359,-0.963 -0.8347,-1.537 -0.7949,-2.09 -1.6098,-4.2 -2.4444,-6.331 -0.8347,-2.172 -1.6893,-4.283 -2.5637,-6.332 -0.8347,-2.049 -1.6694,-4.016 -2.5041,-5.901 -0.7949,-1.885 -1.57,-3.565 -2.3252,-5.041 v 25.818 h -7.2737 c -1.4706,0 -2.2059,-0.717 -2.2059,-2.151 v -40.449 h 7.8103 c 0.5962,0 1.1129,0.226 1.5501,0.677 0.4372,0.45 0.7949,0.963 1.0732,1.536 0.6756,1.435 1.4308,3.053 2.2655,4.857 0.8744,1.803 1.7489,3.688 2.6234,5.655 0.8744,1.967 1.7488,3.975 2.6233,6.024 0.8744,2.008 1.6693,3.955 2.3848,5.84 v -24.589 h 7.2737 c 1.4706,0 2.2059,0.717 2.2059,2.152 z"
         fill="#000000"
         fill-opacity="0.15"
         id="path6250" /><path
         fill-rule="evenodd"
         clip-rule="evenodd"
         d="m 80.6587,354.033 h -8.0258 c -0.2293,1.885 -0.4395,3.75 -0.6305,5.594 -0.1911,1.844 -0.3249,3.463 -0.4014,4.856 h -7.6818 c -0.5351,0 -0.9746,-0.184 -1.3185,-0.553 -0.3058,-0.369 -0.4586,-0.983 -0.4586,-1.844 0,-0.369 0.0191,-0.758 0.0574,-1.168 0.0384,-0.41 0.0957,-0.799 0.1719,-1.168 1.0319,-6.721 2.1976,-13.175 3.497,-19.364 1.2995,-6.188 2.9429,-12.355 4.9302,-18.503 h 10.3762 c 0.7644,0 1.2994,0.205 1.6052,0.615 0.3057,0.41 0.535,0.84 0.688,1.291 1.7198,5.491 3.2867,11.721 4.7007,18.687 1.4141,6.926 2.6753,14.262 3.7836,22.007 h -8.2551 c -1.223,0 -1.93,-0.737 -2.1211,-2.213 z m -4.0128,-24.281 c -0.8026,3.442 -1.4524,6.495 -1.9492,9.159 -0.4586,2.623 -0.8981,5.123 -1.3185,7.5 h 6.5353 c -0.4204,-2.377 -0.879,-4.877 -1.3758,-7.5 -0.4587,-2.664 -1.0892,-5.717 -1.8918,-9.159 z"
         fill="#000000"
         fill-opacity="0.15"
         id="path6252" /><path
         fill-rule="evenodd"
         clip-rule="evenodd"
         d="m 95.6059,364.483 c -1.5916,0 -2.3875,-0.707 -2.3875,-2.12 v -39.147 c 2.409,-0.444 4.8394,-0.767 7.2916,-0.969 2.495,-0.242 4.71,-0.364 6.646,-0.364 2.71,0 5.054,0.243 7.033,0.727 2.022,0.485 3.678,1.273 4.968,2.364 1.334,1.091 2.302,2.525 2.904,4.302 0.645,1.778 0.968,3.959 0.968,6.545 0,5.009 -1.14,8.645 -3.42,10.907 -2.237,2.222 -5.571,3.333 -10.001,3.333 -1.076,0 -2.108,-0.04 -3.098,-0.121 -0.946,-0.121 -1.72,-0.242 -2.322,-0.364 v 14.907 z m 8.5821,-22.36 c 0.516,0.081 0.989,0.141 1.419,0.182 0.43,0.04 0.839,0.06 1.226,0.06 0.946,0 1.742,-0.08 2.387,-0.242 0.689,-0.202 1.248,-0.545 1.678,-1.03 0.43,-0.525 0.753,-1.212 0.968,-2.06 0.215,-0.849 0.323,-1.939 0.323,-3.273 0,-1.252 -0.108,-2.282 -0.323,-3.09 -0.172,-0.808 -0.452,-1.434 -0.839,-1.879 -0.387,-0.484 -0.903,-0.808 -1.548,-0.969 -0.603,-0.162 -1.312,-0.243 -2.13,-0.243 -0.387,0 -0.925,0.021 -1.613,0.061 -0.688,0 -1.204,0.02 -1.548,0.061 z"
         fill="#000000"
         fill-opacity="0.15"
         id="path6254" /><path
         fill-rule="evenodd"
         clip-rule="evenodd"
         d="m 41.6985,399.265 h 3.6709 c 1.8144,0 3.1013,-0.388 3.8608,-1.165 0.8017,-0.815 1.2025,-2.116 1.2025,-3.902 0,-1.863 -0.443,-3.164 -1.329,-3.902 -0.8439,-0.776 -2.2997,-1.164 -4.3672,-1.164 h -3.038 z m 0,-17.005 h 3.2912 c 1.6034,0 2.7426,-0.311 3.4177,-0.932 0.7173,-0.66 1.076,-1.922 1.076,-3.786 0,-1.824 -0.3376,-3.047 -1.0127,-3.669 -0.6751,-0.66 -1.8777,-0.99 -3.6076,-0.99 -0.422,0 -0.9705,0.02 -1.6456,0.059 -0.6751,0 -1.1814,0.019 -1.519,0.058 z M 31.0656,366.769 c 2.3628,-0.428 4.7046,-0.738 7.0253,-0.932 2.3629,-0.233 4.4937,-0.35 6.3924,-0.35 2.3207,0 4.4304,0.194 6.3292,0.583 1.8987,0.349 3.5021,0.97 4.8101,1.863 1.3503,0.854 2.384,2 3.1013,3.436 0.7173,1.398 1.0759,3.126 1.0759,5.183 0,2.175 -0.4641,3.98 -1.3923,5.416 -0.8861,1.437 -2.4051,2.66 -4.557,3.669 1.4346,0.544 2.6161,1.185 3.5443,1.922 0.9283,0.699 1.6456,1.495 2.1519,2.388 0.5063,0.854 0.8439,1.747 1.0127,2.679 0.211,0.932 0.3164,1.863 0.3164,2.795 0,2.174 -0.3797,3.96 -1.1392,5.358 -0.7595,1.398 -1.7933,2.524 -3.1013,3.378 -1.308,0.854 -2.8481,1.456 -4.6203,1.805 -1.7721,0.311 -3.6709,0.466 -5.6962,0.466 H 33.4073 c -1.5611,0 -2.3417,-0.679 -2.3417,-2.038 z"
         fill="#000000"
         fill-opacity="0.15"
         id="path6256" /><path
         fill-rule="evenodd"
         clip-rule="evenodd"
         d="m 64.4049,406.428 c -1.6508,0 -2.4762,-0.689 -2.4762,-2.068 v -38.873 h 9.2356 c 1.6508,0 2.4763,0.689 2.4763,2.067 v 38.874 z"
         fill="#000000"
         fill-opacity="0.15"
         id="path6258" /><path
         fill-rule="evenodd"
         clip-rule="evenodd"
         d="m 85.7981,373.935 h -8.5835 c -1.6803,0 -2.5204,-0.689 -2.5204,-2.068 v -6.38 h 31.5408 c 1.68,0 2.521,0.689 2.521,2.067 v 6.381 H 97.7197 v 32.493 h -9.401 c -1.6804,0 -2.5206,-0.689 -2.5206,-2.068 z"
         fill="#000000"
         fill-opacity="0.15"
         id="path6260" /><path
         fill-rule="evenodd"
         clip-rule="evenodd"
         d="m 135.355,365.487 c 1.68,0 2.52,0.689 2.52,2.067 v 6.085 H 121.39 v 7.799 h 11.989 c 1.681,0 2.521,0.689 2.521,2.068 v 6.085 h -14.51 v 8.684 h 14.646 c 1.68,0 2.521,0.689 2.521,2.068 v 6.085 h -26.228 c -1.68,0 -2.52,-0.689 -2.52,-2.068 v -38.873 z"
         fill="#000000"
         fill-opacity="0.15"
         id="path6262" /><path
         fill-rule="evenodd"
         clip-rule="evenodd"
         d="m 139.61,380.158 c 0,-2.929 0.399,-5.386 1.198,-7.371 0.849,-2.035 2.048,-3.673 3.596,-4.914 1.548,-1.241 3.42,-2.135 5.617,-2.681 2.197,-0.546 4.669,-0.819 7.415,-0.819 2.497,0 4.619,0.174 6.367,0.521 1.797,0.298 3.196,0.646 4.194,1.043 1.299,0.546 2.048,1.191 2.247,1.936 0.25,0.744 0.375,1.464 0.375,2.159 v 5.361 c -1.149,-0.05 -2.172,-0.099 -3.071,-0.149 -0.899,-0.099 -1.773,-0.148 -2.622,-0.148 -0.848,-0.05 -1.697,-0.075 -2.546,-0.075 -0.849,-0.05 -1.773,-0.074 -2.772,-0.074 -1.547,0 -2.821,0.099 -3.819,0.297 -0.949,0.199 -1.698,0.472 -2.248,0.819 -0.549,0.348 -0.923,0.795 -1.123,1.341 -0.2,0.546 -0.3,1.141 -0.3,1.787 0,0.744 0.075,1.39 0.225,1.936 0.2,0.496 0.549,0.968 1.049,1.414 0.549,0.447 1.323,0.919 2.322,1.415 1.048,0.496 2.447,1.117 4.194,1.862 2.297,0.992 4.212,1.971 5.768,2.903 1.59,0.954 2.855,2.022 3.819,3.202 0.983,1.203 1.698,2.581 2.098,4.17 0.449,1.588 0.397,3.672 0.397,5.906 0,2.829 -0.325,5.262 -0.974,7.297 -0.649,1.985 -1.975,3.389 -3.423,4.729 -1.398,1.291 -2.699,1.831 -4.946,2.427 -2.247,0.645 -5.366,0.552 -8.612,0.552 -2.397,0 -5.436,0 -7.643,0 -2.207,0 -75.8992,0 -77.2419,0 -1.1035,0 -68.04666,0.089 -69.1501,0.089 -2.5188649e-7,-0.732 0.00934215,-4.282 6.89174e-5,-5.126 v -4.395 C 2.20692,407.572 67.2101,407.776 69.1501,407.572 c 1.8476,0.05 78.2429,0 80.1849,0 0.735,0 4.414,0 6.701,-0.106 1.404,-0.33 1.798,-0.789 2.324,-1.197 0.471,-0.362 0.674,-1.142 0.874,-1.688 0.2,-0.596 0.3,-1.241 0.3,-1.936 0,-0.893 -0.125,-1.613 -0.375,-2.159 -0.249,-0.596 -0.699,-1.117 -1.348,-1.564 -0.599,-0.496 -1.448,-0.968 -2.547,-1.415 -1.048,-0.496 -2.397,-1.092 -4.044,-1.787 -2.347,-0.943 -4.27,-1.911 -5.768,-2.903 -1.498,-0.993 -2.671,-2.11 -3.52,-3.351 -0.849,-1.241 -1.448,-2.606 -1.798,-4.095 -0.349,-1.539 -0.524,-3.277 -0.524,-5.213 z"
         fill="#000000"
         fill-opacity="0.15"
         id="path6264" /><path
         fill-rule="evenodd"
         clip-rule="evenodd"
         d="M 1.18164,400.128 C 0.805578,400.058 0.562277,399.93 0.326844,399.679 0.0712812,399.406 -0.00769728,399.128 5.79655e-4,398.525 0.00824348,397.745 0.0669697,397.618 0.61639,397.136 c 2.1098,-1.852 11.69581,-10.138 11.73641,-10.144 0.0276,-0.005 0.4645,0.458 0.9692,1.027 l 0.9178,1.035 -1.3401,1.286 c -0.7371,0.707 -3.31244,3.18 -5.72305,5.496 l -4.38294,4.211 -0.40766,0.067 c -0.48238,0.08 -0.83126,0.084 -1.20441,0.014 z m 24.80736,0.103 c -0.1599,-0.032 -0.3243,-0.093 -0.3662,-0.134 -0.0413,-0.043 -1.1221,-1.264 -2.4011,-2.715 -2.0974,-2.379 -4.169,-4.723 -8.6496,-9.788 -0.824,-0.932 -1.5145,-1.716 -1.5342,-1.743 -0.0205,-0.027 -0.3136,-0.094 -0.6534,-0.149 -0.8583,-0.139 -2.04,-0.514 -2.97424,-0.944 -0.86482,-0.398 -2.21935,-1.216 -3.08334,-1.861 -0.73956,-0.552 -2.19725,-1.921 -2.80256,-2.632 -1.32099,-1.553 -2.28804,-3.295 -2.668398,-4.807 -0.137438,-0.545 -0.136676,-2.001 0.001988,-2.363 0.140248,-0.369 0.42532,-0.935 0.47069,-0.935 0.02043,0 6.15803,5.728 13.63506,12.728 l 13.5947,12.727 0.044,0.333 c 0.1548,1.177 -0.0932,1.845 -0.8133,2.188 -0.3002,0.144 -1.2875,0.196 -1.8001,0.095 z m -9.2685,-15.351 -0.9402,-0.883 0.5627,-0.495 c 0.3097,-0.271 0.9163,-0.804 1.3485,-1.183 0.7857,-0.689 0.7859,-0.689 0.7069,-0.873 -0.3709,-0.864 -0.4073,-1.503 -0.115,-2.027 0.1056,-0.19 1.2714,-1.291 3.8812,-3.669 l 3.7299,-3.398 0.4884,0.454 0.4882,0.454 -2.3323,2.121 -2.3324,2.121 0.4373,0.409 0.4373,0.409 2.2995,-2.089 c 1.2646,-1.149 2.3294,-2.089 2.3661,-2.089 0.0356,0 0.2701,0.191 0.5181,0.425 l 0.451,0.426 -2.3313,2.12 -2.3312,2.119 0.4373,0.41 0.4373,0.409 2.3326,-2.12 2.3325,-2.119 0.4375,0.409 0.4374,0.409 -3.7356,3.396 c -3.9537,3.595 -3.9483,3.59 -4.6456,3.675 -0.3433,0.042 -0.9217,-0.063 -1.4524,-0.263 l -0.3911,-0.148 -0.8594,0.829 c -0.4726,0.456 -1.0535,1.012 -1.2909,1.236 l -0.4318,0.408 z"
         fill="#000000"
         fill-opacity="0.15"
         id="path6266" /></g></g></svg>
