<svg width="363" height="652" viewBox="0 0 363 652" fill="none" xmlns="http://www.w3.org/2000/svg">
<rect width="363" height="652" fill="#A8A8A8" fill-opacity="0.3"/>
<path d="M162.981 512.387L145.14 476.274C140.606 477.059 136.548 476.078 132.967 473.33C129.385 470.582 127.595 466.755 127.595 461.849C127.595 458.905 128.498 456.026 130.305 453.213C132.112 450.4 134.757 448.502 138.24 447.521C139.291 441.044 142.199 435.843 146.963 431.918C151.728 427.993 157.1 426.03 163.08 426.03C169.059 426.03 174.415 427.993 179.146 431.918C183.878 435.843 186.802 441.044 187.919 447.521C191.402 448.502 194.047 450.4 195.854 453.213C197.661 456.026 198.564 458.905 198.564 461.849C198.564 466.755 196.708 470.582 192.995 473.33C189.283 476.078 185.356 477.059 181.216 476.274L162.981 512.387ZM141.986 470.681C143.169 470.681 144.286 470.517 145.337 470.19C146.388 469.863 147.21 469.405 147.801 468.816L150.364 466.166L152.631 468.129C154.274 469.241 156.065 469.945 158.003 470.239C159.942 470.533 161.732 470.681 163.375 470.681C165.018 470.681 166.694 470.533 168.402 470.239C170.111 469.945 171.786 469.241 173.429 468.129L175.795 466.166L178.259 468.816C178.851 469.405 179.688 469.863 180.773 470.19C181.857 470.517 182.958 470.681 184.075 470.681C186.309 470.681 188.297 469.781 190.038 467.982C191.78 466.183 192.65 464.138 192.65 461.849C192.65 459.82 192.026 458.054 190.777 456.549C189.529 455.045 187.755 454.096 185.455 453.703L182.005 453.213L181.808 449.386C181.085 444.217 179.064 440.014 175.746 436.775C172.427 433.537 168.205 431.918 163.08 431.918C157.954 431.918 153.715 433.537 150.364 436.775C147.013 440.014 145.008 444.217 144.351 449.386L144.056 453.213L140.606 453.998C138.634 454.521 136.959 455.454 135.579 456.795C134.199 458.136 133.509 459.82 133.509 461.849C133.509 464.138 134.379 466.183 136.121 467.982C137.862 469.781 139.817 470.681 141.986 470.681ZM162.981 499.041L175.598 474.311L175.006 473.723C173.166 474.704 171.179 475.424 169.043 475.882C166.907 476.34 165.018 476.569 163.375 476.569C161.272 476.569 159.137 476.34 156.968 475.882C154.8 475.424 152.894 474.704 151.251 473.723L150.66 474.213L162.981 499.041Z" fill="black" fill-opacity="0.15"/>
<path d="M238.579 509.464L199.152 450.093C204.803 445.383 210.98 441.67 217.683 438.955C224.385 436.24 231.351 434.883 238.579 434.883C245.808 434.883 252.773 436.24 259.476 438.955C266.179 441.67 272.356 445.383 278.007 450.093L238.579 509.464ZM238.579 498.964L270.22 451.467C265.489 448.392 260.456 445.841 255.122 443.813C249.788 441.785 244.274 440.771 238.579 440.771C232.86 440.771 227.339 441.785 222.018 443.813C216.696 445.841 211.67 448.392 206.939 451.467L238.579 498.964ZM227.742 461.869C229.25 461.869 230.529 461.344 231.581 460.294C232.632 459.243 233.158 457.967 233.158 456.466C233.158 454.965 232.63 453.692 231.575 452.645C230.52 451.598 229.238 451.075 227.731 451.075C226.223 451.075 224.944 451.6 223.892 452.651C222.841 453.701 222.315 454.977 222.315 456.478C222.315 457.979 222.843 459.253 223.898 460.299C224.954 461.346 226.235 461.869 227.742 461.869ZM238.585 482.968C240.093 482.968 241.372 482.443 242.423 481.392C243.475 480.342 244.001 479.066 244.001 477.565C244.001 476.064 243.473 474.79 242.418 473.744C241.362 472.697 240.081 472.173 238.573 472.173C237.066 472.173 235.787 472.699 234.735 473.749C233.684 474.8 233.158 476.076 233.158 477.577C233.158 479.077 233.686 480.351 234.741 481.398C235.796 482.445 237.078 482.968 238.585 482.968Z" fill="black" fill-opacity="0.15"/>
<g clip-path="url(#clip0_58_8)">
<path d="M138.324 360.624L127.299 323.965C130.943 322.415 134.702 321.46 138.576 321.099C142.449 320.739 146.247 321.118 149.967 322.237C153.688 323.355 157.061 325.131 160.087 327.566C163.113 330.001 165.713 332.867 167.886 336.166L138.324 360.624ZM139.964 355.22L163.664 335.668C161.709 333.354 159.517 331.262 157.088 329.393C154.659 327.523 151.979 326.148 149.048 325.267C146.104 324.382 143.104 324.05 140.049 324.27C136.993 324.491 134.008 325.026 131.092 325.877L139.964 355.22ZM140.176 334.45C140.952 334.683 141.693 334.611 142.398 334.233C143.103 333.855 143.573 333.279 143.807 332.507C144.042 331.734 143.969 330.997 143.589 330.295C143.209 329.593 142.632 329.125 141.856 328.892C141.08 328.659 140.339 328.731 139.634 329.109C138.929 329.487 138.459 330.063 138.225 330.835C137.99 331.608 138.063 332.345 138.443 333.047C138.823 333.749 139.401 334.217 140.176 334.45ZM142.464 346.987C143.24 347.221 143.98 347.148 144.685 346.77C145.39 346.392 145.86 345.817 146.095 345.044C146.329 344.272 146.256 343.535 145.876 342.832C145.497 342.13 144.919 341.663 144.143 341.429C143.367 341.196 142.626 341.269 141.921 341.647C141.216 342.025 140.746 342.6 140.512 343.373C140.278 344.145 140.35 344.882 140.73 345.584C141.11 346.286 141.688 346.754 142.464 346.987Z" fill="black" fill-opacity="0.15"/>
</g>
<path d="M282.957 461.786V458.236C282.957 451.788 286.076 446.597 292.315 442.663C298.555 438.729 307.319 436.762 318.609 436.762C329.899 436.762 338.664 438.729 344.903 442.663C351.142 446.597 354.262 451.788 354.262 458.236V461.786H282.957ZM288.483 456.462H348.736C348.558 452.38 345.69 448.963 340.135 446.212C334.579 443.462 327.404 442.086 318.609 442.086C309.815 442.086 302.61 443.462 296.995 446.212C291.379 448.963 288.542 452.38 288.483 456.462ZM282.957 477.404V472.079C284.917 472.079 286.626 471.429 288.082 470.127C289.537 468.826 291.87 468.175 295.078 468.175C298.287 468.175 300.412 468.826 301.451 470.127C302.491 471.429 304.229 472.079 306.666 472.079C309.102 472.079 310.899 471.429 312.058 470.127C313.217 468.826 315.4 468.175 318.609 468.175C321.818 468.175 324.002 468.826 325.16 470.127C326.319 471.429 328.117 472.079 330.553 472.079C332.989 472.079 334.727 471.429 335.767 470.127C336.807 468.826 338.931 468.175 342.14 468.175C345.349 468.175 347.681 468.826 349.137 470.127C350.593 471.429 352.301 472.079 354.262 472.079V477.404C351.053 477.404 348.84 476.753 347.622 475.451C346.403 474.15 344.576 473.499 342.14 473.499C339.704 473.499 337.966 474.15 336.926 475.451C335.886 476.753 333.762 477.404 330.553 477.404C327.344 477.404 325.16 476.753 324.002 475.451C322.843 474.15 321.046 473.499 318.609 473.499C316.173 473.499 314.375 474.15 313.217 475.451C312.058 476.753 309.874 477.404 306.666 477.404C303.457 477.404 301.333 476.753 300.293 475.451C299.253 474.15 297.515 473.499 295.078 473.499C292.642 473.499 290.819 474.15 289.61 475.451C288.4 476.753 286.182 477.404 282.957 477.404ZM288.304 500.653C286.878 500.653 285.63 500.121 284.561 499.056C283.491 497.991 282.957 496.748 282.957 495.329V483.97H354.262V495.329C354.262 496.748 353.727 497.991 352.658 499.056C351.588 500.121 350.34 500.653 348.914 500.653H288.304ZM288.304 495.329H348.914V489.295H288.304V495.329Z" fill="black" fill-opacity="0.15"/>
<g clip-path="url(#clip1_58_8)">
<path d="M84.4848 598.279L85.9971 596.774C88.7446 594.038 92.2635 593.137 96.5537 594.071C100.844 595.005 105.354 597.826 110.084 602.535C114.814 607.245 117.648 611.735 118.586 616.006C119.524 620.277 118.619 623.781 115.872 626.516L114.359 628.022L84.4848 598.279ZM89.0686 598.326L114.312 623.458C115.977 621.652 116.231 619.007 115.076 615.523C113.92 612.038 111.5 608.462 107.816 604.794C104.131 601.126 100.527 598.704 97.0018 597.529C93.4771 596.353 90.8327 596.619 89.0686 598.326ZM77.8303 604.904L80.0989 602.646C80.9204 603.464 81.9134 603.9 83.0779 603.955C84.2424 604.01 85.4968 604.707 86.8412 606.046C88.1855 607.384 88.7982 608.546 88.6794 609.532C88.5605 610.518 89.0114 611.519 90.0321 612.535C91.0529 613.551 92.0832 614.025 93.1232 613.956C94.1632 613.887 95.3554 614.522 96.6997 615.861C98.0441 617.199 98.6817 618.386 98.6126 619.421C98.5436 620.457 99.0194 621.482 100.04 622.499C101.061 623.515 102.066 623.964 103.056 623.845C104.047 623.727 105.214 624.337 106.558 625.676C107.903 627.014 108.603 628.263 108.658 629.422C108.713 630.581 109.152 631.57 109.973 632.388L107.705 634.647C106.36 633.308 105.71 632.109 105.755 631.049C105.799 629.988 105.31 628.95 104.29 627.934C103.269 626.918 102.264 626.469 101.273 626.587C100.283 626.706 99.1159 626.096 97.7715 624.757C96.4272 623.419 95.7895 622.232 95.8586 621.197C95.9277 620.161 95.4519 619.135 94.4312 618.119C93.4105 617.103 92.3801 616.629 91.3401 616.698C90.3001 616.767 89.1079 616.132 87.7636 614.794C86.4192 613.455 85.8065 612.293 85.9254 611.307C86.0442 610.321 85.5933 609.32 84.5726 608.304C83.5519 607.288 82.5109 606.804 81.4495 606.851C80.3882 606.899 79.1818 606.25 77.8303 604.904ZM70.1649 616.997C69.5674 616.402 69.2715 615.656 69.2771 614.758C69.2826 613.86 69.5879 613.11 70.1929 612.508L75.0325 607.69L104.907 637.432L100.067 642.25C99.4624 642.852 98.709 643.156 97.8071 643.162C96.9053 643.168 96.1557 642.873 95.5582 642.278L70.1649 616.997ZM72.4334 614.739L97.8267 640.02L100.398 637.46L75.0045 612.179L72.4334 614.739Z" fill="black" fill-opacity="0.15"/>
</g>
<path d="M187.282 425.111V377.626C182.803 376.68 178.992 374.422 175.848 370.852C172.705 367.282 171.133 363.003 171.133 358.013V321.883H178.884V358.013H187.282V321.883H195.033V358.013H203.43V321.883H211.181V358.013C211.181 363.003 209.61 367.282 206.466 370.852C203.322 374.422 199.511 376.68 195.033 377.626V425.111H187.282ZM240.895 425.111V383.82H226.038V344.465C226.038 337.669 228.105 332.206 232.239 328.077C236.373 323.948 241.842 321.883 248.646 321.883V425.111H240.895Z" fill="black" fill-opacity="0.15"/>
<path d="M259.803 426.113L253.442 419.777L317.051 356.41C314.83 351.583 314.325 346.579 315.536 341.399C316.748 336.219 319.625 331.366 324.169 326.84C328.712 322.414 334.215 319.573 340.677 318.315C347.139 317.058 352.439 318.491 356.579 322.615C360.82 326.84 362.258 332.12 360.895 338.457C359.532 344.793 356.478 350.376 351.733 355.204C347.593 359.428 342.974 362.194 337.875 363.501C332.776 364.809 328.006 364.507 323.563 362.596L313.416 372.705L360.668 419.777L354.307 426.113L307.055 379.041L259.803 426.113ZM278.734 373.157L260.712 355.204C255.562 350.074 252.887 343.989 252.685 336.948C252.483 329.907 254.805 323.671 259.652 318.24L296.757 355.204L278.734 373.157Z" fill="black" fill-opacity="0.15"/>
<path d="M74.0528 262.202C72.3918 257.516 68.9775 253.75 63.8099 250.902C58.6424 248.054 51.3986 246.63 42.0786 246.63C32.7585 246.63 25.5147 248.054 20.3472 250.902C15.1797 253.75 11.7193 257.516 9.96598 262.202H74.0528ZM0 270.47C0 266.06 0.807429 261.903 2.42229 257.999C4.03714 254.094 6.57478 250.695 10.0352 247.801C13.4956 244.907 17.8788 242.611 23.1847 240.911C28.4907 239.211 34.8117 238.362 42.1478 238.362C49.4839 238.362 55.7818 239.211 61.0416 240.911C66.3014 242.611 70.6616 244.907 74.122 247.801C77.5824 250.695 80.12 254.094 81.7349 257.999C83.3497 261.903 84.1571 266.06 84.1571 270.47H0ZM0 288.109V279.841H84.1571V288.109H0ZM92.4621 306.85V298.582H104.366L112.256 218.656H57.166L56.197 210.387H84.5724V185.583H92.8774V210.387H121.806L112.533 298.582C112.256 300.971 111.264 302.946 109.557 304.508C107.849 306.069 105.704 306.85 103.12 306.85H92.4621ZM4.15249 306.85C3.04516 306.85 2.07625 306.437 1.24575 305.61C0.415249 304.783 0 303.819 0 302.716V298.582H84.1571V302.716C84.1571 303.819 83.7419 304.783 82.9114 305.61C82.0809 306.437 81.112 306.85 80.0047 306.85H4.15249Z" fill="black" fill-opacity="0.15"/>
<path d="M340.085 46.8598L319.113 15.2797C322.119 12.7741 325.404 10.7993 328.97 9.35512C332.535 7.91096 336.24 7.18888 340.085 7.18888C343.93 7.18888 347.635 7.91096 351.2 9.35512C354.765 10.7993 358.051 12.7741 361.057 15.2797L340.085 46.8598ZM340.085 41.2745L356.915 16.0104C354.398 14.3749 351.721 13.0177 348.884 11.9389C346.047 10.8602 343.114 10.3208 340.085 10.3208C337.042 10.3208 334.106 10.8602 331.275 11.9389C328.445 13.0177 325.771 14.3749 323.255 16.0104L340.085 41.2745ZM334.321 21.5435C335.122 21.5435 335.803 21.2641 336.362 20.7052C336.922 20.1464 337.201 19.4678 337.201 18.6695C337.201 17.8712 336.921 17.1936 336.359 16.6368C335.798 16.08 335.116 15.8016 334.314 15.8016C333.513 15.8016 332.832 16.0811 332.273 16.6399C331.713 17.1987 331.434 17.8773 331.434 18.6756C331.434 19.474 331.714 20.1515 332.276 20.7083C332.837 21.2651 333.519 21.5435 334.321 21.5435ZM340.088 32.7662C340.89 32.7662 341.57 32.4867 342.13 31.9279C342.689 31.3691 342.969 30.6905 342.969 29.8922C342.969 29.0938 342.688 28.4163 342.127 27.8595C341.565 27.3027 340.884 27.0243 340.082 27.0243C339.28 27.0243 338.599 27.3037 338.04 27.8626C337.481 28.4214 337.201 29.1 337.201 29.8983C337.201 30.6966 337.482 31.3742 338.043 31.931C338.604 32.4878 339.286 32.7662 340.088 32.7662Z" fill="black" fill-opacity="0.15"/>
<path d="M320.119 62.7052V60.659C320.119 56.9418 321.918 53.9492 325.514 51.6814C329.111 49.4135 334.164 48.2796 340.672 48.2796C347.18 48.2796 352.233 49.4135 355.83 51.6814C359.426 53.9492 361.225 56.9418 361.225 60.659V62.7052H320.119ZM323.305 59.6359H358.039C357.936 57.2828 356.283 55.3133 353.081 53.7275C349.878 52.1418 345.742 51.3489 340.672 51.3489C335.602 51.3489 331.449 52.1418 328.212 53.7275C324.975 55.3133 323.339 57.2828 323.305 59.6359ZM320.119 71.7084V68.6391C321.25 68.6391 322.234 68.264 323.074 67.5137C323.913 66.7634 325.257 66.3883 327.107 66.3883C328.957 66.3883 330.181 66.7634 330.781 67.5137C331.38 68.264 332.382 68.6391 333.787 68.6391C335.191 68.6391 336.227 68.264 336.895 67.5137C337.563 66.7634 338.822 66.3883 340.672 66.3883C342.522 66.3883 343.78 66.7634 344.448 67.5137C345.116 68.264 346.153 68.6391 347.557 68.6391C348.961 68.6391 349.963 68.264 350.563 67.5137C351.162 66.7634 352.387 66.3883 354.237 66.3883C356.086 66.3883 357.431 66.7634 358.27 67.5137C359.109 68.264 360.094 68.6391 361.225 68.6391V71.7084C359.375 71.7084 358.099 71.3332 357.397 70.583C356.694 69.8327 355.641 69.4576 354.237 69.4576C352.832 69.4576 351.83 69.8327 351.231 70.583C350.631 71.3332 349.407 71.7084 347.557 71.7084C345.707 71.7084 344.448 71.3332 343.78 70.583C343.113 69.8327 342.076 69.4576 340.672 69.4576C339.267 69.4576 338.231 69.8327 337.563 70.583C336.895 71.3332 335.636 71.7084 333.787 71.7084C331.937 71.7084 330.712 71.3332 330.113 70.583C329.513 69.8327 328.512 69.4576 327.107 69.4576C325.703 69.4576 324.652 69.8327 323.954 70.583C323.257 71.3332 321.979 71.7084 320.119 71.7084ZM323.202 85.1109C322.38 85.1109 321.661 84.8039 321.044 84.1901C320.427 83.5762 320.119 82.8601 320.119 82.0416V75.4938H361.225V82.0416C361.225 82.8601 360.916 83.5762 360.3 84.1901C359.683 84.8039 358.964 85.1109 358.142 85.1109H323.202ZM323.202 82.0416H358.142V78.5631H323.202V82.0416Z" fill="black" fill-opacity="0.15"/>
<path d="M334.756 126.302H345.696V123.355L347.599 122.566C350.206 121.479 352.338 120.058 353.994 118.304C355.65 116.55 356.83 114.639 357.535 112.569H322.918C323.623 114.639 324.82 116.559 326.512 118.33C328.203 120.102 330.317 121.514 332.854 122.566L334.756 123.355V126.302ZM331.585 129.459V125.355C327.886 123.881 324.944 121.742 322.759 118.935C320.575 116.129 319.359 112.972 319.113 109.465H322.918V91.6277L361.393 87.3658V89.9966L336.13 92.7853V97.3629H361.393V99.9937H336.13V109.465H361.34C361.128 112.972 359.913 116.129 357.693 118.935C355.473 121.742 352.531 123.881 348.867 125.355V129.459H331.585ZM330.845 97.3629H333.488V93.0484L330.845 93.3641V97.3629ZM325.56 97.3629H328.203V93.6271L325.56 93.926V97.3629ZM330.845 109.465H333.488V99.9937H330.845V109.465ZM325.56 109.465H328.203V99.9937H325.56V109.465Z" fill="black" fill-opacity="0.15"/>
<path d="M343.633 157.953C343.015 156.211 341.745 154.81 339.824 153.751C337.902 152.692 335.208 152.162 331.742 152.162C328.275 152.162 325.581 152.692 323.66 153.751C321.738 154.81 320.451 156.211 319.799 157.953H343.633ZM316.093 161.028C316.093 159.388 316.393 157.842 316.993 156.39C317.594 154.938 318.538 153.674 319.825 152.598C321.112 151.522 322.742 150.668 324.715 150.035C326.688 149.403 329.039 149.087 331.767 149.087C334.496 149.087 336.838 149.403 338.794 150.035C340.75 150.668 342.372 151.522 343.659 152.598C344.945 153.674 345.889 154.938 346.49 156.39C347.09 157.842 347.391 159.388 347.391 161.028H316.093ZM316.093 167.588V164.513H347.391V167.588H316.093ZM350.479 174.558V171.483H354.906L357.841 141.759H337.353L336.992 138.684H347.545V129.459H350.634V138.684H361.392L357.943 171.483C357.841 172.372 357.472 173.106 356.837 173.687C356.202 174.268 355.404 174.558 354.443 174.558H350.479ZM317.637 174.558C317.225 174.558 316.865 174.405 316.556 174.097C316.247 173.79 316.093 173.431 316.093 173.021V171.483H347.391V173.021C347.391 173.431 347.236 173.79 346.927 174.097C346.618 174.405 346.258 174.558 345.846 174.558H317.637Z" fill="black" fill-opacity="0.15"/>
<path d="M332.64 550.137C331.885 548.007 330.333 546.295 327.984 545.001C325.635 543.706 322.342 543.059 318.106 543.059C313.869 543.059 310.577 543.706 308.228 545.001C305.879 546.295 304.306 548.007 303.509 550.137H332.64ZM298.979 553.895C298.979 551.891 299.346 550.001 300.08 548.227C300.814 546.452 301.968 544.907 303.541 543.591C305.114 542.276 307.106 541.232 309.518 540.46C311.93 539.687 314.803 539.301 318.137 539.301C321.472 539.301 324.335 539.687 326.725 540.46C329.116 541.232 331.098 542.276 332.671 543.591C334.244 544.907 335.397 546.452 336.131 548.227C336.865 550.001 337.232 551.891 337.232 553.895H298.979ZM298.979 561.913V558.155H337.232V561.913H298.979ZM341.007 570.432V566.674H346.418L350.005 530.343H324.964L324.523 526.585H337.421V515.31H341.196V526.585H354.346L350.13 566.674C350.005 567.759 349.554 568.657 348.778 569.367C348.002 570.077 347.027 570.432 345.852 570.432H341.007ZM300.867 570.432C300.363 570.432 299.923 570.244 299.545 569.868C299.168 569.492 298.979 569.054 298.979 568.553V566.674H337.232V568.553C337.232 569.054 337.044 569.492 336.666 569.868C336.289 570.244 335.848 570.432 335.345 570.432H300.867Z" fill="black" fill-opacity="0.15"/>
<path d="M320.945 223.667L318.412 221.144L343.738 195.915C342.854 193.992 342.653 192 343.135 189.938C343.617 187.875 344.763 185.943 346.572 184.141C348.381 182.379 350.572 181.248 353.145 180.747C355.717 180.246 357.828 180.817 359.476 182.459C361.164 184.141 361.737 186.243 361.195 188.766C360.652 191.289 359.436 193.512 357.546 195.434C355.898 197.116 354.059 198.217 352.029 198.738C349.999 199.258 348.1 199.138 346.331 198.377L342.291 202.402L361.104 221.144L358.572 223.667L339.758 204.925L320.945 223.667ZM328.482 202.582L321.307 195.434C319.256 193.392 318.191 190.969 318.111 188.166C318.03 185.362 318.955 182.879 320.885 180.717L335.658 195.434L328.482 202.582Z" fill="black" fill-opacity="0.15"/>
<path d="M251.346 74.4539L257.234 41.839C253.843 40.1549 251.634 37.5315 250.608 33.9686C249.581 30.4058 250.272 26.998 252.679 23.7452C254.123 21.7936 256.134 20.3246 258.712 19.3383C261.29 18.352 263.974 18.3802 266.764 19.423C270.638 15.6406 275.117 13.6064 280.201 13.3206C285.285 13.0348 289.809 14.3456 293.773 17.253C297.737 20.1605 300.325 24.0655 301.536 28.9682C302.747 33.8708 302.134 38.7405 299.698 43.5773C301.525 45.9212 302.348 48.465 302.166 51.2085C301.984 53.9521 301.171 56.2997 299.727 58.2513C297.32 61.5041 294.212 63.1387 290.403 63.155C286.593 63.1714 283.509 61.9129 281.15 59.3796L251.346 74.4539ZM257.886 36.5973C258.671 37.1724 259.491 37.6071 260.349 37.9015C261.206 38.1958 261.976 38.2916 262.656 38.1888L265.655 37.6784L266.195 40.0818C266.739 41.6178 267.581 42.9547 268.722 44.0924C269.862 45.2301 270.977 46.1983 272.066 46.997C273.155 47.7958 274.338 48.5129 275.615 49.1485C276.892 49.784 278.348 50.1325 279.983 50.194L282.514 50.0431L282.848 52.9977C282.951 53.6756 283.282 54.3865 283.84 55.1305C284.399 55.8746 285.048 56.5182 285.789 57.0613C287.27 58.1476 289.029 58.5178 291.066 58.1718C293.103 57.8258 294.683 56.8938 295.806 55.3758C296.801 54.0313 297.253 52.5568 297.164 50.9522C297.074 49.3477 296.363 47.8562 295.031 46.4777L292.985 44.475L294.732 41.842C296.788 38.0643 297.51 34.2953 296.899 30.535C296.287 26.7747 294.283 23.6485 290.885 21.1564C287.487 18.6643 283.883 17.6769 280.072 18.1943C276.262 18.7116 272.872 20.5237 269.901 23.6305L267.827 26.0238L265.155 24.8669C263.592 24.2554 262.023 24.0587 260.451 24.2768C258.878 24.4949 257.594 25.2763 256.599 26.6207C255.476 28.1387 255.05 29.9174 255.322 31.9567C255.594 33.9961 256.449 35.5429 257.886 36.5973ZM257.893 65.6063L278.388 55.3468L278.285 54.6689C276.583 54.4249 274.913 53.9355 273.272 53.2007C271.632 52.4659 270.267 51.6991 269.178 50.9004C267.784 49.878 266.48 48.6878 265.268 47.3298C264.055 45.9719 263.144 44.5683 262.537 43.119L261.904 43.1567L257.893 65.6063Z" fill="black" fill-opacity="0.15"/>
<path fill-rule="evenodd" clip-rule="evenodd" d="M1.00771 30.0629C1.00771 25.8191 1.67119 22.2585 2.99827 19.3813C4.40826 16.4322 6.3989 14.0585 8.97011 12.2603C11.5413 10.462 14.6516 9.1673 18.301 8.3761C21.9505 7.58486 26.0561 7.18921 30.6179 7.18921C34.7649 7.18921 38.29 7.441 41.1929 7.9445C44.1788 8.37607 46.5012 8.8796 48.16 9.45507C50.3165 10.2463 51.5606 11.1813 51.8924 12.2603C52.3071 13.3392 52.5145 14.3822 52.5145 15.3893V23.1577C50.6068 23.0856 48.9065 23.0137 47.4135 22.9422C45.9205 22.7986 44.4691 22.7267 43.0591 22.7267C41.6491 22.6547 40.2391 22.6186 38.8291 22.6186C37.4191 22.5466 35.8846 22.5105 34.2258 22.5105C31.6546 22.5105 29.5396 22.6544 27.8808 22.9421C26.3049 23.2298 25.0608 23.6254 24.1484 24.1289C23.2361 24.6324 22.614 25.2798 22.2822 26.071C21.9505 26.8622 21.7846 27.7254 21.7846 28.6605C21.7846 29.7394 21.909 30.6745 22.1577 31.4658C22.4895 32.1851 23.07 32.8684 23.8994 33.5158C24.8118 34.1632 26.0974 34.8465 27.7562 35.5658C29.498 36.2851 31.8204 37.1842 34.7233 38.2632C38.5386 39.7017 41.7319 41.1044 44.3031 42.4711C46.9572 43.8377 49.0723 45.3842 50.6481 47.1105C52.307 48.8368 53.4681 50.8509 54.1317 53.1526C54.8781 55.4544 55.2514 58.2237 55.2514 61.4605C55.2514 65.5605 54.7123 69.085 53.6341 72.0341C52.5558 74.9113 50.814 77.321 48.4087 79.2631C46.0864 81.1333 43.059 82.5 39.3266 83.3631C35.5942 84.2982 31.0324 84.7657 25.6412 84.7657C21.66 84.7657 17.9277 84.5499 14.4441 84.1184C10.9606 83.7587 8.26492 83.2553 6.35729 82.6079C4.61552 82.0325 3.41283 81.3131 2.74926 80.45C2.08575 79.5149 1.75398 78.4359 1.75398 77.2131L1.75398 68.4737C4.98869 68.6894 8.14048 68.8692 11.2093 69.0132C14.2782 69.0853 17.43 69.1213 20.6647 69.1213C23.4847 69.1213 25.7656 68.9774 27.5074 68.6897C29.3321 68.402 30.7007 68.0064 31.6131 67.5028C32.6084 66.9274 33.2719 66.2441 33.6037 65.4529C33.9354 64.5897 34.1012 63.6546 34.1012 62.6476C34.1012 61.3529 33.8939 60.3099 33.4792 59.5187C33.0645 58.6555 32.3181 57.9002 31.2398 57.2529C30.2445 56.5336 28.8345 55.8503 27.0098 55.2029C25.268 54.4836 23.0285 53.6204 20.2914 52.6134C16.3932 51.2467 13.2 49.8441 10.7117 48.4056C8.22345 46.9669 6.27431 45.3485 4.86433 43.5503C3.45428 41.7521 2.45903 39.774 1.87848 37.6161C1.29787 35.3863 1.00771 32.8682 1.00771 30.0629Z" fill="black" fill-opacity="0.15"/>
<path fill-rule="evenodd" clip-rule="evenodd" d="M111.865 84.766L96.9904 84.766C95.9046 84.766 94.9999 84.3555 94.2761 83.5346C93.6246 82.7137 93.1179 81.7809 92.756 80.736C91.3084 76.9299 89.8245 73.0865 88.3045 69.2058C86.7845 65.2504 85.2284 61.4071 83.636 57.6756C82.1159 53.9441 80.5959 50.3619 79.0759 46.9289C77.6282 43.496 76.2168 40.4362 74.8416 37.7496L74.8416 84.766H61.5958C58.9177 84.766 57.5786 83.46 57.5786 80.848L57.5786 7.18886L71.8016 7.18886C72.8873 7.18886 73.8283 7.59933 74.6245 8.42025C75.4207 9.24118 76.0721 10.174 76.5788 11.2188C77.8092 13.8309 79.1844 16.7787 80.7044 20.0623C82.2968 23.3461 83.8893 26.779 85.4817 30.3613C87.0741 33.9434 88.6665 37.6003 90.2589 41.3318C91.8513 44.9886 93.2989 48.5335 94.6017 51.9664V7.18886L107.848 7.18886C110.526 7.18886 111.865 8.49485 111.865 11.1069L111.865 84.766Z" fill="black" fill-opacity="0.15"/>
<path fill-rule="evenodd" clip-rule="evenodd" d="M147.89 65.7355H133.275C132.857 69.1685 132.475 72.5641 132.127 75.9224C131.779 79.2808 131.535 82.2286 131.396 84.766H117.407C116.432 84.766 115.632 84.4302 115.006 83.7585C114.449 83.0869 114.171 81.9674 114.171 80.4002C114.171 79.7286 114.206 79.0196 114.275 78.2732C114.345 77.5269 114.449 76.818 114.588 76.1463C116.467 63.9071 118.59 52.153 120.957 40.884C123.323 29.615 126.316 18.3833 129.935 7.18886L148.83 7.18886C150.222 7.18886 151.197 7.56199 151.753 8.30828C152.31 9.05457 152.728 9.83816 153.006 10.6591C156.138 20.6594 158.991 32.0031 161.567 44.69C164.142 57.3024 166.438 70.661 168.457 84.766L153.424 84.766C151.196 84.766 149.909 83.4226 149.561 80.736L147.89 65.7355ZM140.583 21.5177C139.121 27.7866 137.938 33.3464 137.033 38.1973C136.198 42.9736 135.398 47.5261 134.632 51.8545L146.533 51.8545C145.768 47.5261 144.933 42.9736 144.028 38.1973C143.193 33.3464 142.044 27.7866 140.583 21.5177Z" fill="black" fill-opacity="0.15"/>
<path fill-rule="evenodd" clip-rule="evenodd" d="M175.11 84.7659C172.212 84.7659 170.762 83.4785 170.762 80.9036V9.61656C175.149 8.80733 179.575 8.21884 184.04 7.851C188.584 7.40958 192.618 7.18886 196.143 7.18886C201.078 7.18886 205.347 7.63027 208.951 8.51309C212.632 9.3959 215.648 10.8305 217.998 12.8168C220.427 14.8031 222.189 17.4148 223.286 20.6517C224.461 23.8887 225.048 27.8614 225.048 32.5698C225.048 41.6922 222.973 48.3132 218.821 52.4329C214.747 56.4791 208.676 58.5023 200.608 58.5023C198.65 58.5023 196.77 58.4287 194.968 58.2816C193.244 58.0607 191.834 57.8401 190.738 57.6196V84.766L175.11 84.7659ZM190.738 44.0462C191.678 44.1934 192.539 44.3038 193.323 44.3775C194.106 44.4512 194.85 44.488 195.555 44.488C197.279 44.488 198.728 44.3409 199.903 44.0467C201.156 43.6788 202.175 43.0535 202.958 42.1707C203.741 41.2143 204.329 39.9637 204.72 38.4188C205.112 36.8738 205.308 34.8875 205.308 32.4597C205.308 30.1791 205.112 28.3032 204.72 26.8319C204.407 25.3605 203.898 24.2202 203.193 23.4109C202.488 22.5282 201.548 21.9397 200.373 21.6454C199.276 21.3511 197.984 21.204 196.495 21.204C195.79 21.204 194.811 21.2408 193.558 21.3145C192.304 21.3145 191.364 21.3514 190.738 21.4251V44.0462Z" fill="black" fill-opacity="0.15"/>
<path fill-rule="evenodd" clip-rule="evenodd" d="M76.9418 148.105H83.6267C86.9308 148.105 89.2743 147.398 90.6574 145.984C92.1173 144.499 92.8473 142.131 92.8473 138.878C92.8473 135.485 92.0405 133.116 90.427 131.773C88.8902 130.359 86.2392 129.652 82.4741 129.652H76.9418L76.9418 148.105ZM76.9418 117.137H82.9352C85.8551 117.137 87.9296 116.572 89.159 115.44C90.4653 114.239 91.1185 111.941 91.1185 108.547C91.1185 105.224 90.5037 102.997 89.2743 101.866C88.0449 100.664 85.855 100.063 82.7046 100.063C81.9362 100.063 80.9373 100.098 79.7079 100.169C78.4785 100.169 77.5565 100.204 76.9418 100.275V117.137ZM57.5786 88.9271C61.8815 88.1494 66.146 87.5838 70.3721 87.2303C74.675 86.8061 78.5554 86.594 82.0131 86.594C86.2392 86.594 90.0811 86.9475 93.5388 87.6545C96.9965 88.2908 99.9164 89.422 102.298 91.0482C104.757 92.6037 106.64 94.6893 107.946 97.3053C109.252 99.8506 109.905 102.997 109.905 106.744C109.905 110.703 109.06 113.991 107.37 116.607C105.756 119.223 102.99 121.45 99.0712 123.288C101.684 124.278 103.835 125.445 105.526 126.788C107.216 128.061 108.522 129.51 109.444 131.136C110.366 132.692 110.981 134.318 111.288 136.015C111.673 137.712 111.865 139.408 111.865 141.105C111.865 145.065 111.173 148.317 109.79 150.862C108.407 153.408 106.524 155.458 104.142 157.013C101.76 158.569 98.9559 159.665 95.7287 160.301C92.5015 160.867 89.0438 161.149 85.3556 161.149H61.8431C59.0001 161.149 57.5786 159.912 57.5786 157.438L57.5786 88.9271Z" fill="black" fill-opacity="0.15"/>
<path fill-rule="evenodd" clip-rule="evenodd" d="M118.292 161.149C115.285 161.149 113.782 159.894 113.782 157.384L113.782 86.5928H130.601C133.607 86.5928 135.11 87.8479 135.11 90.3583V161.149H118.292Z" fill="black" fill-opacity="0.15"/>
<path fill-rule="evenodd" clip-rule="evenodd" d="M157.25 101.977H141.618C138.558 101.977 137.029 100.722 137.029 98.212V86.5928L194.466 86.5928C197.526 86.5928 199.056 87.8479 199.056 90.3583V101.977L178.959 101.977V161.149H161.84C158.78 161.149 157.25 159.894 157.25 157.384V101.977Z" fill="black" fill-opacity="0.15"/>
<path fill-rule="evenodd" clip-rule="evenodd" d="M247.495 86.5928C250.555 86.5928 252.085 87.8479 252.085 90.3583V101.44L222.064 101.44V115.641H243.897C246.957 115.641 248.487 116.896 248.487 119.406V130.488H222.064V146.303H248.736C251.796 146.303 253.326 147.558 253.326 150.068V161.149H205.564C202.504 161.149 200.974 159.894 200.974 157.384V86.5928L247.495 86.5928Z" fill="black" fill-opacity="0.15"/>
<path fill-rule="evenodd" clip-rule="evenodd" d="M255.244 113.31C255.244 107.977 255.971 103.503 257.426 99.8867C258.972 96.1806 261.154 93.1976 263.973 90.9377C266.792 88.6778 270.202 87.0507 274.203 86.0564C278.204 85.0621 282.705 84.5649 287.706 84.5649C292.253 84.5649 296.118 84.8812 299.3 85.514C302.574 86.0564 305.12 86.6892 306.938 87.4124C309.303 88.4067 310.667 89.5817 311.031 90.9377C311.485 92.2936 311.713 93.6044 311.713 94.8699V104.633C309.621 104.542 307.757 104.452 306.12 104.362C304.483 104.181 302.892 104.091 301.346 104.091C299.8 104.001 298.255 103.956 296.709 103.956C295.163 103.865 293.481 103.82 291.662 103.82C288.843 103.82 286.524 104.001 284.706 104.362C282.978 104.724 281.614 105.221 280.614 105.854C279.613 106.487 278.931 107.3 278.568 108.295C278.204 109.289 278.022 110.374 278.022 111.549C278.022 112.905 278.158 114.08 278.431 115.074C278.796 115.978 279.432 116.837 280.341 117.65C281.341 118.464 282.751 119.323 284.57 120.227C286.479 121.131 289.025 122.261 292.208 123.616C296.391 125.424 299.878 127.206 302.71 128.905C305.607 130.641 307.91 132.586 309.667 134.735C311.457 136.925 312.758 139.435 313.486 142.328C314.304 145.221 314.209 149.016 314.209 153.083C314.209 158.236 313.618 162.665 312.435 166.371C311.253 169.987 308.839 172.543 306.202 174.984C303.656 177.334 301.287 178.319 297.195 179.403C293.103 180.579 287.423 180.409 281.513 180.409C277.148 180.409 271.613 180.409 267.595 180.409C263.576 180.409 129.378 180.409 126.933 180.409C124.923 180.409 3.01601 180.572 1.00659 180.572C1.00659 179.238 1.0236 172.772 1.00672 171.236L1.00672 163.233C5.02551 163.233 123.4 163.603 126.933 163.233C130.297 163.324 269.416 163.233 272.953 163.233C274.293 163.233 280.991 163.233 285.155 163.039C287.713 162.439 288.43 161.602 289.388 160.86C290.245 160.2 290.616 158.78 290.98 157.786C291.344 156.701 291.526 155.526 291.526 154.26C291.526 152.633 291.298 151.322 290.844 150.328C290.389 149.243 289.571 148.294 288.389 147.481C287.297 146.577 285.751 145.718 283.751 144.904C281.841 144.001 279.386 142.916 276.386 141.65C272.112 139.933 268.611 138.17 265.883 136.362C263.155 134.554 261.018 132.52 259.472 130.261C257.926 128.001 256.835 125.515 256.199 122.803C255.562 120.001 255.244 116.836 255.244 113.31Z" fill="black" fill-opacity="0.15"/>
<path fill-rule="evenodd" clip-rule="evenodd" d="M3.15842 149.677C2.47359 149.549 2.03053 149.316 1.60179 148.859C1.1364 148.362 0.992575 147.856 1.00765 146.758C1.0216 145.337 1.12855 145.106 2.12907 144.228C5.97113 140.855 23.4277 125.766 23.5017 125.755C23.5519 125.747 24.3475 126.589 25.2667 127.626L26.938 129.511L24.4976 131.852C23.1554 133.139 18.4655 137.643 14.0756 141.861L6.09408 149.529L5.35172 149.652C4.47327 149.797 3.83795 149.805 3.15842 149.677ZM48.334 149.863C48.0428 149.806 47.7434 149.695 47.6671 149.619C47.5918 149.542 45.6236 147.318 43.2945 144.676C39.4751 140.344 35.7026 136.075 27.5432 126.851C26.0426 125.155 24.7853 123.726 24.7493 123.677C24.712 123.628 24.1781 123.506 23.5594 123.405C21.9965 123.153 19.8445 122.47 18.1432 121.687C16.5683 120.962 14.1016 119.473 12.5282 118.299C11.1815 117.293 8.52694 114.8 7.42463 113.504C5.01904 110.677 3.25799 107.505 2.56534 104.751C2.31506 103.758 2.31645 101.107 2.56896 100.447C2.82436 99.7769 3.34349 98.7453 3.42611 98.7457C3.46333 98.7458 14.6402 109.176 28.2563 121.923L53.013 145.101L53.0931 145.706C53.375 147.849 52.9233 149.066 51.6121 149.692C51.0654 149.952 49.2674 150.048 48.334 149.863ZM31.4555 121.909L29.7434 120.301L30.768 119.4C31.332 118.905 32.4367 117.935 33.2237 117.245C34.6545 115.99 34.6548 115.99 34.5111 115.655C33.8356 114.082 33.7693 112.919 34.3017 111.965C34.4938 111.619 36.6169 109.612 41.3695 105.283L48.1619 99.0958L49.0512 99.9225L49.9404 100.749L45.693 104.611L41.4456 108.473L42.242 109.218L43.0383 109.964L47.2258 106.159C49.5288 104.066 51.4678 102.354 51.5347 102.354C51.5994 102.354 52.0265 102.703 52.4781 103.129L53.2994 103.904L49.0541 107.764L44.8087 111.624L45.605 112.37L46.4015 113.115L50.6492 109.255L54.8968 105.395L55.6936 106.14L56.49 106.886L49.6874 113.07C42.4874 119.616 42.4973 119.608 41.2274 119.763C40.6022 119.839 39.5489 119.648 38.5825 119.283L37.8703 119.013L36.3054 120.523C35.4448 121.353 34.3868 122.366 33.9545 122.775L33.1682 123.517L31.4555 121.909Z" fill="black" fill-opacity="0.15"/>
<path fill-rule="evenodd" clip-rule="evenodd" d="M125.834 201.68C125.834 198.488 126.333 195.811 127.331 193.647C128.391 191.429 129.889 189.643 131.822 188.291C133.756 186.938 136.095 185.965 138.84 185.37C141.585 184.775 144.673 184.477 148.104 184.477C151.223 184.477 153.874 184.666 156.057 185.045C158.303 185.37 160.049 185.748 161.297 186.181C162.919 186.776 163.854 187.479 164.104 188.291C164.416 189.102 164.572 189.887 164.572 190.644V196.487C163.137 196.433 161.858 196.379 160.735 196.325C159.613 196.217 158.521 196.163 157.461 196.163C156.4 196.108 155.34 196.081 154.279 196.081C153.219 196.027 152.065 196 150.817 196C148.883 196 147.293 196.108 146.045 196.325C144.86 196.541 143.924 196.839 143.238 197.217C142.552 197.596 142.084 198.083 141.834 198.678C141.585 199.273 141.46 199.922 141.46 200.625C141.46 201.437 141.554 202.14 141.741 202.735C141.99 203.276 142.427 203.79 143.051 204.277C143.737 204.764 144.704 205.278 145.951 205.819C147.261 206.36 149.008 207.036 151.191 207.847C154.061 208.929 156.462 209.984 158.396 211.012C160.392 212.04 161.983 213.203 163.168 214.502C164.416 215.8 165.289 217.315 165.788 219.046C166.35 220.777 166.63 222.86 166.63 225.294C166.63 228.378 166.225 231.028 165.414 233.246C164.603 235.41 163.293 237.223 161.484 238.683C159.737 240.09 157.46 241.118 154.653 241.767C151.846 242.47 148.415 242.822 144.361 242.822C141.366 242.822 138.559 242.659 135.939 242.335C133.319 242.064 131.292 241.686 129.857 241.199C128.547 240.766 127.643 240.225 127.144 239.576C126.645 238.873 126.395 238.061 126.395 237.141V230.569C128.828 230.731 131.198 230.866 133.507 230.974C135.815 231.029 138.185 231.056 140.618 231.056C142.739 231.056 144.454 230.947 145.764 230.731C147.137 230.515 148.166 230.217 148.852 229.838C149.601 229.406 150.1 228.892 150.349 228.297C150.599 227.647 150.723 226.944 150.723 226.187C150.723 225.213 150.567 224.429 150.256 223.834C149.944 223.184 149.382 222.616 148.571 222.13C147.823 221.589 146.762 221.075 145.39 220.588C144.08 220.047 142.396 219.398 140.337 218.64C137.405 217.612 135.004 216.557 133.132 215.476C131.261 214.394 129.795 213.176 128.735 211.824C127.674 210.471 126.925 208.984 126.489 207.361C126.052 205.684 125.834 203.79 125.834 201.68Z" fill="black" fill-opacity="0.15"/>
<path fill-rule="evenodd" clip-rule="evenodd" d="M209.208 242.822H198.022C197.205 242.822 196.525 242.513 195.98 241.896C195.49 241.278 195.109 240.577 194.837 239.791C193.748 236.928 192.632 234.038 191.489 231.119C190.346 228.144 189.176 225.254 187.978 222.447C186.835 219.641 185.691 216.947 184.548 214.365C183.46 211.783 182.398 209.482 181.364 207.461V242.822H171.402C169.387 242.822 168.38 241.84 168.38 239.875V184.477H179.077C179.894 184.477 180.602 184.785 181.2 185.403C181.799 186.02 182.289 186.722 182.67 187.508C183.596 189.472 184.63 191.689 185.773 194.159C186.971 196.628 188.168 199.21 189.366 201.904C190.564 204.599 191.761 207.349 192.959 210.155C194.157 212.906 195.245 215.572 196.225 218.154V184.477H206.187C208.201 184.477 209.208 185.459 209.208 187.423V242.822Z" fill="black" fill-opacity="0.15"/>
<path fill-rule="evenodd" clip-rule="evenodd" d="M236.303 228.509H225.311C224.997 231.091 224.709 233.645 224.448 236.171C224.186 238.696 224.003 240.914 223.898 242.822H213.377C212.644 242.822 212.042 242.569 211.571 242.064C211.152 241.559 210.943 240.717 210.943 239.538C210.943 239.033 210.969 238.5 211.022 237.939C211.074 237.377 211.153 236.844 211.257 236.339C212.67 227.134 214.267 218.294 216.046 209.819C217.826 201.343 220.077 192.896 222.799 184.477H237.01C238.057 184.477 238.79 184.757 239.209 185.319C239.627 185.88 239.941 186.469 240.151 187.087C242.506 194.608 244.652 203.139 246.589 212.681C248.526 222.167 250.253 232.214 251.771 242.822H240.465C238.79 242.822 237.821 241.812 237.56 239.791L236.303 228.509ZM230.807 195.253C229.708 199.968 228.818 204.15 228.138 207.798C227.51 211.39 226.908 214.814 226.332 218.069H235.283C234.707 214.814 234.079 211.39 233.398 207.798C232.77 204.15 231.906 199.968 230.807 195.253Z" fill="black" fill-opacity="0.15"/>
<path fill-rule="evenodd" clip-rule="evenodd" d="M256.775 242.822C254.595 242.822 253.505 241.854 253.505 239.917V186.303C256.804 185.694 260.133 185.251 263.491 184.975C266.908 184.643 269.942 184.477 272.593 184.477C276.305 184.477 279.516 184.809 282.226 185.473C284.995 186.137 287.263 187.216 289.031 188.709C290.857 190.203 292.183 192.168 293.007 194.602C293.891 197.037 294.333 200.024 294.333 203.566C294.333 210.426 292.772 215.406 289.649 218.504C286.586 221.548 282.02 223.069 275.951 223.069C274.479 223.069 273.065 223.014 271.71 222.903C270.414 222.737 269.353 222.571 268.528 222.405V242.822L256.775 242.822ZM268.528 212.197C269.235 212.307 269.883 212.391 270.472 212.446C271.062 212.501 271.621 212.529 272.151 212.529C273.448 212.529 274.538 212.418 275.421 212.197C276.364 211.92 277.13 211.45 277.719 210.786C278.308 210.067 278.75 209.126 279.045 207.964C279.339 206.803 279.486 205.309 279.486 203.483C279.486 201.768 279.339 200.357 279.045 199.25C278.809 198.143 278.426 197.286 277.896 196.677C277.366 196.013 276.658 195.571 275.775 195.349C274.95 195.128 273.978 195.017 272.859 195.017C272.328 195.017 271.592 195.045 270.649 195.1C269.707 195.1 269 195.128 268.528 195.184V212.197Z" fill="black" fill-opacity="0.15"/>
<path fill-rule="evenodd" clip-rule="evenodd" d="M182.943 290.459H187.971C190.456 290.459 192.218 289.927 193.259 288.863C194.357 287.747 194.906 285.965 194.906 283.519C194.906 280.967 194.299 279.186 193.085 278.175C191.93 277.112 189.936 276.58 187.104 276.58H182.943V290.459ZM182.943 267.168H187.451C189.647 267.168 191.207 266.743 192.132 265.892C193.114 264.988 193.605 263.26 193.605 260.707C193.605 258.208 193.143 256.533 192.218 255.682C191.294 254.778 189.647 254.326 187.277 254.326C186.7 254.326 185.948 254.353 185.024 254.406C184.099 254.406 183.406 254.433 182.943 254.486V267.168ZM168.38 245.951C171.617 245.366 174.824 244.941 178.002 244.675C181.238 244.356 184.157 244.197 186.757 244.197C189.936 244.197 192.825 244.463 195.426 244.994C198.026 245.473 200.222 246.324 202.014 247.547C203.863 248.716 205.279 250.285 206.261 252.253C207.244 254.167 207.735 256.533 207.735 259.351C207.735 262.329 207.099 264.802 205.828 266.769C204.614 268.737 202.534 270.412 199.587 271.794C201.552 272.539 203.17 273.416 204.441 274.426C205.712 275.384 206.695 276.474 207.388 277.697C208.082 278.866 208.544 280.09 208.775 281.366C209.064 282.642 209.208 283.918 209.208 285.194C209.208 288.172 208.688 290.618 207.648 292.532C206.608 294.447 205.192 295.989 203.401 297.159C201.609 298.328 199.5 299.153 197.073 299.631C194.646 300.057 192.045 300.269 189.271 300.269H171.588C169.449 300.269 168.38 299.339 168.38 297.478V245.951Z" fill="black" fill-opacity="0.15"/>
<path fill-rule="evenodd" clip-rule="evenodd" d="M214.042 300.269C211.781 300.269 210.651 299.325 210.651 297.437V244.196H223.3C225.561 244.196 226.691 245.14 226.691 247.028V300.269H214.042Z" fill="black" fill-opacity="0.15"/>
<path fill-rule="evenodd" clip-rule="evenodd" d="M243.342 255.766H231.586C229.285 255.766 228.134 254.822 228.134 252.934V244.196H271.333C273.634 244.196 274.785 245.14 274.785 247.028V255.766H259.67V300.269H246.794C244.493 300.269 243.342 299.325 243.342 297.437V255.766Z" fill="black" fill-opacity="0.15"/>
<path fill-rule="evenodd" clip-rule="evenodd" d="M311.215 244.196C313.517 244.196 314.667 245.14 314.667 247.028V255.362H292.088V266.043H308.509C310.811 266.043 311.962 266.987 311.962 268.875V277.209H292.088V289.103H312.148C314.45 289.103 315.6 290.047 315.6 291.935V300.269H279.679C277.378 300.269 276.227 299.325 276.227 297.437V244.196H311.215Z" fill="black" fill-opacity="0.15"/>
<path fill-rule="evenodd" clip-rule="evenodd" d="M317.043 264.29C317.043 260.279 317.59 256.913 318.684 254.194C319.847 251.407 321.488 249.163 323.608 247.463C325.728 245.764 328.293 244.54 331.302 243.792C334.311 243.044 337.696 242.671 341.458 242.671C344.877 242.671 347.784 242.908 350.177 243.384C352.639 243.792 354.554 244.268 355.922 244.812C357.7 245.56 358.726 246.444 359 247.463C359.342 248.483 359.513 249.469 359.513 250.421V257.763C357.94 257.695 356.538 257.627 355.307 257.56C354.076 257.424 352.879 257.356 351.716 257.356C350.554 257.288 349.391 257.254 348.228 257.254C347.066 257.186 345.801 257.152 344.433 257.152C342.313 257.152 340.569 257.288 339.201 257.56C337.902 257.832 336.876 258.206 336.123 258.682C335.371 259.158 334.858 259.77 334.585 260.517C334.311 261.265 334.174 262.081 334.174 262.965C334.174 263.985 334.277 264.868 334.482 265.616C334.756 266.296 335.235 266.942 335.918 267.554C336.671 268.166 337.731 268.812 339.099 269.491C340.535 270.171 342.45 271.021 344.843 272.041C347.989 273.401 350.612 274.741 352.742 276.018C354.921 277.324 356.653 278.787 357.974 280.403C359.32 282.05 360.299 283.938 360.846 286.114C361.462 288.289 361.39 291.144 361.39 294.203C361.39 298.078 360.945 301.409 360.056 304.197C359.167 306.916 357.351 308.838 355.368 310.674C353.453 312.442 351.672 313.182 348.594 313.998C345.517 314.882 341.245 314.754 336.8 314.754C333.517 314.754 329.354 314.754 326.332 314.754C323.309 314.754 222.38 314.754 220.541 314.754C219.03 314.754 127.344 314.876 125.833 314.876C125.833 313.873 125.846 309.011 125.833 307.855V301.836C128.856 301.836 217.884 302.115 220.541 301.836C223.071 301.904 327.702 301.836 330.362 301.836C331.37 301.836 336.407 301.836 339.539 301.69C341.463 301.239 342.002 300.61 342.723 300.051C343.367 299.555 343.646 298.487 343.92 297.739C344.194 296.924 344.33 296.04 344.33 295.088C344.33 293.864 344.159 292.878 343.817 292.131C343.475 291.315 342.86 290.601 341.971 289.989C341.15 289.309 339.988 288.663 338.483 288.051C337.047 287.372 335.2 286.556 332.943 285.604C329.729 284.312 327.096 282.987 325.044 281.627C322.993 280.267 321.386 278.737 320.223 277.038C319.06 275.338 318.24 273.469 317.761 271.429C317.282 269.322 317.043 266.941 317.043 264.29Z" fill="black" fill-opacity="0.15"/>
<path fill-rule="evenodd" clip-rule="evenodd" d="M127.451 291.641C126.936 291.545 126.603 291.369 126.281 291.026C125.931 290.652 125.822 290.271 125.834 289.445C125.844 288.377 125.925 288.203 126.677 287.543C129.567 285.006 142.696 273.658 142.751 273.649C142.789 273.643 143.388 274.276 144.079 275.056L145.336 276.474L143.5 278.235C142.491 279.203 138.964 282.59 135.662 285.762L129.659 291.529L129.101 291.622C128.44 291.731 127.962 291.737 127.451 291.641ZM161.428 291.781C161.209 291.738 160.983 291.655 160.926 291.597C160.869 291.54 159.389 289.867 157.637 287.88C154.765 284.622 151.928 281.411 145.791 274.474C144.662 273.198 143.717 272.124 143.69 272.087C143.662 272.05 143.26 271.958 142.795 271.882C141.619 271.693 140.001 271.179 138.721 270.59C137.537 270.044 135.682 268.925 134.498 268.042C133.485 267.285 131.489 265.41 130.66 264.436C128.851 262.309 127.526 259.923 127.005 257.853C126.817 257.105 126.818 255.111 127.008 254.616C127.2 254.111 127.591 253.336 127.653 253.336C127.681 253.336 136.087 261.18 146.327 270.768L164.947 288.199L165.007 288.655C165.219 290.266 164.879 291.181 163.893 291.652C163.482 291.848 162.13 291.92 161.428 291.781ZM148.733 270.757L147.446 269.547L148.216 268.87C148.641 268.498 149.471 267.768 150.063 267.249C151.139 266.305 151.14 266.305 151.031 266.053C150.523 264.87 150.474 263.996 150.874 263.278C151.019 263.018 152.615 261.509 156.19 258.253L161.298 253.599L161.967 254.221L162.636 254.843L159.441 257.747L156.247 260.652L156.846 261.212L157.445 261.773L160.594 258.911C162.326 257.337 163.784 256.05 163.835 256.05C163.883 256.05 164.205 256.312 164.544 256.633L165.162 257.215L161.969 260.119L158.776 263.022L159.375 263.582L159.974 264.143L163.169 261.24L166.363 258.337L166.963 258.897L167.562 259.458L162.445 264.109C157.03 269.032 157.038 269.026 156.083 269.143C155.613 269.2 154.82 269.056 154.094 268.782L153.558 268.579L152.381 269.714C151.734 270.339 150.938 271.101 150.613 271.408L150.021 271.966L148.733 270.757Z" fill="black" fill-opacity="0.15"/>
<path fill-rule="evenodd" clip-rule="evenodd" d="M125.834 534.635C125.834 531.422 126.336 528.726 127.341 526.547C128.409 524.314 129.916 522.516 131.863 521.155C133.81 519.793 136.165 518.813 138.929 518.213C141.692 517.614 144.801 517.315 148.255 517.315C151.395 517.315 154.065 517.505 156.263 517.887C158.524 518.213 160.282 518.595 161.538 519.031C163.171 519.63 164.113 520.338 164.365 521.155C164.679 521.972 164.836 522.761 164.836 523.524V529.406C163.391 529.352 162.104 529.297 160.973 529.243C159.843 529.135 158.744 529.08 157.676 529.08C156.608 529.026 155.541 528.998 154.473 528.998C153.405 528.944 152.243 528.916 150.987 528.916C149.04 528.916 147.439 529.025 146.183 529.243C144.989 529.461 144.047 529.761 143.356 530.142C142.665 530.523 142.194 531.013 141.943 531.613C141.692 532.212 141.566 532.865 141.566 533.573C141.566 534.39 141.661 535.098 141.849 535.698C142.1 536.242 142.54 536.76 143.168 537.25C143.859 537.74 144.832 538.258 146.088 538.802C147.407 539.347 149.166 540.028 151.364 540.845C154.253 541.934 156.671 542.996 158.618 544.031C160.628 545.066 162.229 546.237 163.423 547.544C164.679 548.851 165.558 550.376 166.06 552.119C166.626 553.862 166.908 555.959 166.908 558.41C166.908 561.515 166.5 564.184 165.684 566.417C164.867 568.596 163.548 570.42 161.727 571.891C159.968 573.307 157.676 574.342 154.85 574.996C152.023 575.704 148.569 576.058 144.487 576.058C141.472 576.058 138.646 575.894 136.008 575.567C133.37 575.295 131.329 574.914 129.884 574.424C128.566 573.988 127.655 573.443 127.152 572.79C126.65 572.082 126.399 571.265 126.399 570.339V563.721C128.848 563.884 131.235 564.02 133.559 564.129C135.882 564.184 138.269 564.211 140.718 564.211C142.854 564.211 144.581 564.102 145.9 563.884C147.282 563.667 148.318 563.367 149.009 562.986C149.762 562.55 150.265 562.033 150.516 561.433C150.767 560.78 150.893 560.072 150.893 559.309C150.893 558.329 150.736 557.539 150.422 556.94C150.108 556.286 149.543 555.714 148.726 555.224C147.972 554.68 146.905 554.162 145.523 553.672C144.204 553.127 142.508 552.474 140.436 551.711C137.484 550.676 135.066 549.614 133.182 548.525C131.298 547.435 129.822 546.21 128.754 544.848C127.686 543.487 126.933 541.989 126.493 540.355C126.053 538.666 125.834 536.76 125.834 534.635Z" fill="black" fill-opacity="0.15"/>
<path fill-rule="evenodd" clip-rule="evenodd" d="M209.777 576.058H198.514C197.692 576.058 197.007 575.747 196.459 575.126C195.966 574.504 195.582 573.798 195.308 573.006C194.212 570.124 193.088 567.214 191.937 564.275C190.786 561.28 189.608 558.37 188.402 555.544C187.251 552.719 186.1 550.006 184.949 547.407C183.853 544.807 182.784 542.49 181.743 540.456V576.058H171.713C169.685 576.058 168.671 575.069 168.671 573.091V517.315H179.441C180.263 517.315 180.975 517.625 181.578 518.247C182.181 518.869 182.674 519.575 183.058 520.366C183.99 522.344 185.031 524.576 186.182 527.063C187.388 529.549 188.594 532.149 189.8 534.861C191.006 537.574 192.211 540.343 193.417 543.169C194.623 545.938 195.719 548.622 196.706 551.221V517.315H206.736C208.764 517.315 209.777 518.304 209.777 520.281V576.058Z" fill="black" fill-opacity="0.15"/>
<path fill-rule="evenodd" clip-rule="evenodd" d="M237.057 561.648H225.99C225.674 564.247 225.384 566.818 225.12 569.361C224.857 571.904 224.672 574.137 224.567 576.058H213.974C213.236 576.058 212.63 575.804 212.156 575.295C211.734 574.787 211.524 573.939 211.524 572.752C211.524 572.244 211.55 571.707 211.603 571.142C211.656 570.576 211.735 570.04 211.84 569.531C213.263 560.263 214.87 551.363 216.662 542.829C218.454 534.296 220.72 525.791 223.461 517.315H237.769C238.823 517.315 239.561 517.597 239.982 518.162C240.404 518.727 240.72 519.321 240.931 519.942C243.302 527.515 245.463 536.105 247.413 545.711C249.363 555.262 251.102 565.377 252.63 576.058H241.247C239.561 576.058 238.586 575.041 238.322 573.006L237.057 561.648ZM231.524 528.165C230.417 532.912 229.521 537.122 228.836 540.795C228.203 544.412 227.597 547.859 227.018 551.137H236.03C235.45 547.859 234.817 544.412 234.132 540.795C233.5 537.122 232.63 532.912 231.524 528.165Z" fill="black" fill-opacity="0.15"/>
<path fill-rule="evenodd" clip-rule="evenodd" d="M257.669 576.058C255.474 576.058 254.376 575.083 254.376 573.133V519.153C257.698 518.54 261.05 518.095 264.431 517.816C267.871 517.482 270.926 517.315 273.595 517.315C277.332 517.315 280.565 517.649 283.293 518.317C286.081 518.986 288.365 520.072 290.145 521.576C291.983 523.08 293.318 525.058 294.149 527.509C295.038 529.96 295.483 532.968 295.483 536.534C295.483 543.441 293.911 548.455 290.767 551.575C287.683 554.638 283.086 556.17 276.976 556.17C275.493 556.17 274.07 556.115 272.705 556.003C271.4 555.836 270.333 555.669 269.502 555.502V576.058L257.669 576.058ZM269.502 545.224C270.214 545.335 270.867 545.419 271.46 545.475C272.053 545.531 272.616 545.558 273.15 545.558C274.455 545.558 275.553 545.447 276.442 545.224C277.391 544.946 278.163 544.472 278.756 543.804C279.349 543.08 279.794 542.133 280.09 540.963C280.387 539.793 280.535 538.289 280.535 536.45C280.535 534.723 280.387 533.303 280.09 532.189C279.853 531.075 279.468 530.211 278.934 529.598C278.4 528.93 277.688 528.484 276.798 528.261C275.968 528.039 274.989 527.927 273.862 527.927C273.328 527.927 272.587 527.955 271.638 528.011C270.689 528.011 269.977 528.039 269.502 528.095V545.224Z" fill="black" fill-opacity="0.15"/>
<path fill-rule="evenodd" clip-rule="evenodd" d="M183.333 624.02H188.395C190.897 624.02 192.672 623.485 193.719 622.414C194.824 621.29 195.377 619.496 195.377 617.033C195.377 614.463 194.766 612.67 193.544 611.653C192.381 610.582 190.373 610.047 187.522 610.047H183.333V624.02ZM183.333 600.571H187.871C190.082 600.571 191.653 600.142 192.584 599.286C193.573 598.375 194.068 596.635 194.068 594.066C194.068 591.549 193.602 589.863 192.672 589.006C191.741 588.096 190.082 587.641 187.697 587.641C187.115 587.641 186.359 587.668 185.428 587.722C184.497 587.722 183.799 587.748 183.333 587.802V600.571ZM168.671 579.209C171.929 578.62 175.158 578.192 178.358 577.924C181.617 577.603 184.555 577.442 187.173 577.442C190.373 577.442 193.282 577.71 195.901 578.245C198.519 578.727 200.73 579.584 202.534 580.815C204.396 581.993 205.821 583.572 206.81 585.553C207.799 587.481 208.294 589.863 208.294 592.7C208.294 595.699 207.654 598.188 206.374 600.169C205.152 602.15 203.057 603.836 200.09 605.228C202.068 605.978 203.697 606.861 204.977 607.878C206.257 608.842 207.247 609.94 207.945 611.171C208.643 612.349 209.108 613.58 209.341 614.865C209.632 616.15 209.777 617.435 209.777 618.72C209.777 621.718 209.254 624.181 208.207 626.108C207.159 628.035 205.734 629.588 203.93 630.766C202.126 631.943 200.003 632.773 197.559 633.255C195.115 633.683 192.497 633.898 189.704 633.898H171.9C169.747 633.898 168.671 632.961 168.671 631.087V579.209Z" fill="black" fill-opacity="0.15"/>
<path fill-rule="evenodd" clip-rule="evenodd" d="M214.644 633.897C212.368 633.897 211.23 632.947 211.23 631.046V577.441H223.965C226.241 577.441 227.38 578.392 227.38 580.293V633.897H214.644Z" fill="black" fill-opacity="0.15"/>
<path fill-rule="evenodd" clip-rule="evenodd" d="M244.144 589.091H232.308C229.991 589.091 228.832 588.14 228.832 586.24V577.441H272.326C274.643 577.441 275.801 578.392 275.801 580.293V589.091H260.583V633.897H247.62C245.303 633.897 244.144 632.947 244.144 631.046V589.091Z" fill="black" fill-opacity="0.15"/>
<path fill-rule="evenodd" clip-rule="evenodd" d="M312.48 577.441C314.797 577.441 315.956 578.392 315.956 580.293V588.684H293.223V599.437H309.756C312.073 599.437 313.232 600.388 313.232 602.288V610.679H293.223V622.655H313.419C315.737 622.655 316.895 623.605 316.895 625.506V633.897H280.729C278.412 633.897 277.253 632.947 277.253 631.046V577.441H312.48Z" fill="black" fill-opacity="0.15"/>
<path fill-rule="evenodd" clip-rule="evenodd" d="M318.348 597.673C318.348 593.634 318.899 590.246 320 587.508C321.171 584.701 322.823 582.443 324.958 580.731C327.092 579.02 329.675 577.788 332.704 577.035C335.734 576.282 339.142 575.906 342.929 575.906C346.372 575.906 349.298 576.145 351.708 576.624C354.187 577.035 356.115 577.514 357.492 578.062C359.283 578.815 360.315 579.705 360.591 580.731C360.935 581.758 361.107 582.751 361.107 583.709V591.101C359.524 591.033 358.112 590.965 356.873 590.896C355.633 590.76 354.428 590.691 353.258 590.691C352.087 590.623 350.917 590.589 349.746 590.589C348.576 590.52 347.302 590.486 345.925 590.486C343.79 590.486 342.034 590.623 340.657 590.897C339.349 591.17 338.316 591.547 337.559 592.026C336.801 592.505 336.285 593.121 336.009 593.874C335.734 594.627 335.596 595.449 335.596 596.339C335.596 597.365 335.699 598.255 335.906 599.008C336.182 599.693 336.664 600.343 337.352 600.959C338.11 601.575 339.177 602.225 340.554 602.91C342 603.594 343.928 604.45 346.338 605.477C349.505 606.845 352.146 608.195 354.291 609.481C356.484 610.796 358.228 612.268 359.558 613.896C360.914 615.554 361.899 617.455 362.45 619.645C363.07 621.836 362.997 624.709 362.997 627.79C362.997 631.691 362.55 635.045 361.655 637.852C360.76 640.59 358.931 642.525 356.934 644.373C355.006 646.153 353.213 646.898 350.114 647.72C347.016 648.61 342.715 648.481 338.239 648.481C334.934 648.481 330.743 648.481 327.7 648.481C324.657 648.481 223.039 648.481 221.187 648.481C219.666 648.481 127.355 648.604 125.833 648.604C125.833 647.594 125.846 642.698 125.833 641.535V635.475C128.876 635.475 218.512 635.756 221.187 635.475C223.735 635.544 329.079 635.475 331.758 635.475C332.772 635.475 337.844 635.475 340.998 635.328C342.934 634.874 343.478 634.24 344.203 633.678C344.852 633.179 345.133 632.103 345.408 631.35C345.684 630.529 345.821 629.639 345.821 628.681C345.821 627.449 345.649 626.456 345.305 625.703C344.961 624.882 344.341 624.163 343.446 623.547C342.62 622.863 341.449 622.212 339.934 621.596C338.488 620.912 336.629 620.09 334.357 619.132C331.121 617.832 328.47 616.497 326.404 615.128C324.338 613.759 322.72 612.219 321.55 610.508C320.379 608.796 319.553 606.914 319.071 604.861C318.589 602.739 318.348 600.342 318.348 597.673Z" fill="black" fill-opacity="0.15"/>
<path fill-rule="evenodd" clip-rule="evenodd" d="M127.462 625.21C126.944 625.113 126.608 624.937 126.284 624.591C125.931 624.215 125.822 623.831 125.834 623C125.844 621.924 125.925 621.749 126.683 621.084C129.592 618.53 142.811 607.104 142.867 607.096C142.905 607.09 143.507 607.727 144.203 608.512L145.469 609.94L143.621 611.712C142.605 612.687 139.053 616.098 135.729 619.291L129.685 625.098L129.123 625.191C128.458 625.301 127.977 625.307 127.462 625.21ZM161.67 625.351C161.45 625.308 161.223 625.224 161.166 625.166C161.108 625.108 159.618 623.424 157.854 621.423C154.962 618.143 152.106 614.911 145.927 607.926C144.791 606.641 143.839 605.56 143.812 605.522C143.783 605.485 143.379 605.393 142.911 605.317C141.727 605.126 140.098 604.609 138.809 604.015C137.617 603.466 135.749 602.339 134.557 601.45C133.538 600.689 131.528 598.8 130.693 597.819C128.871 595.678 127.538 593.276 127.013 591.191C126.824 590.439 126.825 588.431 127.016 587.932C127.209 587.425 127.603 586.643 127.665 586.644C127.693 586.644 136.157 594.542 146.467 604.195L165.214 621.745L165.274 622.204C165.488 623.826 165.146 624.747 164.153 625.221C163.739 625.419 162.377 625.491 161.67 625.351ZM148.89 604.184L147.593 602.966L148.369 602.284C148.796 601.909 149.633 601.175 150.229 600.652C151.312 599.702 151.312 599.702 151.203 599.448C150.692 598.257 150.642 597.376 151.045 596.653C151.19 596.392 152.798 594.872 156.397 591.594L161.54 586.909L162.214 587.535L162.887 588.161L159.671 591.085L156.454 594.01L157.058 594.574L157.661 595.138L160.831 592.257C162.575 590.672 164.043 589.376 164.094 589.376C164.143 589.376 164.467 589.64 164.809 589.963L165.43 590.55L162.216 593.473L159.001 596.396L159.604 596.96L160.207 597.525L163.424 594.602L166.64 591.679L167.243 592.243L167.846 592.808L162.695 597.49C157.243 602.447 157.251 602.441 156.289 602.558C155.816 602.616 155.018 602.471 154.286 602.195L153.747 601.991L152.562 603.134C151.91 603.762 151.109 604.53 150.782 604.839L150.187 605.401L148.89 604.184Z" fill="black" fill-opacity="0.15"/>
<path fill-rule="evenodd" clip-rule="evenodd" d="M109.232 423.107C112.312 423.107 114.896 423.585 116.984 424.539C119.125 425.553 120.847 426.985 122.153 428.835C123.458 430.685 124.397 432.922 124.971 435.547C125.546 438.172 125.833 441.126 125.833 444.407C125.833 447.39 125.65 449.926 125.285 452.014C124.972 454.162 124.606 455.833 124.188 457.026C123.614 458.577 122.936 459.472 122.153 459.711C121.37 460.009 120.613 460.159 119.882 460.159L114.244 460.159C114.296 458.786 114.348 457.563 114.4 456.489C114.504 455.415 114.556 454.371 114.556 453.357C114.609 452.343 114.635 451.328 114.635 450.314C114.687 449.3 114.713 448.196 114.713 447.003C114.713 445.153 114.609 443.632 114.4 442.438C114.191 441.305 113.904 440.41 113.539 439.753C113.173 439.097 112.704 438.65 112.129 438.411C111.555 438.172 110.929 438.053 110.25 438.053C109.467 438.053 108.788 438.143 108.214 438.321C107.692 438.56 107.196 438.978 106.726 439.574C106.256 440.231 105.761 441.155 105.238 442.349C104.716 443.602 104.064 445.272 103.281 447.361C102.237 450.105 101.219 452.402 100.227 454.252C99.2351 456.161 98.1127 457.682 96.8599 458.816C95.607 460.009 94.1453 460.845 92.4748 461.322C90.8043 461.859 88.7945 462.127 86.4453 462.127C83.4697 462.127 80.9118 461.74 78.7715 460.964C76.6833 460.188 74.9345 458.935 73.525 457.205C72.1677 455.534 71.1758 453.357 70.5494 450.672C69.8708 447.987 69.5315 444.705 69.5315 440.827C69.5315 437.963 69.6881 435.279 70.0013 432.773C70.2623 430.267 70.6277 428.328 71.0975 426.955C71.5151 425.703 72.0372 424.837 72.6636 424.36C73.3423 423.883 74.1253 423.644 75.0128 423.644L81.3555 423.644C81.1989 425.971 81.0684 428.238 80.9639 430.446C80.9116 432.653 80.8855 434.921 80.8855 437.247C80.8855 439.276 80.9899 440.917 81.1987 442.17C81.4075 443.482 81.6946 444.467 82.0601 445.123C82.4777 445.839 82.9736 446.316 83.5478 446.555C84.1743 446.794 84.8529 446.913 85.5838 446.913C86.5234 446.913 87.2804 446.764 87.8546 446.466C88.481 446.167 89.0292 445.63 89.499 444.855C90.021 444.139 90.5169 443.124 90.9868 441.812C91.5088 440.559 92.1353 438.948 92.8661 436.979C93.858 434.175 94.8759 431.878 95.92 430.088C96.9641 428.298 98.1386 426.896 99.4437 425.881C100.749 424.867 102.184 424.151 103.75 423.734C105.369 423.316 107.196 423.107 109.232 423.107Z" fill="black" fill-opacity="0.15"/>
<path fill-rule="evenodd" clip-rule="evenodd" d="M69.5311 502.852L69.5311 492.152C69.5311 491.371 69.829 490.721 70.4248 490.2C71.0206 489.731 71.6976 489.367 72.4559 489.106C75.2182 488.065 78.0076 486.998 80.824 485.904C83.6946 484.811 86.484 483.691 89.1921 482.546C91.9002 481.452 94.5 480.359 96.9915 479.266C99.483 478.224 101.704 477.209 103.653 476.22L69.5311 476.22L69.5311 466.691C69.5311 464.765 70.479 463.802 72.3747 463.802L125.833 463.802L125.833 474.033C125.833 474.814 125.535 475.491 124.939 476.064C124.344 476.636 123.666 477.105 122.908 477.469C121.013 478.354 118.873 479.344 116.49 480.437C114.107 481.583 111.615 482.728 109.016 483.874C106.416 485.019 103.762 486.165 101.054 487.31C98.3997 488.456 95.827 489.497 93.3355 490.434L125.833 490.434L125.833 499.962C125.833 501.889 124.885 502.852 122.989 502.852L69.5311 502.852Z" fill="black" fill-opacity="0.15"/>
<path fill-rule="evenodd" clip-rule="evenodd" d="M83.3426 528.767L83.3426 518.254C80.8511 517.953 78.3867 517.678 75.9494 517.428C73.5121 517.177 71.3727 517.002 69.5311 516.902L69.5311 506.839C69.5311 506.138 69.7748 505.562 70.2623 505.112C70.7497 504.711 71.5622 504.511 72.6996 504.511C73.1871 504.511 73.7016 504.536 74.2433 504.586C74.7849 504.636 75.2994 504.712 75.7869 504.811C84.6695 506.163 93.2001 507.69 101.379 509.392C109.557 511.095 117.709 513.247 125.833 515.851L125.833 529.443C125.833 530.445 125.562 531.146 125.021 531.546C124.479 531.947 123.91 532.247 123.314 532.447C116.057 534.7 107.824 536.753 98.6164 538.605C89.4629 540.458 79.7679 542.11 69.5311 543.562L69.5311 532.747C69.5311 531.145 70.5061 530.219 72.4559 529.969L83.3426 528.767ZM115.434 523.511C110.884 522.459 106.849 521.608 103.329 520.957C99.8621 520.356 96.5581 519.781 93.4167 519.23L93.4167 527.791C96.5581 527.24 99.8621 526.64 103.329 525.989C106.849 525.388 110.884 524.562 115.434 523.511Z" fill="black" fill-opacity="0.15"/>
<path fill-rule="evenodd" clip-rule="evenodd" d="M69.5312 548.348C69.5312 546.263 70.4656 545.22 72.3343 545.22L124.071 545.22C124.658 548.376 125.085 551.56 125.352 554.771C125.673 558.04 125.833 560.942 125.833 563.478C125.833 567.028 125.513 570.099 124.872 572.691C124.231 575.339 123.19 577.509 121.749 579.199C120.307 580.946 118.412 582.214 116.062 583.003C113.713 583.848 110.83 584.271 107.413 584.271C100.792 584.271 95.9869 582.777 92.997 579.791C90.0604 576.861 88.5921 572.493 88.5921 566.689C88.5921 565.281 88.6455 563.928 88.7523 562.632C88.9126 561.393 89.0727 560.378 89.2327 559.589L69.5311 559.589L69.5312 548.348ZM99.0836 559.589C98.9769 560.266 98.8967 560.885 98.8432 561.449C98.7897 562.012 98.763 562.548 98.763 563.055C98.763 564.295 98.8698 565.337 99.0833 566.182C99.3503 567.084 99.8041 567.816 100.445 568.38C101.139 568.943 102.047 569.366 103.168 569.648C104.289 569.93 105.731 570.07 107.493 570.07C109.148 570.07 110.509 569.93 111.577 569.648C112.645 569.422 113.472 569.056 114.06 568.549C114.7 568.042 115.128 567.366 115.341 566.52C115.555 565.731 115.661 564.802 115.661 563.731C115.661 563.224 115.635 562.52 115.581 561.618C115.581 560.716 115.555 560.04 115.501 559.589L99.0836 559.589Z" fill="black" fill-opacity="0.15"/>
<path fill-rule="evenodd" clip-rule="evenodd" d="M23.5627 477.73L23.5627 482.539C23.5627 484.916 24.0758 486.602 25.1021 487.597C26.1796 488.647 27.8986 489.172 30.259 489.172C32.722 489.172 34.4409 488.592 35.4159 487.431C36.4421 486.326 36.9552 484.419 36.9552 481.71L36.9552 477.73L23.5627 477.73ZM46.0375 477.73L46.0375 482.042C46.0375 484.142 46.448 485.635 47.269 486.519C48.1413 487.459 49.809 487.928 52.272 487.928C54.6837 487.928 56.3 487.486 57.121 486.602C57.9933 485.717 58.4295 484.142 58.4295 481.876C58.4295 481.323 58.4038 480.605 58.3525 479.72C58.3525 478.836 58.3268 478.173 58.2754 477.73L46.0375 477.73ZM66.5112 463.802C67.0756 466.897 67.4861 469.965 67.7427 473.005C68.0505 476.1 68.2045 478.891 68.2045 481.379C68.2045 484.419 67.9479 487.182 67.4348 489.67C66.973 492.157 66.152 494.257 64.9718 495.971C63.8429 497.739 62.3292 499.094 60.4307 500.033C58.5834 500.973 56.3 501.443 53.5805 501.443C50.707 501.443 48.321 500.835 46.4224 499.619C44.5238 498.458 42.9075 496.468 41.5734 493.649C40.855 495.529 40.0083 497.076 39.0334 498.292C38.1098 499.508 37.0579 500.448 35.8777 501.111C34.7488 501.774 33.5686 502.217 32.3371 502.438C31.1056 502.714 29.8741 502.852 28.6427 502.852C25.7691 502.852 23.4088 502.355 21.5615 501.36C19.7143 500.365 18.2262 499.011 17.0973 497.297C15.9685 495.584 15.1732 493.566 14.7113 491.245C14.3008 488.923 14.0956 486.436 14.0956 483.783L14.0956 466.869C14.0956 464.824 14.9935 463.802 16.7895 463.802L66.5112 463.802Z" fill="black" fill-opacity="0.15"/>
<path fill-rule="evenodd" clip-rule="evenodd" d="M14.0958 507.475C14.0958 505.313 15.0068 504.232 16.8286 504.232L68.2054 504.232L68.2054 516.33C68.2054 518.492 67.2945 519.574 65.4726 519.574L14.0958 519.574L14.0958 507.475Z" fill="black" fill-opacity="0.15"/>
<path fill-rule="evenodd" clip-rule="evenodd" d="M57.04 535.5L57.04 524.255C57.04 522.054 57.9509 520.954 59.7728 520.954L68.2054 520.954L68.2054 562.271C68.2054 564.473 67.2945 565.573 65.4726 565.573L57.04 565.573L57.04 551.117L14.0958 551.117L14.0958 538.801C14.0958 536.6 15.0068 535.5 16.8286 535.5L57.04 535.5Z" fill="black" fill-opacity="0.15"/>
<path fill-rule="evenodd" clip-rule="evenodd" d="M68.2054 600.417C68.2054 602.619 67.2945 603.719 65.4726 603.719L57.4304 603.719L57.4304 582.123L47.1238 582.123L47.1238 597.83C47.1238 600.031 46.2128 601.131 44.391 601.131L36.3487 601.131L36.3487 582.123L24.8709 582.123L24.8709 601.31C24.8709 603.511 23.96 604.612 22.1381 604.612L14.0958 604.612L14.0958 570.255C14.0958 568.053 15.0068 566.953 16.8286 566.953L68.2054 566.953L68.2054 600.417Z" fill="black" fill-opacity="0.15"/>
<path fill-rule="evenodd" clip-rule="evenodd" d="M48.815 605.991C52.6856 605.991 55.9331 606.515 58.5573 607.561C61.247 608.673 63.4119 610.243 65.0521 612.271C66.6922 614.299 67.873 616.752 68.5947 619.63C69.3163 622.508 69.6771 625.746 69.6771 629.344C69.6771 632.614 69.4476 635.394 68.9883 637.684C68.5947 640.038 68.1354 641.87 67.6106 643.178C66.889 644.879 66.0361 645.86 65.0521 646.122C64.068 646.449 63.1167 646.612 62.1982 646.612L55.113 646.612C55.1786 645.108 55.2441 643.767 55.3094 642.589C55.4406 641.412 55.5059 640.267 55.5059 639.155C55.5715 638.043 55.6043 636.931 55.6043 635.819C55.6699 634.707 55.7027 633.497 55.7027 632.189C55.7027 630.161 55.5712 628.493 55.3091 627.185C55.0468 625.942 54.6859 624.961 54.2266 624.241C53.7674 623.522 53.1769 623.031 52.4553 622.77C51.7337 622.508 50.9464 622.377 50.0935 622.377C49.1095 622.377 48.2566 622.475 47.535 622.672C46.8789 622.934 46.2557 623.391 45.6652 624.045C45.0748 624.765 44.4516 625.779 43.7955 627.087C43.1395 628.461 42.3194 630.292 41.3353 632.582C40.0233 635.591 38.73 638.099 37.4975 640.137C36.237 642.22 34.8258 643.877 33.2661 645.141C31.6765 646.428 29.8546 647.365 27.7553 647.888C25.6559 648.477 22.9017 648.408 19.9495 648.408C16.2101 648.408 12.9955 647.983 10.3057 647.132C7.68154 646.282 5.82648 644.545 4.05518 642.648C2.34944 640.816 1.63499 639.113 0.847713 636.169C-0.00515651 633.226 0.117765 629.14 0.117766 624.888C0.117766 621.748 0.117766 617.767 0.117766 614.876C0.117766 611.985 0.11777 515.45 0.11777 513.691C0.11777 512.246 -2.87302e-05 424.552 -2.86668e-05 423.107C0.967918 423.107 5.66041 423.119 6.7756 423.107L12.5833 423.107C12.5833 425.998 12.3146 511.15 12.5833 513.691C12.5177 516.111 12.5833 616.186 12.5833 618.731C12.5833 619.694 12.5833 624.513 12.7242 627.508C13.1595 629.348 13.7671 629.864 14.306 630.553C14.7845 631.17 15.8152 631.437 16.5369 631.699C17.3242 631.96 18.177 632.091 19.0954 632.091C20.2763 632.091 21.2276 631.927 21.9492 631.6C22.7365 631.273 23.4253 630.685 24.0157 629.834C24.6718 629.049 25.295 627.937 25.8855 626.498C26.5415 625.125 27.3288 623.358 28.2472 621.2C29.4937 618.126 30.773 615.607 32.0851 613.645C33.3972 611.682 34.8733 610.145 36.5133 609.033C38.1535 607.921 39.9576 607.136 41.9257 606.679C43.9595 606.221 46.2564 605.991 48.815 605.991Z" fill="black" fill-opacity="0.15"/>
<path fill-rule="evenodd" clip-rule="evenodd" d="M22.4217 424.655C22.5146 424.162 22.6838 423.843 23.0154 423.535C23.3759 423.2 23.7436 423.097 24.5404 423.107C25.5717 423.118 25.7388 423.194 26.3763 423.914C28.8246 426.678 39.775 439.235 39.7833 439.289C39.7891 439.325 39.178 439.897 38.4254 440.558L37.0572 441.76L35.3584 440.005C34.4241 439.039 31.1553 435.666 28.0944 432.508L22.5292 426.766L22.4401 426.232C22.3347 425.6 22.3289 425.143 22.4217 424.655ZM22.2865 457.152C22.3283 456.942 22.4083 456.727 22.4636 456.672C22.5195 456.618 24.1339 455.202 26.0511 453.526C29.1949 450.779 32.2933 448.065 38.9876 442.196C40.2187 441.116 41.2554 440.212 41.2912 440.186C41.327 440.159 41.4157 439.775 41.4883 439.33C41.6713 438.206 42.1671 436.658 42.7357 435.434C43.262 434.301 44.3422 432.527 45.1946 431.395C45.9242 430.426 47.7341 428.516 48.6742 427.724C50.7262 425.993 53.0284 424.726 55.0266 424.228C55.7477 424.048 57.6719 424.049 58.1502 424.231C58.6368 424.414 59.3855 424.788 59.3853 424.847C59.3851 424.874 51.8155 432.914 42.5639 442.709L25.7428 460.517L25.3034 460.575C23.7482 460.778 22.8652 460.453 22.4109 459.51C22.2217 459.116 22.1526 457.823 22.2865 457.152ZM42.5742 445.01L43.7415 443.778L44.395 444.516C44.7544 444.921 45.4582 445.716 45.9593 446.282C46.87 447.311 46.8702 447.312 47.1132 447.208C48.2548 446.722 49.0989 446.675 49.7916 447.057C50.0425 447.196 51.4987 448.723 54.6406 452.142L59.1311 457.028L58.5312 457.667L57.9313 458.307L55.1285 455.252L52.3256 452.196L51.7847 452.769L51.2437 453.342L54.0053 456.354C55.5241 458.011 56.7666 459.406 56.7664 459.454C56.7662 459.501 56.5131 459.808 56.2038 460.133L55.6416 460.723L52.84 457.67L50.0385 454.616L49.4976 455.188L48.9567 455.761L51.7581 458.817L54.5595 461.873L54.0185 462.446L53.4775 463.019L48.9893 458.125C44.2389 452.946 44.2445 452.953 44.1319 452.039C44.0766 451.59 44.2154 450.832 44.4803 450.137L44.6762 449.625L43.5806 448.499C42.978 447.88 42.2425 447.119 41.9462 446.808L41.4073 446.242L42.5742 445.01Z" fill="black" fill-opacity="0.15"/>
<path fill-rule="evenodd" clip-rule="evenodd" d="M0.000566242 334.444C0.000566242 332.114 0.364905 330.159 1.09365 328.579C1.86792 326.959 2.96105 325.656 4.37298 324.668C5.78491 323.681 7.49287 322.97 9.49689 322.535C11.5009 322.101 13.7554 321.883 16.2605 321.883C18.5378 321.883 20.4735 322.022 22.0676 322.298C23.7073 322.535 24.9825 322.812 25.8934 323.128C27.0776 323.562 27.7608 324.076 27.943 324.668C28.1707 325.261 28.2846 325.833 28.2846 326.386V330.652C27.2371 330.613 26.3034 330.573 25.4835 330.534C24.6637 330.455 23.8667 330.416 23.0924 330.416C22.3181 330.376 21.5438 330.356 20.7696 330.356C19.9952 330.317 19.1526 330.297 18.2417 330.297C16.8298 330.297 15.6684 330.376 14.7575 330.534C13.8921 330.692 13.2089 330.909 12.7079 331.186C12.2069 331.462 11.8653 331.818 11.6831 332.252C11.5009 332.687 11.4098 333.161 11.4098 333.674C11.4098 334.267 11.4781 334.78 11.6147 335.214C11.7969 335.609 12.1157 335.985 12.5711 336.34C13.0722 336.696 13.7781 337.071 14.6891 337.466C15.6455 337.861 16.9208 338.355 18.5149 338.947C20.61 339.737 22.3635 340.507 23.7755 341.258C25.2329 342.008 26.3944 342.858 27.2598 343.806C28.1707 344.754 28.8083 345.859 29.1727 347.123C29.5826 348.387 29.7876 349.908 29.7876 351.686C29.7876 353.937 29.4915 355.872 28.8994 357.492C28.3073 359.072 27.3508 360.395 26.03 361.462C24.7547 362.489 23.0923 363.239 21.0427 363.713C18.9931 364.227 16.4881 364.483 13.5276 364.483C11.3414 364.483 9.29188 364.365 7.37894 364.128C5.466 363.93 3.98574 363.654 2.9382 363.298C1.98173 362.982 1.3213 362.587 0.956907 362.113C0.592552 361.6 0.410366 361.007 0.410366 360.336L0.410366 355.537C2.18665 355.655 3.9174 355.754 5.60261 355.833C7.28782 355.873 9.01857 355.892 10.7949 355.892C12.3434 355.892 13.596 355.813 14.5524 355.655C15.5544 355.497 16.3059 355.28 16.807 355.004C17.3535 354.688 17.7179 354.312 17.9001 353.878C18.0823 353.404 18.1733 352.89 18.1733 352.337C18.1733 351.626 18.0594 351.054 17.8317 350.619C17.604 350.145 17.1941 349.731 16.602 349.375C16.0555 348.98 15.2812 348.605 14.2791 348.249C13.3227 347.854 12.0929 347.38 10.5899 346.827C8.44924 346.077 6.69574 345.307 5.32936 344.517C3.96297 343.727 2.89263 342.838 2.11836 341.851C1.34406 340.863 0.797535 339.777 0.478737 338.592C0.159905 337.367 0.000566242 335.985 0.000566242 334.444Z" fill="black" fill-opacity="0.15"/>
<path fill-rule="evenodd" clip-rule="evenodd" d="M60.8758 364.483H52.7079C52.1116 364.483 51.6148 364.258 51.2173 363.807C50.8596 363.357 50.5814 362.844 50.3826 362.27C49.5877 360.18 48.7728 358.07 47.9382 355.939C47.1035 353.767 46.2489 351.656 45.3745 349.607C44.5398 347.558 43.7051 345.591 42.8704 343.706C42.0755 341.821 41.3004 340.141 40.5452 338.665L40.5452 364.483H33.2715C31.8009 364.483 31.0656 363.766 31.0656 362.332L31.0656 321.883H38.8759C39.4721 321.883 39.9888 322.109 40.426 322.56C40.8632 323.01 41.2209 323.523 41.4992 324.096C42.1748 325.531 42.93 327.149 43.7647 328.953C44.6391 330.756 45.5136 332.641 46.3881 334.608C47.2625 336.575 48.1369 338.583 49.0114 340.632C49.8858 342.64 50.6807 344.587 51.3962 346.472V321.883H58.6699C60.1405 321.883 60.8758 322.6 60.8758 324.035L60.8758 364.483Z" fill="black" fill-opacity="0.15"/>
<path fill-rule="evenodd" clip-rule="evenodd" d="M80.6587 354.033H72.6329C72.4036 355.918 72.1934 357.783 72.0024 359.627C71.8113 361.471 71.6775 363.09 71.601 364.483H63.9192C63.3841 364.483 62.9446 364.299 62.6007 363.93C62.2949 363.561 62.1421 362.947 62.1421 362.086C62.1421 361.717 62.1612 361.328 62.1995 360.918C62.2379 360.508 62.2952 360.119 62.3714 359.75C63.4033 353.029 64.569 346.575 65.8684 340.386C67.1679 334.198 68.8113 328.031 70.7986 321.883H81.1748C81.9392 321.883 82.4742 322.088 82.78 322.498C83.0857 322.908 83.315 323.338 83.468 323.789C85.1878 329.28 86.7547 335.51 88.1687 342.476C89.5828 349.402 90.844 356.738 91.9523 364.483H83.6972C82.4742 364.483 81.7672 363.746 81.5761 362.27L80.6587 354.033ZM76.6459 329.752C75.8433 333.194 75.1935 336.247 74.6967 338.911C74.2381 341.534 73.7986 344.034 73.3782 346.411H79.9135C79.4931 344.034 79.0345 341.534 78.5377 338.911C78.079 336.247 77.4485 333.194 76.6459 329.752Z" fill="black" fill-opacity="0.15"/>
<path fill-rule="evenodd" clip-rule="evenodd" d="M95.6058 364.483C94.0142 364.483 93.2184 363.776 93.2184 362.363V323.216C95.6273 322.772 98.0578 322.449 100.51 322.247C103.005 322.005 105.22 321.883 107.156 321.883C109.866 321.883 112.21 322.126 114.189 322.61C116.211 323.095 117.867 323.883 119.157 324.974C120.491 326.065 121.459 327.499 122.061 329.276C122.706 331.054 123.029 333.235 123.029 335.821C123.029 340.83 121.889 344.466 119.609 346.728C117.372 348.95 114.038 350.061 109.608 350.061C108.532 350.061 107.5 350.021 106.51 349.94C105.564 349.819 104.79 349.698 104.188 349.577V364.483L95.6058 364.483ZM104.188 342.123C104.704 342.204 105.177 342.264 105.607 342.305C106.037 342.345 106.446 342.365 106.833 342.365C107.779 342.365 108.575 342.285 109.22 342.123C109.909 341.921 110.468 341.578 110.898 341.093C111.328 340.568 111.651 339.881 111.866 339.033C112.081 338.184 112.189 337.094 112.189 335.76C112.189 334.508 112.081 333.478 111.866 332.67C111.694 331.862 111.414 331.236 111.027 330.791C110.64 330.307 110.124 329.983 109.479 329.822C108.876 329.66 108.167 329.579 107.349 329.579C106.962 329.579 106.424 329.6 105.736 329.64C105.048 329.64 104.532 329.66 104.188 329.701V342.123Z" fill="black" fill-opacity="0.15"/>
<path fill-rule="evenodd" clip-rule="evenodd" d="M41.6985 399.265H45.3694C47.1838 399.265 48.4707 398.877 49.2302 398.1C50.0319 397.285 50.4327 395.984 50.4327 394.198C50.4327 392.335 49.9897 391.034 49.1037 390.296C48.2598 389.52 46.804 389.132 44.7365 389.132H41.6985L41.6985 399.265ZM41.6985 382.26H44.9897C46.5931 382.26 47.7323 381.949 48.4074 381.328C49.1247 380.668 49.4834 379.406 49.4834 377.542C49.4834 375.718 49.1458 374.495 48.4707 373.873C47.7956 373.213 46.593 372.883 44.8631 372.883C44.4411 372.883 43.8926 372.903 43.2175 372.942C42.5424 372.942 42.0361 372.961 41.6985 373V382.26ZM31.0656 366.769C33.4284 366.341 35.7702 366.031 38.0909 365.837C40.4538 365.604 42.5846 365.487 44.4833 365.487C46.804 365.487 48.9137 365.681 50.8125 366.07C52.7112 366.419 54.3146 367.04 55.6226 367.933C56.9729 368.787 58.0066 369.933 58.7239 371.369C59.4412 372.767 59.7998 374.495 59.7998 376.552C59.7998 378.727 59.3357 380.532 58.4075 381.968C57.5214 383.405 56.0024 384.628 53.8505 385.637C55.2851 386.181 56.4666 386.822 57.3948 387.559C58.3231 388.258 59.0404 389.054 59.5467 389.947C60.053 390.801 60.3906 391.694 60.5594 392.626C60.7704 393.558 60.8758 394.489 60.8758 395.421C60.8758 397.595 60.4961 399.381 59.7366 400.779C58.9771 402.177 57.9433 403.303 56.6353 404.157C55.3273 405.011 53.7872 405.613 52.015 405.962C50.2429 406.273 48.3441 406.428 46.3188 406.428H33.4073C31.8462 406.428 31.0656 405.749 31.0656 404.39L31.0656 366.769Z" fill="black" fill-opacity="0.15"/>
<path fill-rule="evenodd" clip-rule="evenodd" d="M64.4049 406.428C62.7541 406.428 61.9287 405.739 61.9287 404.36L61.9287 365.487H71.1643C72.8151 365.487 73.6406 366.176 73.6406 367.554V406.428H64.4049Z" fill="black" fill-opacity="0.15"/>
<path fill-rule="evenodd" clip-rule="evenodd" d="M85.7981 373.935H77.2146C75.5342 373.935 74.6941 373.246 74.6941 371.867V365.487H106.235C107.915 365.487 108.756 366.176 108.756 367.554V373.935H97.7197V406.428H88.3186C86.6383 406.428 85.7981 405.739 85.7981 404.36V373.935Z" fill="black" fill-opacity="0.15"/>
<path fill-rule="evenodd" clip-rule="evenodd" d="M135.355 365.487C137.035 365.487 137.875 366.176 137.875 367.554V373.639H121.39V381.438H133.379C135.06 381.438 135.9 382.127 135.9 383.506V389.591H121.39V398.275H136.036C137.716 398.275 138.557 398.964 138.557 400.343V406.428H112.329C110.649 406.428 109.809 405.739 109.809 404.36V365.487H135.355Z" fill="black" fill-opacity="0.15"/>
<path fill-rule="evenodd" clip-rule="evenodd" d="M139.61 380.158C139.61 377.229 140.009 374.772 140.808 372.787C141.657 370.752 142.856 369.114 144.404 367.873C145.952 366.632 147.824 365.738 150.021 365.192C152.218 364.646 154.69 364.373 157.436 364.373C159.933 364.373 162.055 364.547 163.803 364.894C165.6 365.192 166.999 365.54 167.997 365.937C169.296 366.483 170.045 367.128 170.244 367.873C170.494 368.617 170.619 369.337 170.619 370.032V375.393C169.47 375.343 168.447 375.294 167.548 375.244C166.649 375.145 165.775 375.096 164.926 375.096C164.077 375.046 163.229 375.021 162.38 375.021C161.531 374.971 160.607 374.947 159.608 374.947C158.061 374.947 156.787 375.046 155.789 375.244C154.84 375.443 154.091 375.716 153.541 376.063C152.992 376.411 152.618 376.858 152.418 377.404C152.218 377.95 152.118 378.545 152.118 379.191C152.118 379.935 152.193 380.581 152.343 381.127C152.543 381.623 152.892 382.095 153.392 382.541C153.941 382.988 154.715 383.46 155.714 383.956C156.762 384.452 158.161 385.073 159.908 385.818C162.205 386.81 164.12 387.789 165.676 388.721C167.266 389.675 168.531 390.743 169.495 391.923C170.478 393.126 171.193 394.504 171.593 396.093C172.042 397.681 171.99 399.765 171.99 401.999C171.99 404.828 171.665 407.261 171.016 409.296C170.367 411.281 169.041 412.685 167.593 414.025C166.195 415.316 164.894 415.856 162.647 416.452C160.4 417.097 157.281 417.004 154.035 417.004C151.638 417.004 148.599 417.004 146.392 417.004C144.185 417.004 70.4928 417.004 69.1501 417.004C68.0466 417.004 1.10344 417.093 2.51892e-07 417.093C0 416.361 0.0093424 412.811 6.91693e-05 411.967L6.91693e-05 407.572C2.20692 407.572 67.2101 407.776 69.1501 407.572C70.9977 407.622 147.393 407.572 149.335 407.572C150.07 407.572 153.749 407.572 156.036 407.466C157.44 407.136 157.834 406.677 158.36 406.269C158.831 405.907 159.034 405.127 159.234 404.581C159.434 403.985 159.534 403.34 159.534 402.645C159.534 401.752 159.409 401.032 159.159 400.486C158.909 399.89 158.46 399.369 157.811 398.922C157.212 398.426 156.363 397.954 155.264 397.507C154.216 397.011 152.867 396.415 151.22 395.72C148.873 394.777 146.95 393.809 145.452 392.817C143.954 391.824 142.781 390.707 141.932 389.466C141.083 388.225 140.484 386.86 140.134 385.371C139.785 383.832 139.61 382.094 139.61 380.158Z" fill="black" fill-opacity="0.15"/>
<path fill-rule="evenodd" clip-rule="evenodd" d="M1.18164 400.128C0.805578 400.058 0.562277 399.93 0.326844 399.679C0.0712812 399.406 -0.00769728 399.128 0.000579655 398.525C0.00824348 397.745 0.0669697 397.618 0.61639 397.136C2.72619 395.284 12.3122 386.998 12.3528 386.992C12.3804 386.987 12.8173 387.45 13.322 388.019L14.2398 389.054L12.8997 390.34C12.1626 391.047 9.58726 393.52 7.17665 395.836L2.79371 400.047L2.38605 400.114C1.90367 400.194 1.55479 400.198 1.18164 400.128ZM25.989 400.231C25.8291 400.199 25.6647 400.138 25.6228 400.097C25.5815 400.054 24.5007 398.833 23.2217 397.382C21.1243 395.003 19.0527 392.659 14.5721 387.594C13.7481 386.662 13.0576 385.878 13.0379 385.851C13.0174 385.824 12.7243 385.757 12.3845 385.702C11.5262 385.563 10.3445 385.188 9.41026 384.758C8.54544 384.36 7.19091 383.542 6.32692 382.897C5.58736 382.345 4.12967 380.976 3.52436 380.265C2.20337 378.712 1.23632 376.97 0.855962 375.458C0.718524 374.912 0.719286 373.457 0.85795 373.095C0.998198 372.726 1.28327 372.16 1.32864 372.16C1.34907 372.16 7.48667 377.888 14.9637 384.888L28.5584 397.615L28.6024 397.948C28.7572 399.125 28.5092 399.793 27.7891 400.136C27.4889 400.28 26.5016 400.332 25.989 400.231ZM16.7205 384.88L15.7803 383.997L16.343 383.502C16.6527 383.23 17.2593 382.698 17.6915 382.319C18.4772 381.63 18.4774 381.63 18.3984 381.446C18.0275 380.582 17.9911 379.943 18.2834 379.419C18.389 379.229 19.5548 378.127 22.1646 375.75L25.8945 372.352L26.3829 372.806L26.8711 373.26L24.5388 375.381L22.2064 377.502L22.6437 377.911L23.081 378.32L25.3805 376.231C26.6451 375.082 27.7099 374.142 27.7466 374.142C27.7822 374.142 28.0167 374.333 28.2647 374.567L28.7157 374.993L26.3844 377.113L24.0532 379.232L24.4905 379.642L24.9278 380.051L27.2604 377.931L29.5929 375.812L30.0304 376.221L30.4678 376.63L26.7322 380.026C22.7785 383.621 22.7839 383.616 22.0866 383.701C21.7433 383.743 21.1649 383.638 20.6342 383.438L20.2431 383.29L19.3837 384.119C18.9111 384.575 18.3302 385.131 18.0928 385.355L17.661 385.763L16.7205 384.88Z" fill="black" fill-opacity="0.15"/>
<defs>
<clipPath id="clip0_58_8">
<rect width="50.8583" height="50.6708" fill="white" transform="matrix(0.957665 0.287885 -0.290234 0.956956 127.453 308.855)"/>
</clipPath>
<clipPath id="clip1_58_8">
<rect width="50.5866" height="51.2181" fill="white" transform="matrix(0.708672 0.705538 -0.708672 0.705538 96.6967 580.173)"/>
</clipPath>
</defs>
</svg>
