<svg width="69" height="82" viewBox="0 0 69 82" fill="none" xmlns="http://www.w3.org/2000/svg">
<path d="M6.46875 47.4737C6.46875 52.0053 7.49297 56.2671 9.54141 60.2592C11.5898 64.2513 14.4469 67.5781 18.1125 70.2395C17.825 69.3763 17.6094 68.4952 17.4656 67.5961C17.3219 66.6969 17.25 65.8158 17.25 64.9526C17.25 62.6509 17.6813 60.493 18.5438 58.4789C19.4063 56.4649 20.6641 54.6307 22.3172 52.9763L34.5 41L46.6828 52.9763C48.3359 54.6307 49.5937 56.4649 50.4562 58.4789C51.3187 60.493 51.75 62.6509 51.75 64.9526C51.75 65.8158 51.6781 66.6969 51.5344 67.5961C51.3906 68.4952 51.175 69.3763 50.8875 70.2395C54.5531 67.5781 57.4102 64.2513 59.4586 60.2592C61.507 56.2671 62.5312 52.0053 62.5312 47.4737C62.5312 43.5895 61.7047 39.7952 60.0516 36.0908C58.3984 32.3864 56.0266 28.9877 52.9359 25.8947C51.4266 26.9737 49.8453 27.8189 48.1922 28.4303C46.5391 29.0417 44.8859 29.3474 43.2328 29.3474C38.8484 29.3474 35.2188 27.8548 32.3438 24.8697C29.4688 21.8846 28.0312 18.1263 28.0312 13.5947V11.4368C24.725 13.8105 21.7422 16.436 19.0828 19.3132C16.4234 22.1904 14.1594 25.1934 12.2906 28.3224C10.4219 31.4513 8.98438 34.6522 7.97813 37.925C6.97188 41.1978 6.46875 44.3807 6.46875 47.4737ZM34.5 50.0632L26.8453 57.6158C25.8391 58.6228 25.0664 59.7377 24.5273 60.9605C23.9883 62.1833 23.7188 63.514 23.7188 64.9526C23.7188 67.9018 24.7609 70.4013 26.8453 72.4513C28.9297 74.5013 31.4813 75.5263 34.5 75.5263C37.5187 75.5263 40.0703 74.5013 42.1547 72.4513C44.2391 70.4013 45.2812 67.9018 45.2812 64.9526C45.2812 63.514 45.0117 62.1833 44.4727 60.9605C43.9336 59.7377 43.1609 58.6228 42.1547 57.6158L34.5 50.0632ZM34.5 0V14.2421C34.5 16.6877 35.3445 18.7377 37.0336 20.3921C38.7227 22.0465 40.7891 22.8737 43.2328 22.8737C44.5266 22.8737 45.7305 22.6039 46.8445 22.0645C47.9586 21.525 48.9469 20.7158 49.8094 19.6368L51.75 17.2632C57.0687 20.2842 61.2734 24.4921 64.3641 29.8868C67.4547 35.2816 69 41.1439 69 47.4737C69 57.1123 65.6578 65.2763 58.9734 71.9658C52.2891 78.6553 44.1313 82 34.5 82C24.8687 82 16.7109 78.6553 10.0266 71.9658C3.34219 65.2763 0 57.1123 0 47.4737C0 38.2667 3.09063 29.4013 9.27188 20.8776C15.4531 12.3539 23.8625 5.39474 34.5 0Z" fill="#EF820A"/>
<path d="M34.5 50.0632L26.8453 57.6158C25.8391 58.6228 25.0664 59.7377 24.5273 60.9605C23.9883 62.1833 23.7188 63.514 23.7188 64.9526C23.7188 67.9018 24.7609 70.4013 26.8453 72.4513C28.9297 74.5013 31.4813 75.5263 34.5 75.5263C37.5187 75.5263 40.0703 74.5013 42.1547 72.4513C44.2391 70.4013 45.2812 67.9018 45.2812 64.9526C45.2812 63.514 45.0117 62.1833 44.4727 60.9605C43.9336 59.7377 43.1609 58.6228 42.1547 57.6158L34.5 50.0632Z" fill="#EF820A"/>
<path d="M6.46875 47.4737C6.46875 52.0053 7.49297 56.2671 9.54141 60.2592C11.5898 64.2513 14.4469 67.5781 18.1125 70.2395C17.825 69.3763 17.6094 68.4952 17.4656 67.5961C17.3219 66.6969 17.25 65.8158 17.25 64.9526C17.25 62.6509 17.6813 60.493 18.5438 58.4789C19.4063 56.4649 20.6641 54.6307 22.3172 52.9763L34.5 41L46.6828 52.9763C48.3359 54.6307 49.5937 56.4649 50.4562 58.4789C51.3187 60.493 51.75 62.6509 51.75 64.9526C51.75 65.8158 51.6781 66.6969 51.5344 67.5961C51.3906 68.4952 51.175 69.3763 50.8875 70.2395C54.5531 67.5781 57.4102 64.2513 59.4586 60.2592C61.507 56.2671 62.5312 52.0053 62.5312 47.4737C62.5312 43.5895 61.7047 39.7952 60.0516 36.0908C58.3984 32.3864 56.0266 28.9877 52.9359 25.8947C51.4266 26.9737 49.8453 27.8189 48.1922 28.4303C46.5391 29.0417 44.8859 29.3474 43.2328 29.3474C38.8484 29.3474 35.2188 27.8548 32.3438 24.8697C29.4688 21.8846 28.0312 18.1263 28.0312 13.5947V11.4368C24.725 13.8105 21.7422 16.436 19.0828 19.3132C16.4234 22.1904 14.1594 25.1934 12.2906 28.3224C10.4219 31.4513 8.98438 34.6522 7.97813 37.925C6.97188 41.1978 6.46875 44.3807 6.46875 47.4737Z" fill="#EF820A"/>
<path d="M14.9513 71L12.3184 68.3656L38.6466 42.0212C37.7272 40.014 37.5182 37.9336 38.0197 35.7801C38.5212 33.6265 39.7122 31.6089 41.5928 29.7271C43.4734 27.8872 45.751 26.7059 48.4256 26.1832C51.1002 25.6605 53.2942 26.2564 55.0076 27.9708C56.7628 29.7271 57.3583 31.9225 56.7942 34.5569C56.23 37.1914 54.9658 39.5122 53.0017 41.5194C51.2882 43.2757 49.3763 44.4256 47.2659 44.9692C45.1555 45.5129 43.1808 45.3874 41.3421 44.5929L37.1421 48.7955L56.7001 68.3656L54.0673 71L34.5093 51.4299L14.9513 71ZM22.787 48.9836L15.3274 41.5194C13.196 39.3867 12.0886 36.8568 12.005 33.9297C11.9214 31.0025 12.8826 28.4099 14.8886 26.1518L30.2466 41.5194L22.787 48.9836Z" fill="black"/>
</svg>
