<svg width="400" height="223" viewBox="0 0 400 223" fill="none" xmlns="http://www.w3.org/2000/svg">
<path d="M6.46875 157.474C6.46875 162.005 7.49297 166.267 9.54141 170.259C11.5898 174.251 14.4469 177.578 18.1125 180.239C17.825 179.376 17.6094 178.495 17.4656 177.596C17.3219 176.697 17.25 175.816 17.25 174.953C17.25 172.651 17.6813 170.493 18.5438 168.479C19.4063 166.465 20.6641 164.631 22.3172 162.976L34.5 151L46.6828 162.976C48.3359 164.631 49.5937 166.465 50.4562 168.479C51.3187 170.493 51.75 172.651 51.75 174.953C51.75 175.816 51.6781 176.697 51.5344 177.596C51.3906 178.495 51.175 179.376 50.8875 180.239C54.5531 177.578 57.4102 174.251 59.4586 170.259C61.507 166.267 62.5312 162.005 62.5312 157.474C62.5312 153.589 61.7047 149.795 60.0516 146.091C58.3984 142.386 56.0266 138.988 52.9359 135.895C51.4266 136.974 49.8453 137.819 48.1922 138.43C46.5391 139.042 44.8859 139.347 43.2328 139.347C38.8484 139.347 35.2188 137.855 32.3438 134.87C29.4688 131.885 28.0312 128.126 28.0312 123.595V121.437C24.725 123.811 21.7422 126.436 19.0828 129.313C16.4234 132.19 14.1594 135.193 12.2906 138.322C10.4219 141.451 8.98438 144.652 7.97813 147.925C6.97188 151.198 6.46875 154.381 6.46875 157.474ZM34.5 160.063L26.8453 167.616C25.8391 168.623 25.0664 169.738 24.5273 170.961C23.9883 172.183 23.7188 173.514 23.7188 174.953C23.7188 177.902 24.7609 180.401 26.8453 182.451C28.9297 184.501 31.4813 185.526 34.5 185.526C37.5187 185.526 40.0703 184.501 42.1547 182.451C44.2391 180.401 45.2812 177.902 45.2812 174.953C45.2812 173.514 45.0117 172.183 44.4727 170.961C43.9336 169.738 43.1609 168.623 42.1547 167.616L34.5 160.063ZM34.5 110V124.242C34.5 126.688 35.3445 128.738 37.0336 130.392C38.7227 132.046 40.7891 132.874 43.2328 132.874C44.5266 132.874 45.7305 132.604 46.8445 132.064C47.9586 131.525 48.9469 130.716 49.8094 129.637L51.75 127.263C57.0687 130.284 61.2734 134.492 64.3641 139.887C67.4547 145.282 69 151.144 69 157.474C69 167.112 65.6578 175.276 58.9734 181.966C52.2891 188.655 44.1313 192 34.5 192C24.8687 192 16.7109 188.655 10.0266 181.966C3.34219 175.276 0 167.112 0 157.474C0 148.267 3.09063 139.401 9.27188 130.878C15.4531 122.354 23.8625 115.395 34.5 110Z" fill="#EF820A"/>
<path d="M34.5 160.063L26.8453 167.616C25.8391 168.623 25.0664 169.738 24.5273 170.961C23.9883 172.183 23.7188 173.514 23.7188 174.953C23.7188 177.902 24.7609 180.401 26.8453 182.451C28.9297 184.501 31.4813 185.526 34.5 185.526C37.5187 185.526 40.0703 184.501 42.1547 182.451C44.2391 180.401 45.2812 177.902 45.2812 174.953C45.2812 173.514 45.0117 172.183 44.4727 170.961C43.9336 169.738 43.1609 168.623 42.1547 167.616L34.5 160.063Z" fill="#EF820A"/>
<path d="M6.46875 157.474C6.46875 162.005 7.49297 166.267 9.54141 170.259C11.5898 174.251 14.4469 177.578 18.1125 180.239C17.825 179.376 17.6094 178.495 17.4656 177.596C17.3219 176.697 17.25 175.816 17.25 174.953C17.25 172.651 17.6813 170.493 18.5438 168.479C19.4063 166.465 20.6641 164.631 22.3172 162.976L34.5 151L46.6828 162.976C48.3359 164.631 49.5937 166.465 50.4562 168.479C51.3187 170.493 51.75 172.651 51.75 174.953C51.75 175.816 51.6781 176.697 51.5344 177.596C51.3906 178.495 51.175 179.376 50.8875 180.239C54.5531 177.578 57.4102 174.251 59.4586 170.259C61.507 166.267 62.5312 162.005 62.5312 157.474C62.5312 153.589 61.7047 149.795 60.0516 146.091C58.3984 142.386 56.0266 138.988 52.9359 135.895C51.4266 136.974 49.8453 137.819 48.1922 138.43C46.5391 139.042 44.8859 139.347 43.2328 139.347C38.8484 139.347 35.2188 137.855 32.3438 134.87C29.4688 131.885 28.0312 128.126 28.0312 123.595V121.437C24.725 123.811 21.7422 126.436 19.0828 129.313C16.4234 132.19 14.1594 135.193 12.2906 138.322C10.4219 141.451 8.98438 144.652 7.97813 147.925C6.97188 151.198 6.46875 154.381 6.46875 157.474Z" fill="#EF820A"/>
<path fill-rule="evenodd" clip-rule="evenodd" d="M2.00165 29.2948C2.00165 23.8597 2.84761 19.2998 4.53968 15.6149C6.33746 11.838 8.8756 8.798 12.154 6.49498C15.4323 4.19196 19.398 2.53383 24.0512 1.52053C28.7043 0.507203 33.9391 0.000488281 39.7556 0.000488281C45.0432 0.000488281 49.5378 0.322955 53.2391 0.967783C57.0463 1.5205 60.0073 2.16537 62.1223 2.90237C64.8719 3.91567 66.4582 5.11318 66.8813 6.49498C67.41 7.87678 67.6745 9.21256 67.6745 10.5023V20.4512C65.2422 20.3589 63.0742 20.2669 61.1706 20.1753C59.267 19.9914 57.4164 19.8994 55.6186 19.8994C53.8207 19.807 52.023 19.7609 50.2252 19.7609C48.4274 19.6686 46.4709 19.6225 44.3558 19.6225C41.0775 19.6225 38.3808 19.8067 36.2657 20.1751C34.2564 20.5437 32.6701 21.0503 31.5068 21.6951C30.3435 22.34 29.5504 23.1691 29.1274 24.1824C28.7044 25.1957 28.4929 26.3011 28.4929 27.4987C28.4929 28.8805 28.6515 30.0781 28.9686 31.0914C29.3916 32.0126 30.1318 32.8878 31.1893 33.7169C32.3526 34.546 33.9918 35.4211 36.1069 36.3423C38.3277 37.2635 41.2888 38.415 44.9902 39.7968C49.8548 41.6392 53.9263 43.4356 57.2047 45.1859C60.5888 46.9362 63.2856 48.9167 65.2948 51.1276C67.4099 53.3385 68.8904 55.9179 69.7365 58.8657C70.6882 61.8136 71.1641 65.3602 71.1641 69.5056C71.1641 74.7565 70.4768 79.2703 69.102 83.0472C67.7272 86.7321 65.5063 89.8181 62.4395 92.3054C59.4784 94.7005 55.6184 96.4508 50.8595 97.5563C46.1006 98.7538 40.2842 99.3526 33.4102 99.3526C28.3341 99.3526 23.5752 99.0762 19.1335 98.5235C14.6918 98.0629 11.2548 97.4181 8.82253 96.589C6.60172 95.8521 5.06825 94.9308 4.22218 93.8254C3.37618 92.6278 2.95316 91.246 2.95316 89.6799V78.4873C7.07753 78.7636 11.0962 78.9939 15.0091 79.1783C18.9219 79.2706 22.9406 79.3167 27.0649 79.3167C30.6606 79.3167 33.5688 79.1325 35.7897 78.7641C38.1162 78.3956 39.8612 77.8889 41.0245 77.244C42.2935 76.5071 43.1396 75.632 43.5626 74.6186C43.9856 73.5132 44.197 72.3156 44.197 71.026C44.197 69.3678 43.9326 68.0321 43.4039 67.0187C42.8751 65.9133 41.9234 64.946 40.5486 64.1169C39.2796 63.1957 37.4817 62.3206 35.1551 61.4915C32.9343 60.5703 30.0789 59.4649 26.589 58.1752C21.6186 56.4249 17.5472 54.6286 14.3746 52.7862C11.202 50.9437 8.71674 48.871 6.91896 46.568C5.12111 44.2651 3.85213 41.7317 3.11191 38.9681C2.37161 36.1124 2.00165 32.8875 2.00165 29.2948Z" fill="white"/>
<path fill-rule="evenodd" clip-rule="evenodd" d="M143.348 99.3529H124.382C122.998 99.3529 121.844 98.8272 120.922 97.7759C120.091 96.7245 119.445 95.5298 118.983 94.1917C117.138 89.3172 115.246 84.395 113.308 79.425C111.37 74.3593 109.385 69.4371 107.355 64.6582C105.417 59.8794 103.479 55.2916 101.541 50.895C99.6951 46.4984 97.8955 42.5798 96.142 39.139V99.3529H79.2532C75.8384 99.3529 74.1311 97.6803 74.1311 94.3351V0H92.2659C93.6502 0 94.85 0.525688 95.8652 1.57705C96.8804 2.62841 97.7109 3.82312 98.3569 5.16114C99.9258 8.50639 101.679 12.2816 103.617 16.4871C105.648 20.6925 107.678 25.0891 109.708 29.6768C111.739 34.2645 113.769 38.9478 115.8 43.7268C117.83 48.4101 119.676 52.95 121.337 57.3465V0H138.226C141.64 0 143.348 1.67259 143.348 5.01781V99.3529Z" fill="white"/>
<path fill-rule="evenodd" clip-rule="evenodd" d="M189.282 74.9806H170.647C170.114 79.3771 169.626 83.726 169.182 88.0269C168.739 92.3279 168.428 96.1032 168.251 99.3529H150.414C149.172 99.3529 148.151 98.9228 147.353 98.0626C146.643 97.2024 146.288 95.7688 146.288 93.7616C146.288 92.9015 146.332 91.9934 146.421 91.0376C146.51 90.0818 146.643 89.1739 146.82 88.3137C149.216 72.639 151.923 57.5855 154.94 43.1533C157.957 28.7211 161.773 14.3366 166.387 0H190.48C192.255 0 193.497 0.477864 194.207 1.43364C194.917 2.38941 195.449 3.39296 195.804 4.44432C199.798 17.2517 203.436 31.7795 206.719 48.0277C210.003 64.1803 212.931 81.2887 215.504 99.3529H196.337C193.497 99.3529 191.855 97.6324 191.412 94.1916L189.282 74.9806ZM179.964 18.3509C178.101 26.3794 176.592 33.4999 175.438 39.7124C174.374 45.8295 173.353 51.6598 172.377 57.2032H187.551C186.575 51.6598 185.51 45.8295 184.357 39.7124C183.292 33.4999 181.828 26.3794 179.964 18.3509Z" fill="white"/>
<path fill-rule="evenodd" clip-rule="evenodd" d="M223.988 99.3528C220.292 99.3528 218.444 97.7039 218.444 94.4063V3.10915C224.037 2.07278 229.681 1.31909 235.374 0.848009C241.167 0.282682 246.311 0 250.805 0C257.098 0 262.541 0.565319 267.135 1.69594C271.83 2.82656 275.675 4.66381 278.671 7.20768C281.768 9.75158 284.015 13.0963 285.413 17.2419C286.912 21.3875 287.661 26.4753 287.661 32.5053C287.661 44.1883 285.014 52.6678 279.72 57.9439C274.526 63.1259 266.786 65.717 256.498 65.717C254.001 65.717 251.604 65.6227 249.307 65.4343C247.11 65.1515 245.312 64.869 243.913 64.5865V99.3529L223.988 99.3528ZM243.913 47.2032C245.112 47.3916 246.211 47.533 247.209 47.6274C248.208 47.7218 249.157 47.7689 250.056 47.7689C252.253 47.7689 254.101 47.5805 255.599 47.2037C257.197 46.7326 258.496 45.9318 259.495 44.8012C260.493 43.5763 261.242 41.9747 261.742 39.9961C262.241 38.0175 262.491 35.4735 262.491 32.3643C262.491 29.4436 262.241 27.0411 261.742 25.1567C261.342 23.2724 260.693 21.812 259.794 20.7756C258.895 19.645 257.697 18.8913 256.199 18.5144C254.8 18.1376 253.152 17.9491 251.255 17.9491C250.356 17.9491 249.107 17.9963 247.509 18.0907C245.911 18.0907 244.713 18.1379 243.913 18.2323V47.2032Z" fill="white"/>
<path fill-rule="evenodd" clip-rule="evenodd" d="M98.8198 180.471H107.343C111.556 180.471 114.544 179.566 116.308 177.755C118.169 175.853 119.1 172.82 119.1 168.655C119.1 164.308 118.071 161.275 116.014 159.555C114.054 157.744 110.674 156.838 105.874 156.838H98.8198V180.471ZM98.8198 140.811H106.462C110.185 140.811 112.83 140.087 114.397 138.638C116.063 137.099 116.896 134.156 116.896 129.809C116.896 125.554 116.112 122.701 114.544 121.253C112.977 119.713 110.184 118.944 106.168 118.944C105.188 118.944 103.914 118.989 102.347 119.08C100.779 119.08 99.6036 119.125 98.8198 119.216V140.811ZM74.1311 104.682C79.6175 103.686 85.0548 102.962 90.4432 102.509C95.9296 101.966 100.877 101.694 105.286 101.694C110.674 101.694 115.573 102.147 119.982 103.053C124.39 103.867 128.113 105.316 131.15 107.399C134.285 109.391 136.686 112.062 138.351 115.412C140.017 118.672 140.849 122.701 140.849 127.5C140.849 132.571 139.772 136.782 137.616 140.132C135.559 143.482 132.032 146.335 127.036 148.689C130.367 149.956 133.11 151.451 135.265 153.171C137.421 154.801 139.086 156.657 140.262 158.74C141.437 160.732 142.221 162.814 142.613 164.988C143.103 167.161 143.348 169.334 143.348 171.507C143.348 176.578 142.466 180.743 140.703 184.003C138.939 187.262 136.539 189.888 133.501 191.88C130.464 193.872 126.889 195.276 122.774 196.091C118.659 196.815 114.25 197.177 109.548 197.177H79.5685C75.9436 197.177 74.1311 195.593 74.1311 192.424V104.682Z" fill="white"/>
<path fill-rule="evenodd" clip-rule="evenodd" d="M151.542 197.178C147.709 197.178 145.793 195.57 145.793 192.355V101.694H167.237C171.07 101.694 172.987 103.301 172.987 106.516V197.178H151.542Z" fill="white"/>
<path fill-rule="evenodd" clip-rule="evenodd" d="M201.215 121.397H181.284C177.383 121.397 175.432 119.789 175.432 116.574V101.694H248.667C252.569 101.694 254.52 103.301 254.52 106.516V121.397H228.895V197.178H207.067C203.165 197.178 201.215 195.57 201.215 192.355V121.397Z" fill="white"/>
<path fill-rule="evenodd" clip-rule="evenodd" d="M316.281 101.694C320.183 101.694 322.133 103.301 322.133 106.516V120.708H283.855V138.895H311.694C315.595 138.895 317.546 140.503 317.546 143.718V157.909H283.855V178.164H317.863C321.764 178.164 323.715 179.771 323.715 182.986V197.178H262.818C258.916 197.178 256.965 195.57 256.965 192.355V101.694H316.281Z" fill="white"/>
<path fill-rule="evenodd" clip-rule="evenodd" d="M324 135.814C324 128.984 324.928 123.253 326.783 118.623C328.754 113.876 331.536 110.056 335.131 107.162C338.725 104.267 343.072 102.184 348.174 100.91C353.275 99.6367 359.014 99 365.391 99C371.188 99 376.116 99.4051 380.174 100.215C384.347 100.91 387.594 101.721 389.913 102.647C392.927 103.92 394.666 105.425 395.13 107.162C395.71 108.898 396 110.577 396 112.198V124.701C393.333 124.585 390.956 124.469 388.869 124.354C386.782 124.122 384.753 124.007 382.782 124.007C380.811 123.891 378.84 123.834 376.869 123.834C374.898 123.718 372.753 123.66 370.435 123.66C366.84 123.66 363.884 123.892 361.565 124.354C359.362 124.817 357.623 125.454 356.348 126.265C355.072 127.075 354.203 128.117 353.739 129.39C353.275 130.664 353.043 132.053 353.043 133.558C353.043 135.295 353.217 136.8 353.565 138.073C354.03 139.231 354.841 140.33 356 141.372C357.275 142.414 359.073 143.514 361.392 144.672C363.826 145.829 367.073 147.277 371.131 149.013C376.464 151.328 380.911 153.611 384.522 155.786C388.215 158.01 391.152 160.5 393.391 163.253C395.674 166.058 397.333 169.273 398.261 172.977C399.304 176.682 399.182 181.542 399.182 186.752C399.182 193.35 398.429 199.023 396.921 203.769C395.414 208.4 392.336 211.674 388.973 214.799C385.727 217.81 382.707 219.07 377.49 220.46C372.272 221.965 365.03 221.748 357.494 221.748C351.929 221.748 347.974 221.696 343.105 221.001C338.235 220.423 334.145 221.427 331.479 220.385C329.044 219.458 327.363 218.301 326.435 216.911C325.508 215.406 325.065 213.67 325.044 211.702L324.936 201.872C329.351 200.808 333.864 200.793 338.368 200.318C342.658 200.434 347.114 200.772 351.586 200.19C353.215 199.977 357.379 200.236 362.139 199.502C365.4 198.733 366.314 197.661 367.536 196.71C368.628 195.866 369.101 194.047 369.565 192.774C370.029 191.384 370.261 189.879 370.261 188.259C370.261 186.175 369.971 184.496 369.391 183.223C368.812 181.834 367.768 180.618 366.261 179.576C364.87 178.419 362.899 177.319 360.348 176.277C357.913 175.119 354.783 173.73 350.957 172.109C345.507 169.909 341.044 167.652 337.565 165.337C334.087 163.021 331.363 160.416 329.392 157.522C327.421 154.628 326.029 151.444 325.218 147.971C324.406 144.383 324 140.329 324 135.814Z" fill="white"/>
<path fill-rule="evenodd" clip-rule="evenodd" d="M2 199.988H379.189L359.773 221.816L2 222.051V199.988Z" fill="white"/>
<path d="M6.46875 157.474C6.46875 162.005 7.49297 166.267 9.54141 170.259C11.5898 174.251 14.4469 177.578 18.1125 180.239C17.825 179.376 17.6094 178.495 17.4656 177.596C17.3219 176.697 17.25 175.816 17.25 174.953C17.25 172.651 17.6813 170.493 18.5438 168.479C19.4063 166.465 20.6641 164.631 22.3172 162.976L34.5 151L46.6828 162.976C48.3359 164.631 49.5937 166.465 50.4562 168.479C51.3187 170.493 51.75 172.651 51.75 174.953C51.75 175.816 51.6781 176.697 51.5344 177.596C51.3906 178.495 51.175 179.376 50.8875 180.239C54.5531 177.578 57.4102 174.251 59.4586 170.259C61.507 166.267 62.5312 162.005 62.5312 157.474C62.5312 153.589 61.7047 149.795 60.0516 146.091C58.3984 142.386 56.0266 138.988 52.9359 135.895C51.4266 136.974 49.8453 137.819 48.1922 138.43C46.5391 139.042 44.8859 139.347 43.2328 139.347C38.8484 139.347 35.2188 137.855 32.3438 134.87C29.4688 131.885 28.0312 128.126 28.0312 123.595V121.437C24.725 123.811 21.7422 126.436 19.0828 129.313C16.4234 132.19 14.1594 135.193 12.2906 138.322C10.4219 141.451 8.98438 144.652 7.97813 147.925C6.97188 151.198 6.46875 154.381 6.46875 157.474ZM34.5 160.063L26.8453 167.616C25.8391 168.623 25.0664 169.738 24.5273 170.961C23.9883 172.183 23.7188 173.514 23.7188 174.953C23.7188 177.902 24.7609 180.401 26.8453 182.451C28.9297 184.501 31.4813 185.526 34.5 185.526C37.5187 185.526 40.0703 184.501 42.1547 182.451C44.2391 180.401 45.2812 177.902 45.2812 174.953C45.2812 173.514 45.0117 172.183 44.4727 170.961C43.9336 169.738 43.1609 168.623 42.1547 167.616L34.5 160.063ZM34.5 110V124.242C34.5 126.688 35.3445 128.738 37.0336 130.392C38.7227 132.046 40.7891 132.874 43.2328 132.874C44.5266 132.874 45.7305 132.604 46.8445 132.064C47.9586 131.525 48.9469 130.716 49.8094 129.637L51.75 127.263C57.0687 130.284 61.2734 134.492 64.3641 139.887C67.4547 145.282 69 151.144 69 157.474C69 167.112 65.6578 175.276 58.9734 181.966C52.2891 188.655 44.1313 192 34.5 192C24.8687 192 16.7109 188.655 10.0266 181.966C3.34219 175.276 0 167.112 0 157.474C0 148.267 3.09063 139.401 9.27188 130.878C15.4531 122.354 23.8625 115.395 34.5 110Z" fill="#EF820A"/>
<path d="M34.5 160.063L26.8453 167.616C25.8391 168.623 25.0664 169.738 24.5273 170.961C23.9883 172.183 23.7188 173.514 23.7188 174.953C23.7188 177.902 24.7609 180.401 26.8453 182.451C28.9297 184.501 31.4813 185.526 34.5 185.526C37.5187 185.526 40.0703 184.501 42.1547 182.451C44.2391 180.401 45.2812 177.902 45.2812 174.953C45.2812 173.514 45.0117 172.183 44.4727 170.961C43.9336 169.738 43.1609 168.623 42.1547 167.616L34.5 160.063Z" fill="#EF820A"/>
<path d="M6.46875 157.474C6.46875 162.005 7.49297 166.267 9.54141 170.259C11.5898 174.251 14.4469 177.578 18.1125 180.239C17.825 179.376 17.6094 178.495 17.4656 177.596C17.3219 176.697 17.25 175.816 17.25 174.953C17.25 172.651 17.6813 170.493 18.5438 168.479C19.4063 166.465 20.6641 164.631 22.3172 162.976L34.5 151L46.6828 162.976C48.3359 164.631 49.5937 166.465 50.4562 168.479C51.3187 170.493 51.75 172.651 51.75 174.953C51.75 175.816 51.6781 176.697 51.5344 177.596C51.3906 178.495 51.175 179.376 50.8875 180.239C54.5531 177.578 57.4102 174.251 59.4586 170.259C61.507 166.267 62.5312 162.005 62.5312 157.474C62.5312 153.589 61.7047 149.795 60.0516 146.091C58.3984 142.386 56.0266 138.988 52.9359 135.895C51.4266 136.974 49.8453 137.819 48.1922 138.43C46.5391 139.042 44.8859 139.347 43.2328 139.347C38.8484 139.347 35.2188 137.855 32.3438 134.87C29.4688 131.885 28.0312 128.126 28.0312 123.595V121.437C24.725 123.811 21.7422 126.436 19.0828 129.313C16.4234 132.19 14.1594 135.193 12.2906 138.322C10.4219 141.451 8.98438 144.652 7.97813 147.925C6.97188 151.198 6.46875 154.381 6.46875 157.474Z" fill="#EF820A"/>
<path fill-rule="evenodd" clip-rule="evenodd" d="M2.00165 29.2948C2.00165 23.8597 2.84761 19.2998 4.53968 15.6149C6.33746 11.838 8.8756 8.798 12.154 6.49498C15.4323 4.19196 19.398 2.53383 24.0512 1.52053C28.7043 0.507203 33.9391 0.000488281 39.7556 0.000488281C45.0432 0.000488281 49.5378 0.322955 53.2391 0.967783C57.0463 1.5205 60.0073 2.16537 62.1223 2.90237C64.8719 3.91567 66.4582 5.11318 66.8813 6.49498C67.41 7.87678 67.6745 9.21256 67.6745 10.5023V20.4512C65.2422 20.3589 63.0742 20.2669 61.1706 20.1753C59.267 19.9914 57.4164 19.8994 55.6186 19.8994C53.8207 19.807 52.023 19.7609 50.2252 19.7609C48.4274 19.6686 46.4709 19.6225 44.3558 19.6225C41.0775 19.6225 38.3808 19.8067 36.2657 20.1751C34.2564 20.5437 32.6701 21.0503 31.5068 21.6951C30.3435 22.34 29.5504 23.1691 29.1274 24.1824C28.7044 25.1957 28.4929 26.3011 28.4929 27.4987C28.4929 28.8805 28.6515 30.0781 28.9686 31.0914C29.3916 32.0126 30.1318 32.8878 31.1893 33.7169C32.3526 34.546 33.9918 35.4211 36.1069 36.3423C38.3277 37.2635 41.2888 38.415 44.9902 39.7968C49.8548 41.6392 53.9263 43.4356 57.2047 45.1859C60.5888 46.9362 63.2856 48.9167 65.2948 51.1276C67.4099 53.3385 68.8904 55.9179 69.7365 58.8657C70.6882 61.8136 71.1641 65.3602 71.1641 69.5056C71.1641 74.7565 70.4768 79.2703 69.102 83.0472C67.7272 86.7321 65.5063 89.8181 62.4395 92.3054C59.4784 94.7005 55.6184 96.4508 50.8595 97.5563C46.1006 98.7538 40.2842 99.3526 33.4102 99.3526C28.3341 99.3526 23.5752 99.0762 19.1335 98.5235C14.6918 98.0629 11.2548 97.4181 8.82253 96.589C6.60172 95.8521 5.06825 94.9308 4.22218 93.8254C3.37618 92.6278 2.95316 91.246 2.95316 89.6799V78.4873C7.07753 78.7636 11.0962 78.9939 15.0091 79.1783C18.9219 79.2706 22.9406 79.3167 27.0649 79.3167C30.6606 79.3167 33.5688 79.1325 35.7897 78.7641C38.1162 78.3956 39.8612 77.8889 41.0245 77.244C42.2935 76.5071 43.1396 75.632 43.5626 74.6186C43.9856 73.5132 44.197 72.3156 44.197 71.026C44.197 69.3678 43.9326 68.0321 43.4039 67.0187C42.8751 65.9133 41.9234 64.946 40.5486 64.1169C39.2796 63.1957 37.4817 62.3206 35.1551 61.4915C32.9343 60.5703 30.0789 59.4649 26.589 58.1752C21.6186 56.4249 17.5472 54.6286 14.3746 52.7862C11.202 50.9437 8.71674 48.871 6.91896 46.568C5.12111 44.2651 3.85213 41.7317 3.11191 38.9681C2.37161 36.1124 2.00165 32.8875 2.00165 29.2948Z" fill="white"/>
<path fill-rule="evenodd" clip-rule="evenodd" d="M143.348 99.3529H124.382C122.998 99.3529 121.844 98.8272 120.922 97.7759C120.091 96.7245 119.445 95.5298 118.983 94.1917C117.138 89.3172 115.246 84.395 113.308 79.425C111.37 74.3593 109.385 69.4371 107.355 64.6582C105.417 59.8794 103.479 55.2916 101.541 50.895C99.6951 46.4984 97.8955 42.5798 96.142 39.139V99.3529H79.2532C75.8384 99.3529 74.1311 97.6803 74.1311 94.3351V0H92.2659C93.6502 0 94.85 0.525688 95.8652 1.57705C96.8804 2.62841 97.7109 3.82312 98.3569 5.16114C99.9258 8.50639 101.679 12.2816 103.617 16.4871C105.648 20.6925 107.678 25.0891 109.708 29.6768C111.739 34.2645 113.769 38.9478 115.8 43.7268C117.83 48.4101 119.676 52.95 121.337 57.3465V0H138.226C141.64 0 143.348 1.67259 143.348 5.01781V99.3529Z" fill="white"/>
<path fill-rule="evenodd" clip-rule="evenodd" d="M189.282 74.9806H170.647C170.114 79.3771 169.626 83.726 169.182 88.0269C168.739 92.3279 168.428 96.1032 168.251 99.3529H150.414C149.172 99.3529 148.151 98.9228 147.353 98.0626C146.643 97.2024 146.288 95.7688 146.288 93.7616C146.288 92.9015 146.332 91.9934 146.421 91.0376C146.51 90.0818 146.643 89.1739 146.82 88.3137C149.216 72.639 151.923 57.5855 154.94 43.1533C157.957 28.7211 161.773 14.3366 166.387 0H190.48C192.255 0 193.497 0.477864 194.207 1.43364C194.917 2.38941 195.449 3.39296 195.804 4.44432C199.798 17.2517 203.436 31.7795 206.719 48.0277C210.003 64.1803 212.931 81.2887 215.504 99.3529H196.337C193.497 99.3529 191.855 97.6324 191.412 94.1916L189.282 74.9806ZM179.964 18.3509C178.101 26.3794 176.592 33.4999 175.438 39.7124C174.374 45.8295 173.353 51.6598 172.377 57.2032H187.551C186.575 51.6598 185.51 45.8295 184.357 39.7124C183.292 33.4999 181.828 26.3794 179.964 18.3509Z" fill="white"/>
<path fill-rule="evenodd" clip-rule="evenodd" d="M223.988 99.3528C220.292 99.3528 218.444 97.7039 218.444 94.4063V3.10915C224.037 2.07278 229.681 1.31909 235.374 0.848009C241.167 0.282682 246.311 0 250.805 0C257.098 0 262.541 0.565319 267.135 1.69594C271.83 2.82656 275.675 4.66381 278.671 7.20768C281.768 9.75158 284.015 13.0963 285.413 17.2419C286.912 21.3875 287.661 26.4753 287.661 32.5053C287.661 44.1883 285.014 52.6678 279.72 57.9439C274.526 63.1259 266.786 65.717 256.498 65.717C254.001 65.717 251.604 65.6227 249.307 65.4343C247.11 65.1515 245.312 64.869 243.913 64.5865V99.3529L223.988 99.3528ZM243.913 47.2032C245.112 47.3916 246.211 47.533 247.209 47.6274C248.208 47.7218 249.157 47.7689 250.056 47.7689C252.253 47.7689 254.101 47.5805 255.599 47.2037C257.197 46.7326 258.496 45.9318 259.495 44.8012C260.493 43.5763 261.242 41.9747 261.742 39.9961C262.241 38.0175 262.491 35.4735 262.491 32.3643C262.491 29.4436 262.241 27.0411 261.742 25.1567C261.342 23.2724 260.693 21.812 259.794 20.7756C258.895 19.645 257.697 18.8913 256.199 18.5144C254.8 18.1376 253.152 17.9491 251.255 17.9491C250.356 17.9491 249.107 17.9963 247.509 18.0907C245.911 18.0907 244.713 18.1379 243.913 18.2323V47.2032Z" fill="white"/>
<path fill-rule="evenodd" clip-rule="evenodd" d="M98.8198 180.471H107.343C111.556 180.471 114.544 179.566 116.308 177.755C118.169 175.853 119.1 172.82 119.1 168.655C119.1 164.308 118.071 161.275 116.014 159.555C114.054 157.744 110.674 156.838 105.874 156.838H98.8198V180.471ZM98.8198 140.811H106.462C110.185 140.811 112.83 140.087 114.397 138.638C116.063 137.099 116.896 134.156 116.896 129.809C116.896 125.554 116.112 122.701 114.544 121.253C112.977 119.713 110.184 118.944 106.168 118.944C105.188 118.944 103.914 118.989 102.347 119.08C100.779 119.08 99.6036 119.125 98.8198 119.216V140.811ZM74.1311 104.682C79.6175 103.686 85.0548 102.962 90.4432 102.509C95.9296 101.966 100.877 101.694 105.286 101.694C110.674 101.694 115.573 102.147 119.982 103.053C124.39 103.867 128.113 105.316 131.15 107.399C134.285 109.391 136.686 112.062 138.351 115.412C140.017 118.672 140.849 122.701 140.849 127.5C140.849 132.571 139.772 136.782 137.616 140.132C135.559 143.482 132.032 146.335 127.036 148.689C130.367 149.956 133.11 151.451 135.265 153.171C137.421 154.801 139.086 156.657 140.262 158.74C141.437 160.732 142.221 162.814 142.613 164.988C143.103 167.161 143.348 169.334 143.348 171.507C143.348 176.578 142.466 180.743 140.703 184.003C138.939 187.262 136.539 189.888 133.501 191.88C130.464 193.872 126.889 195.276 122.774 196.091C118.659 196.815 114.25 197.177 109.548 197.177H79.5685C75.9436 197.177 74.1311 195.593 74.1311 192.424V104.682Z" fill="white"/>
<path fill-rule="evenodd" clip-rule="evenodd" d="M151.542 197.178C147.709 197.178 145.793 195.57 145.793 192.355V101.694H167.237C171.07 101.694 172.987 103.301 172.987 106.516V197.178H151.542Z" fill="white"/>
<path fill-rule="evenodd" clip-rule="evenodd" d="M201.215 121.397H181.284C177.383 121.397 175.432 119.789 175.432 116.574V101.694H248.667C252.569 101.694 254.52 103.301 254.52 106.516V121.397H228.895V197.178H207.067C203.165 197.178 201.215 195.57 201.215 192.355V121.397Z" fill="white"/>
<path fill-rule="evenodd" clip-rule="evenodd" d="M316.281 101.694C320.183 101.694 322.133 103.301 322.133 106.516V120.708H283.855V138.895H311.694C315.595 138.895 317.546 140.503 317.546 143.718V157.909H283.855V178.164H317.863C321.764 178.164 323.715 179.771 323.715 182.986V197.178H262.818C258.916 197.178 256.965 195.57 256.965 192.355V101.694H316.281Z" fill="white"/>
<path fill-rule="evenodd" clip-rule="evenodd" d="M324 135.814C324 128.984 324.928 123.253 326.783 118.623C328.754 113.876 331.536 110.056 335.131 107.162C338.725 104.267 343.072 102.184 348.174 100.91C353.275 99.6367 359.014 99 365.391 99C371.188 99 376.116 99.4051 380.174 100.215C384.347 100.91 387.594 101.721 389.913 102.647C392.927 103.92 394.666 105.425 395.13 107.162C395.71 108.898 396 110.577 396 112.198V124.701C393.333 124.585 390.956 124.469 388.869 124.354C386.782 124.122 384.753 124.007 382.782 124.007C380.811 123.891 378.84 123.834 376.869 123.834C374.898 123.718 372.753 123.66 370.435 123.66C366.84 123.66 363.884 123.892 361.565 124.354C359.362 124.817 357.623 125.454 356.348 126.265C355.072 127.075 354.203 128.117 353.739 129.39C353.275 130.664 353.043 132.053 353.043 133.558C353.043 135.295 353.217 136.8 353.565 138.073C354.03 139.231 354.841 140.33 356 141.372C357.275 142.414 359.073 143.514 361.392 144.672C363.826 145.829 367.073 147.277 371.131 149.013C376.464 151.328 380.911 153.611 384.522 155.786C388.215 158.01 391.152 160.5 393.391 163.253C395.674 166.058 397.333 169.273 398.261 172.977C399.304 176.682 399.182 181.542 399.182 186.752C399.182 193.35 398.429 199.023 396.921 203.769C395.414 208.4 392.336 211.674 388.973 214.799C385.727 217.81 382.707 219.07 377.49 220.46C372.272 221.965 365.03 221.748 357.494 221.748C351.929 221.748 347.974 221.696 343.105 221.001C338.235 220.423 334.145 221.427 331.479 220.385C329.044 219.458 327.363 218.301 326.435 216.911C325.508 215.406 325.065 213.67 325.044 211.702L324.936 201.872C329.351 200.808 333.864 200.793 338.368 200.318C342.658 200.434 347.114 200.772 351.586 200.19C353.215 199.977 357.379 200.236 362.139 199.502C365.4 198.733 366.314 197.661 367.536 196.71C368.628 195.866 369.101 194.047 369.565 192.774C370.029 191.384 370.261 189.879 370.261 188.259C370.261 186.175 369.971 184.496 369.391 183.223C368.812 181.834 367.768 180.618 366.261 179.576C364.87 178.419 362.899 177.319 360.348 176.277C357.913 175.119 354.783 173.73 350.957 172.109C345.507 169.909 341.044 167.652 337.565 165.337C334.087 163.021 331.363 160.416 329.392 157.522C327.421 154.628 326.029 151.444 325.218 147.971C324.406 144.383 324 140.329 324 135.814Z" fill="white"/>
<path fill-rule="evenodd" clip-rule="evenodd" d="M2 199.988H379.189L359.773 221.816L2 222.051V199.988Z" fill="white"/>
<path d="M14.9513 181L12.3184 178.366L38.6466 152.021C37.7272 150.014 37.5182 147.934 38.0197 145.78C38.5212 143.627 39.7122 141.609 41.5928 139.727C43.4734 137.887 45.751 136.706 48.4256 136.183C51.1002 135.66 53.2942 136.256 55.0076 137.971C56.7628 139.727 57.3583 141.923 56.7942 144.557C56.23 147.191 54.9658 149.512 53.0017 151.519C51.2882 153.276 49.3763 154.426 47.2659 154.969C45.1555 155.513 43.1808 155.387 41.3421 154.593L37.1421 158.795L56.7001 178.366L54.0673 181L34.5093 161.43L14.9513 181ZM22.787 158.984L15.3274 151.519C13.196 149.387 12.0886 146.857 12.005 143.93C11.9214 141.003 12.8826 138.41 14.8886 136.152L30.2466 151.519L22.787 158.984Z" fill="black"/>
</svg>
