<svg width="281" height="157" viewBox="0 0 281 157" fill="none" xmlns="http://www.w3.org/2000/svg">
<path fill-rule="evenodd" clip-rule="evenodd" d="M0.00134808 20.6131C0.00134808 16.7887 0.596607 13.5801 1.78723 10.9873C3.05223 8.32969 4.83819 6.1906 7.14501 4.57008C9.45183 2.94956 12.2423 1.78283 15.5165 1.06982C18.7907 0.356793 22.4741 0.000244141 26.5668 0.000244141C30.2875 0.000244141 33.4501 0.227147 36.0545 0.680879C38.7334 1.0698 40.8169 1.52356 42.3052 2.04215C44.2399 2.75515 45.3561 3.59778 45.6538 4.57008C46.0258 5.54238 46.2119 6.4823 46.2119 7.38982V14.3904C44.5005 14.3254 42.9749 14.2607 41.6355 14.1962C40.296 14.0668 38.9938 14.0021 37.7288 14.0021C36.4638 13.9371 35.1988 13.9046 33.9338 13.9046C32.6687 13.8397 31.292 13.8072 29.8038 13.8072C27.497 13.8072 25.5995 13.9368 24.1112 14.1961C22.6974 14.4554 21.5812 14.8119 20.7626 15.2656C19.9441 15.7194 19.386 16.3028 19.0883 17.0158C18.7907 17.7288 18.6419 18.5067 18.6419 19.3493C18.6419 20.3216 18.7535 21.1643 18.9766 21.8773C19.2742 22.5255 19.7951 23.1413 20.5392 23.7247C21.3578 24.3081 22.5112 24.9239 23.9995 25.5721C25.5621 26.2203 27.6457 27.0305 30.2502 28.0029C33.6732 29.2993 36.5381 30.5633 38.8449 31.7949C41.2261 33.0265 43.1237 34.4201 44.5375 35.9758C46.0258 37.5315 47.0675 39.3464 47.6628 41.4207C48.3326 43.4949 48.6674 45.9905 48.6674 48.9074C48.6674 52.6022 48.1838 55.7784 47.2164 58.436C46.249 61.0288 44.6863 63.2003 42.5283 64.9504C40.4448 66.6358 37.7287 67.8674 34.3801 68.6452C31.0315 69.4879 26.9388 69.9092 22.1019 69.9092C18.5301 69.9092 15.1815 69.7147 12.0562 69.3258C8.93079 69.0017 6.51234 68.548 4.80086 67.9646C3.23818 67.4461 2.15916 66.7978 1.56382 66.02C0.968537 65.1773 0.67088 64.205 0.67088 63.103V55.2274C3.57298 55.4218 6.40069 55.5838 9.15399 55.7136C11.9073 55.7785 14.735 55.811 17.6371 55.811C20.1672 55.811 22.2135 55.6814 23.7762 55.4221C25.4133 55.1628 26.6411 54.8063 27.4597 54.3525C28.3527 53.834 28.948 53.2182 29.2457 52.5052C29.5433 51.7273 29.692 50.8847 29.692 49.9772C29.692 48.8104 29.506 47.8705 29.134 47.1575C28.7619 46.3797 28.0922 45.699 27.1249 45.1157C26.2319 44.4675 24.9668 43.8517 23.3297 43.2683C21.7671 42.6201 19.7579 41.8423 17.3022 40.9348C13.8048 39.7032 10.9399 38.4392 8.70755 37.1428C6.47513 35.8464 4.72641 34.3879 3.46141 32.7674C2.19635 31.1469 1.30344 29.3644 0.782585 27.4198C0.261676 25.4103 0.00134808 23.1411 0.00134808 20.6131Z" fill="black"/>
<path fill-rule="evenodd" clip-rule="evenodd" d="M99.4589 69.9095H86.1141C85.14 69.9095 84.3283 69.5396 83.6789 68.7998C83.0945 68.0601 82.6399 67.2194 82.3151 66.2778C81.0164 62.8479 79.6851 59.3844 78.3214 55.8872C76.9577 52.3228 75.5616 48.8593 74.1329 45.4966C72.7692 42.134 71.4054 38.9058 70.0417 35.8122C68.7429 32.7186 67.4766 29.9612 66.2428 27.5401V69.9095H54.359C51.9562 69.9095 50.7549 68.7326 50.7549 66.3787V0H63.5154C64.4895 0 65.3337 0.369899 66.0481 1.10969C66.7624 1.84947 67.3468 2.69013 67.8013 3.63163C68.9053 5.98551 70.1391 8.64196 71.5028 11.6011C72.9314 14.5602 74.3602 17.6539 75.7888 20.8821C77.2175 24.1102 78.6462 27.4056 80.0748 30.7683C81.5035 34.0637 82.8022 37.2582 83.9711 40.3518V0H95.8549C98.2576 0 99.4589 1.17691 99.4589 3.53077V69.9095Z" fill="black"/>
<path fill-rule="evenodd" clip-rule="evenodd" d="M131.78 52.76H118.668C118.293 55.8536 117.95 58.9136 117.638 61.94C117.325 64.9664 117.107 67.6229 116.982 69.9095H104.431C103.557 69.9095 102.839 69.6069 102.277 69.0016C101.778 68.3963 101.528 67.3875 101.528 65.9752C101.528 65.37 101.559 64.731 101.622 64.0585C101.684 63.3859 101.778 62.747 101.903 62.1418C103.588 51.1123 105.493 40.5199 107.616 30.3647C109.739 20.2095 112.424 10.088 115.671 0H132.624C133.872 0 134.747 0.336248 135.246 1.00878C135.746 1.6813 136.12 2.38745 136.37 3.12724C139.18 12.1391 141.74 22.3616 144.05 33.7946C146.361 45.1603 148.421 57.1986 150.232 69.9095H136.745C134.746 69.9095 133.591 68.6989 133.279 66.2778L131.78 52.76ZM125.224 12.9126C123.913 18.5619 122.851 23.5722 122.04 27.9436C121.29 32.2478 120.572 36.3503 119.885 40.2509H130.563C129.876 36.3503 129.127 32.2478 128.315 27.9436C127.566 23.5722 126.535 18.5619 125.224 12.9126Z" fill="black"/>
<path fill-rule="evenodd" clip-rule="evenodd" d="M156.201 69.9094C153.601 69.9094 152.301 68.7492 152.301 66.4288V2.18775C156.236 1.45851 160.207 0.928177 164.213 0.5967C168.289 0.198909 171.909 0 175.071 0C179.499 0 183.329 0.397786 186.562 1.19334C189.865 1.9889 192.571 3.28168 194.679 5.07167C196.858 6.86168 198.439 9.21519 199.423 12.1322C200.478 15.0493 201.005 18.6293 201.005 22.8723C201.005 31.093 199.142 37.0596 195.417 40.7721C191.763 44.4185 186.316 46.2416 179.077 46.2416C177.32 46.2416 175.634 46.1753 174.017 46.0428C172.471 45.8438 171.206 45.6449 170.222 45.4462V69.9095L156.201 69.9094ZM170.222 33.2144C171.065 33.347 171.838 33.4465 172.541 33.5129C173.244 33.5794 173.912 33.6125 174.544 33.6125C176.09 33.6125 177.39 33.48 178.445 33.2148C179.569 32.8833 180.483 32.3198 181.186 31.5243C181.889 30.6624 182.416 29.5354 182.767 28.1432C183.118 26.751 183.294 24.9609 183.294 22.7731C183.294 20.7179 183.118 19.0274 182.767 17.7015C182.486 16.3756 182.029 15.348 181.397 14.6187C180.764 13.8232 179.921 13.2929 178.866 13.0277C177.882 12.7625 176.723 12.6299 175.388 12.6299C174.755 12.6299 173.877 12.6631 172.752 12.7295C171.628 12.7295 170.784 12.7627 170.222 12.8291V33.2144Z" fill="black"/>
<path fill-rule="evenodd" clip-rule="evenodd" d="M68.127 126.988H74.1246C77.0889 126.988 79.1914 126.351 80.4323 125.077C81.7421 123.739 82.397 121.604 82.397 118.673C82.397 115.615 81.6733 113.481 80.2256 112.27C78.8469 110.996 76.4684 110.359 73.0905 110.359H68.127V126.988ZM68.127 99.0814H73.5042C76.1238 99.0814 77.9851 98.5717 79.088 97.5522C80.26 96.4691 80.846 94.3984 80.846 91.3401C80.846 88.3455 80.2945 86.3385 79.1915 85.3191C78.0885 84.236 76.1237 83.6944 73.2973 83.6944C72.6079 83.6944 71.7118 83.7263 70.6088 83.79C69.5058 83.79 68.6786 83.8219 68.127 83.8857V99.0814ZM50.7549 73.6594C54.6154 72.9586 58.4413 72.4488 62.2329 72.1303C66.0934 71.748 69.5747 71.5569 72.6769 71.5569C76.4684 71.5569 79.9153 71.8755 83.0175 72.5126C86.1196 73.086 88.7393 74.1054 90.8763 75.5709C93.0823 76.9726 94.7713 78.8521 95.9432 81.2095C97.1151 83.5032 97.7011 86.3385 97.7011 89.7153C97.7011 93.2833 96.9428 96.246 95.4262 98.6035C93.9785 100.961 91.4968 102.968 87.981 104.624C90.3249 105.516 92.2552 106.568 93.7718 107.778C95.2884 108.925 96.4602 110.231 97.2875 111.697C98.1147 113.098 98.6663 114.564 98.942 116.093C99.2867 117.622 99.4589 119.151 99.4589 120.68C99.4589 124.248 98.8386 127.179 97.5978 129.473C96.3569 131.767 94.6678 133.614 92.5308 135.016C90.3938 136.418 87.8776 137.405 84.9822 137.979C82.0868 138.489 78.9847 138.743 75.6757 138.743H54.5809C52.0302 138.743 50.7549 137.628 50.7549 135.398V73.6594Z" fill="black"/>
<path fill-rule="evenodd" clip-rule="evenodd" d="M105.225 138.743C102.528 138.743 101.18 137.612 101.18 135.35V71.5557H116.269C118.966 71.5557 120.315 72.6868 120.315 74.949V138.743H105.225Z" fill="black"/>
<path fill-rule="evenodd" clip-rule="evenodd" d="M140.177 85.4197H126.153C123.408 85.4197 122.035 84.2886 122.035 82.0264V71.5557H173.567C176.312 71.5557 177.685 72.6868 177.685 74.949V85.4197H159.654V138.743H144.295C141.55 138.743 140.177 137.612 140.177 135.35V85.4197Z" fill="black"/>
<path fill-rule="evenodd" clip-rule="evenodd" d="M221.143 71.5557C223.889 71.5557 225.261 72.6868 225.261 74.949V84.935H198.327V97.7326H217.916C220.661 97.7326 222.034 98.8637 222.034 101.126V111.112H198.327V125.364H222.256C225.002 125.364 226.374 126.495 226.374 128.757V138.743H183.524C180.779 138.743 179.406 137.612 179.406 135.35V71.5557H221.143Z" fill="black"/>
<path fill-rule="evenodd" clip-rule="evenodd" d="M228.095 95.6323C228.095 90.8262 228.748 86.7939 230.053 83.5355C231.44 80.1956 233.398 77.5074 235.927 75.4709C238.456 73.4344 241.516 71.9681 245.105 71.0721C248.695 70.1761 252.733 69.728 257.22 69.728C261.299 69.728 264.766 70.013 267.622 70.5833C270.559 71.0721 272.843 71.6423 274.475 72.294C276.596 73.1901 277.819 74.249 278.146 75.4709C278.554 76.6928 278.758 77.874 278.758 79.0145V87.8122C276.881 87.7307 275.209 87.6493 273.74 87.5682C272.272 87.4053 270.844 87.3242 269.457 87.3242C268.07 87.2428 266.684 87.2021 265.297 87.2021C263.91 87.1206 262.401 87.0799 260.769 87.0799C258.24 87.0799 256.16 87.2431 254.528 87.5686C252.978 87.8944 251.754 88.3425 250.857 88.9127C249.959 89.483 249.347 90.2162 249.021 91.1122C248.695 92.0082 248.532 92.9858 248.532 94.0448C248.532 95.2667 248.654 96.3257 248.899 97.2217C249.226 98.0363 249.796 98.8102 250.612 99.5433C251.509 100.276 252.774 101.05 254.406 101.865C256.119 102.68 258.403 103.698 261.259 104.92C265.011 106.549 268.14 108.155 270.681 109.685C273.28 111.25 275.346 113.003 276.922 114.939C278.528 116.913 279.696 119.175 280.349 121.782C281.083 124.389 280.997 127.809 280.997 131.474C280.997 136.117 280.467 140.109 279.406 143.449C278.346 146.707 276.179 149.011 273.814 151.21C271.529 153.328 269.404 154.215 265.733 155.193C262.062 156.252 256.966 156.099 251.663 156.099C247.747 156.099 244.965 156.063 241.538 155.574C238.112 155.167 235.234 155.873 233.357 155.14C231.644 154.488 230.461 153.674 229.809 152.696C229.156 151.637 228.845 150.415 228.83 149.031L228.754 142.114C231.86 141.365 235.036 141.354 238.206 141.021C241.224 141.102 244.359 141.34 247.506 140.93C248.652 140.781 251.582 140.963 254.931 140.446C257.226 139.905 257.87 139.151 258.729 138.482C259.498 137.888 259.831 136.608 260.157 135.712C260.484 134.734 260.647 133.675 260.647 132.535C260.647 131.069 260.443 129.887 260.035 128.991C259.627 128.014 258.893 127.158 257.832 126.425C256.853 125.611 255.466 124.837 253.671 124.104C251.958 123.289 249.755 122.312 247.063 121.171C243.229 119.623 240.088 118.035 237.64 116.406C235.193 114.776 233.276 112.944 231.889 110.907C230.502 108.871 229.523 106.63 228.952 104.187C228.381 101.661 228.095 98.8093 228.095 95.6323Z" fill="black"/>
<path fill-rule="evenodd" clip-rule="evenodd" d="M0 140.721H265.409L251.747 156.081L0 156.246V140.721Z" fill="black"/>
<path fill-rule="evenodd" clip-rule="evenodd" d="M1.93082 128.405C1.3164 128.289 0.918894 128.079 0.534244 127.667C0.116704 127.22 -0.0123317 126.763 0.00119118 125.774C0.0137124 124.493 0.10966 124.286 1.0073 123.494C4.4543 120.454 20.1159 106.857 20.1823 106.847C20.2274 106.84 20.9412 107.599 21.7658 108.533L23.2653 110.232L21.0758 112.341C19.8716 113.501 15.6639 117.56 11.7255 121.361L4.56462 128.271L3.89859 128.382C3.11046 128.513 2.54047 128.52 1.93082 128.405ZM42.4612 128.573C42.1999 128.521 41.9313 128.421 41.8629 128.353C41.7953 128.283 40.0295 126.279 37.9399 123.898C34.5132 119.994 31.1286 116.147 23.8083 107.835C22.4619 106.306 21.3339 105.019 21.3016 104.974C21.2682 104.93 20.7892 104.82 20.2341 104.73C18.8319 104.503 16.9011 103.887 15.3748 103.181C13.9618 102.527 11.7488 101.186 10.3372 100.128C9.12889 99.2218 6.74731 96.9745 5.75835 95.8071C3.60011 93.2592 2.02014 90.4006 1.39872 87.9194C1.17417 87.024 1.17542 84.6348 1.40197 84.0409C1.6311 83.4366 2.09685 82.507 2.17098 82.5073C2.20437 82.5075 12.232 91.9066 24.448 103.394L46.6591 124.281L46.731 124.826C46.9839 126.758 46.5786 127.854 45.4022 128.418C44.9118 128.653 43.2986 128.739 42.4612 128.573ZM27.3182 103.381L25.7822 101.932L26.7014 101.121C27.2074 100.674 28.1986 99.8004 28.9047 99.1783C30.1883 98.0474 30.1886 98.0472 30.0596 97.7455C29.4536 96.3279 29.3942 95.2798 29.8718 94.4197C30.0442 94.1081 31.9489 92.3 36.2128 88.3987L42.3068 82.8229L43.1047 83.5678L43.9024 84.3126L40.0918 87.7929L36.2811 91.2733L36.9957 91.9448L37.7101 92.6166L41.4669 89.1876C43.5331 87.3017 45.2727 85.7589 45.3328 85.7592C45.3908 85.7594 45.774 86.0737 46.1792 86.4577L46.916 87.1558L43.1072 90.6344L39.2984 94.1131L40.0129 94.7847L40.7274 95.4564L44.5384 91.9779L48.3492 88.4994L49.064 89.1712L49.7786 89.8429L43.6754 95.4159C37.2158 101.314 37.2246 101.307 36.0853 101.447C35.5245 101.516 34.5795 101.344 33.7124 101.015L33.0735 100.771L31.6695 102.132C30.8973 102.88 29.9482 103.793 29.5603 104.161L28.8548 104.83L27.3182 103.381Z" fill="black"/>
</svg>
